<svg xmlns="http://www.w3.org/2000/svg" xmlns:xlink="http://www.w3.org/1999/xlink" width="1280" zoomAndPan="magnify" viewBox="0 0 960 599.999999" height="800" preserveAspectRatio="xMidYMid meet" version="1.0"><defs><linearGradient x1="640" gradientTransform="matrix(0.75, 0, 0, 0.75, 0.00000048, 0.00002)" y1="0" x2="640" gradientUnits="userSpaceOnUse" y2="799.999967" id="061ae00672"><stop stop-opacity="1" stop-color="rgb(49.398804%, 66.699219%, 56.898499%)" offset="0"/><stop stop-opacity="1" stop-color="rgb(49.539185%, 66.75415%, 56.97937%)" offset="0.0078125"/><stop stop-opacity="1" stop-color="rgb(49.821472%, 66.867065%, 57.141113%)" offset="0.015625"/><stop stop-opacity="1" stop-color="rgb(50.10376%, 66.978455%, 57.302856%)" offset="0.0234375"/><stop stop-opacity="1" stop-color="rgb(50.384521%, 67.089844%, 57.4646%)" offset="0.03125"/><stop stop-opacity="1" stop-color="rgb(50.666809%, 67.202759%, 57.626343%)" offset="0.0390625"/><stop stop-opacity="1" stop-color="rgb(50.949097%, 67.314148%, 57.788086%)" offset="0.046875"/><stop stop-opacity="1" stop-color="rgb(51.231384%, 67.425537%, 57.949829%)" offset="0.0546875"/><stop stop-opacity="1" stop-color="rgb(51.512146%, 67.538452%, 58.110046%)" offset="0.0625"/><stop stop-opacity="1" stop-color="rgb(51.794434%, 67.649841%, 58.27179%)" offset="0.0703125"/><stop stop-opacity="1" stop-color="rgb(52.076721%, 67.76123%, 58.433533%)" offset="0.078125"/><stop stop-opacity="1" stop-color="rgb(52.359009%, 67.874146%, 58.595276%)" offset="0.0859375"/><stop stop-opacity="1" stop-color="rgb(52.639771%, 67.985535%, 58.757019%)" offset="0.09375"/><stop stop-opacity="1" stop-color="rgb(52.922058%, 68.096924%, 58.918762%)" offset="0.101562"/><stop stop-opacity="1" stop-color="rgb(53.204346%, 68.209839%, 59.080505%)" offset="0.109375"/><stop stop-opacity="1" stop-color="rgb(53.486633%, 68.321228%, 59.240723%)" offset="0.117188"/><stop stop-opacity="1" stop-color="rgb(53.767395%, 68.432617%, 59.402466%)" offset="0.125"/><stop stop-opacity="1" stop-color="rgb(54.049683%, 68.545532%, 59.564209%)" offset="0.132812"/><stop stop-opacity="1" stop-color="rgb(54.33197%, 68.656921%, 59.725952%)" offset="0.140625"/><stop stop-opacity="1" stop-color="rgb(54.614258%, 68.768311%, 59.887695%)" offset="0.148438"/><stop stop-opacity="1" stop-color="rgb(54.89502%, 68.881226%, 60.049438%)" offset="0.15625"/><stop stop-opacity="1" stop-color="rgb(55.177307%, 68.992615%, 60.211182%)" offset="0.164062"/><stop stop-opacity="1" stop-color="rgb(55.459595%, 69.10553%, 60.371399%)" offset="0.171875"/><stop stop-opacity="1" stop-color="rgb(55.740356%, 69.216919%, 60.533142%)" offset="0.179688"/><stop stop-opacity="1" stop-color="rgb(56.022644%, 69.328308%, 60.694885%)" offset="0.1875"/><stop stop-opacity="1" stop-color="rgb(56.304932%, 69.441223%, 60.856628%)" offset="0.195312"/><stop stop-opacity="1" stop-color="rgb(56.587219%, 69.552612%, 61.018372%)" offset="0.203125"/><stop stop-opacity="1" stop-color="rgb(56.867981%, 69.664001%, 61.180115%)" offset="0.210938"/><stop stop-opacity="1" stop-color="rgb(57.150269%, 69.776917%, 61.341858%)" offset="0.21875"/><stop stop-opacity="1" stop-color="rgb(57.432556%, 69.888306%, 61.502075%)" offset="0.226562"/><stop stop-opacity="1" stop-color="rgb(57.714844%, 69.999695%, 61.663818%)" offset="0.234375"/><stop stop-opacity="1" stop-color="rgb(57.995605%, 70.11261%, 61.825562%)" offset="0.242188"/><stop stop-opacity="1" stop-color="rgb(58.277893%, 70.223999%, 61.987305%)" offset="0.25"/><stop stop-opacity="1" stop-color="rgb(58.560181%, 70.335388%, 62.149048%)" offset="0.257812"/><stop stop-opacity="1" stop-color="rgb(58.842468%, 70.448303%, 62.310791%)" offset="0.265625"/><stop stop-opacity="1" stop-color="rgb(59.12323%, 70.559692%, 62.472534%)" offset="0.273438"/><stop stop-opacity="1" stop-color="rgb(59.405518%, 70.671082%, 62.632751%)" offset="0.28125"/><stop stop-opacity="1" stop-color="rgb(59.687805%, 70.783997%, 62.794495%)" offset="0.289062"/><stop stop-opacity="1" stop-color="rgb(59.968567%, 70.895386%, 62.956238%)" offset="0.296875"/><stop stop-opacity="1" stop-color="rgb(60.250854%, 71.006775%, 63.117981%)" offset="0.304688"/><stop stop-opacity="1" stop-color="rgb(60.533142%, 71.11969%, 63.279724%)" offset="0.3125"/><stop stop-opacity="1" stop-color="rgb(60.81543%, 71.231079%, 63.441467%)" offset="0.320312"/><stop stop-opacity="1" stop-color="rgb(61.096191%, 71.342468%, 63.60321%)" offset="0.328125"/><stop stop-opacity="1" stop-color="rgb(61.378479%, 71.455383%, 63.763428%)" offset="0.335938"/><stop stop-opacity="1" stop-color="rgb(61.660767%, 71.566772%, 63.925171%)" offset="0.34375"/><stop stop-opacity="1" stop-color="rgb(61.943054%, 71.678162%, 64.086914%)" offset="0.351562"/><stop stop-opacity="1" stop-color="rgb(62.223816%, 71.791077%, 64.248657%)" offset="0.359375"/><stop stop-opacity="1" stop-color="rgb(62.506104%, 71.902466%, 64.4104%)" offset="0.367188"/><stop stop-opacity="1" stop-color="rgb(62.788391%, 72.013855%, 64.572144%)" offset="0.375"/><stop stop-opacity="1" stop-color="rgb(63.070679%, 72.12677%, 64.733887%)" offset="0.382812"/><stop stop-opacity="1" stop-color="rgb(63.35144%, 72.238159%, 64.894104%)" offset="0.390625"/><stop stop-opacity="1" stop-color="rgb(63.633728%, 72.349548%, 65.055847%)" offset="0.398438"/><stop stop-opacity="1" stop-color="rgb(63.916016%, 72.462463%, 65.21759%)" offset="0.40625"/><stop stop-opacity="1" stop-color="rgb(64.198303%, 72.573853%, 65.379333%)" offset="0.414062"/><stop stop-opacity="1" stop-color="rgb(64.479065%, 72.685242%, 65.541077%)" offset="0.421875"/><stop stop-opacity="1" stop-color="rgb(64.761353%, 72.798157%, 65.70282%)" offset="0.429688"/><stop stop-opacity="1" stop-color="rgb(65.04364%, 72.909546%, 65.864563%)" offset="0.4375"/><stop stop-opacity="1" stop-color="rgb(65.324402%, 73.020935%, 66.02478%)" offset="0.445312"/><stop stop-opacity="1" stop-color="rgb(65.606689%, 73.13385%, 66.186523%)" offset="0.453125"/><stop stop-opacity="1" stop-color="rgb(65.888977%, 73.245239%, 66.348267%)" offset="0.460938"/><stop stop-opacity="1" stop-color="rgb(66.171265%, 73.356628%, 66.51001%)" offset="0.46875"/><stop stop-opacity="1" stop-color="rgb(66.452026%, 73.469543%, 66.671753%)" offset="0.476562"/><stop stop-opacity="1" stop-color="rgb(66.734314%, 73.580933%, 66.833496%)" offset="0.484375"/><stop stop-opacity="1" stop-color="rgb(67.016602%, 73.692322%, 66.995239%)" offset="0.492188"/><stop stop-opacity="1" stop-color="rgb(67.298889%, 73.805237%, 67.155457%)" offset="0.5"/><stop stop-opacity="1" stop-color="rgb(67.579651%, 73.916626%, 67.3172%)" offset="0.507812"/><stop stop-opacity="1" stop-color="rgb(67.861938%, 74.028015%, 67.478943%)" offset="0.515625"/><stop stop-opacity="1" stop-color="rgb(68.144226%, 74.14093%, 67.640686%)" offset="0.523438"/><stop stop-opacity="1" stop-color="rgb(68.426514%, 74.252319%, 67.802429%)" offset="0.53125"/><stop stop-opacity="1" stop-color="rgb(68.707275%, 74.365234%, 67.964172%)" offset="0.539062"/><stop stop-opacity="1" stop-color="rgb(68.989563%, 74.476624%, 68.125916%)" offset="0.546875"/><stop stop-opacity="1" stop-color="rgb(69.271851%, 74.588013%, 68.287659%)" offset="0.554688"/><stop stop-opacity="1" stop-color="rgb(69.552612%, 74.700928%, 68.447876%)" offset="0.5625"/><stop stop-opacity="1" stop-color="rgb(69.8349%, 74.812317%, 68.609619%)" offset="0.570312"/><stop stop-opacity="1" stop-color="rgb(70.117188%, 74.923706%, 68.771362%)" offset="0.578125"/><stop stop-opacity="1" stop-color="rgb(70.399475%, 75.036621%, 68.933105%)" offset="0.585938"/><stop stop-opacity="1" stop-color="rgb(70.680237%, 75.14801%, 69.094849%)" offset="0.59375"/><stop stop-opacity="1" stop-color="rgb(70.962524%, 75.259399%, 69.256592%)" offset="0.601562"/><stop stop-opacity="1" stop-color="rgb(71.244812%, 75.372314%, 69.418335%)" offset="0.609375"/><stop stop-opacity="1" stop-color="rgb(71.5271%, 75.483704%, 69.578552%)" offset="0.617188"/><stop stop-opacity="1" stop-color="rgb(71.807861%, 75.595093%, 69.740295%)" offset="0.625"/><stop stop-opacity="1" stop-color="rgb(72.090149%, 75.708008%, 69.902039%)" offset="0.632812"/><stop stop-opacity="1" stop-color="rgb(72.372437%, 75.819397%, 70.063782%)" offset="0.640625"/><stop stop-opacity="1" stop-color="rgb(72.654724%, 75.930786%, 70.225525%)" offset="0.648438"/><stop stop-opacity="1" stop-color="rgb(72.935486%, 76.043701%, 70.387268%)" offset="0.65625"/><stop stop-opacity="1" stop-color="rgb(73.217773%, 76.15509%, 70.549011%)" offset="0.664062"/><stop stop-opacity="1" stop-color="rgb(73.500061%, 76.266479%, 70.709229%)" offset="0.671875"/><stop stop-opacity="1" stop-color="rgb(73.782349%, 76.379395%, 70.870972%)" offset="0.679688"/><stop stop-opacity="1" stop-color="rgb(74.06311%, 76.490784%, 71.032715%)" offset="0.6875"/><stop stop-opacity="1" stop-color="rgb(74.345398%, 76.602173%, 71.194458%)" offset="0.695312"/><stop stop-opacity="1" stop-color="rgb(74.627686%, 76.715088%, 71.356201%)" offset="0.703125"/><stop stop-opacity="1" stop-color="rgb(74.908447%, 76.826477%, 71.517944%)" offset="0.710938"/><stop stop-opacity="1" stop-color="rgb(75.190735%, 76.937866%, 71.679688%)" offset="0.71875"/><stop stop-opacity="1" stop-color="rgb(75.473022%, 77.050781%, 71.839905%)" offset="0.726562"/><stop stop-opacity="1" stop-color="rgb(75.75531%, 77.16217%, 72.001648%)" offset="0.734375"/><stop stop-opacity="1" stop-color="rgb(75.996399%, 77.258301%, 72.140503%)" offset="0.75"/><stop stop-opacity="1" stop-color="rgb(76.098633%, 77.2995%, 72.198486%)" offset="0.8125"/><stop stop-opacity="1" stop-color="rgb(76.098633%, 77.2995%, 72.198486%)" offset="0.828125"/><stop stop-opacity="1" stop-color="rgb(76.234436%, 77.427673%, 72.363281%)" offset="0.835938"/><stop stop-opacity="1" stop-color="rgb(76.550293%, 77.726746%, 72.743225%)" offset="0.839844"/><stop stop-opacity="1" stop-color="rgb(76.730347%, 77.897644%, 72.9599%)" offset="0.84375"/><stop stop-opacity="1" stop-color="rgb(76.908875%, 78.067017%, 73.175049%)" offset="0.847656"/><stop stop-opacity="1" stop-color="rgb(77.088928%, 78.237915%, 73.391724%)" offset="0.851562"/><stop stop-opacity="1" stop-color="rgb(77.267456%, 78.407288%, 73.606873%)" offset="0.855469"/><stop stop-opacity="1" stop-color="rgb(77.44751%, 78.578186%, 73.823547%)" offset="0.859375"/><stop stop-opacity="1" stop-color="rgb(77.626038%, 78.747559%, 74.038696%)" offset="0.863281"/><stop stop-opacity="1" stop-color="rgb(77.806091%, 78.918457%, 74.255371%)" offset="0.867188"/><stop stop-opacity="1" stop-color="rgb(77.984619%, 79.08783%, 74.47052%)" offset="0.871094"/><stop stop-opacity="1" stop-color="rgb(78.164673%, 79.258728%, 74.687195%)" offset="0.875"/><stop stop-opacity="1" stop-color="rgb(78.343201%, 79.428101%, 74.902344%)" offset="0.878906"/><stop stop-opacity="1" stop-color="rgb(78.521729%, 79.597473%, 75.119019%)" offset="0.882812"/><stop stop-opacity="1" stop-color="rgb(78.700256%, 79.766846%, 75.334167%)" offset="0.886719"/><stop stop-opacity="1" stop-color="rgb(78.88031%, 79.937744%, 75.550842%)" offset="0.890625"/><stop stop-opacity="1" stop-color="rgb(79.058838%, 80.107117%, 75.765991%)" offset="0.894531"/><stop stop-opacity="1" stop-color="rgb(79.238892%, 80.278015%, 75.982666%)" offset="0.898438"/><stop stop-opacity="1" stop-color="rgb(79.417419%, 80.447388%, 76.199341%)" offset="0.902344"/><stop stop-opacity="1" stop-color="rgb(79.597473%, 80.618286%, 76.416016%)" offset="0.90625"/><stop stop-opacity="1" stop-color="rgb(79.776001%, 80.787659%, 76.631165%)" offset="0.910156"/><stop stop-opacity="1" stop-color="rgb(79.956055%, 80.958557%, 76.847839%)" offset="0.914062"/><stop stop-opacity="1" stop-color="rgb(80.134583%, 81.12793%, 77.062988%)" offset="0.917969"/><stop stop-opacity="1" stop-color="rgb(80.314636%, 81.298828%, 77.279663%)" offset="0.921875"/><stop stop-opacity="1" stop-color="rgb(80.493164%, 81.468201%, 77.494812%)" offset="0.925781"/><stop stop-opacity="1" stop-color="rgb(80.673218%, 81.639099%, 77.711487%)" offset="0.929688"/><stop stop-opacity="1" stop-color="rgb(80.851746%, 81.808472%, 77.926636%)" offset="0.933594"/><stop stop-opacity="1" stop-color="rgb(81.031799%, 81.97937%, 78.143311%)" offset="0.9375"/><stop stop-opacity="1" stop-color="rgb(81.210327%, 82.148743%, 78.358459%)" offset="0.941406"/><stop stop-opacity="1" stop-color="rgb(81.390381%, 82.318115%, 78.575134%)" offset="0.945312"/><stop stop-opacity="1" stop-color="rgb(81.568909%, 82.487488%, 78.790283%)" offset="0.949219"/><stop stop-opacity="1" stop-color="rgb(81.748962%, 82.658386%, 79.006958%)" offset="0.953125"/><stop stop-opacity="1" stop-color="rgb(81.92749%, 82.827759%, 79.222107%)" offset="0.957031"/><stop stop-opacity="1" stop-color="rgb(82.107544%, 82.998657%, 79.438782%)" offset="0.960938"/><stop stop-opacity="1" stop-color="rgb(82.286072%, 83.16803%, 79.653931%)" offset="0.964844"/><stop stop-opacity="1" stop-color="rgb(82.466125%, 83.338928%, 79.870605%)" offset="0.96875"/><stop stop-opacity="1" stop-color="rgb(82.644653%, 83.508301%, 80.08728%)" offset="0.972656"/><stop stop-opacity="1" stop-color="rgb(82.823181%, 83.679199%, 80.303955%)" offset="0.976562"/><stop stop-opacity="1" stop-color="rgb(83.001709%, 83.848572%, 80.519104%)" offset="0.980469"/><stop stop-opacity="1" stop-color="rgb(83.181763%, 84.01947%, 80.735779%)" offset="0.984375"/><stop stop-opacity="1" stop-color="rgb(83.360291%, 84.188843%, 80.950928%)" offset="0.988281"/><stop stop-opacity="1" stop-color="rgb(83.540344%, 84.359741%, 81.167603%)" offset="0.992188"/><stop stop-opacity="1" stop-color="rgb(83.718872%, 84.529114%, 81.382751%)" offset="0.996094"/><stop stop-opacity="1" stop-color="rgb(83.898926%, 84.698486%, 81.599426%)" offset="1"/></linearGradient></defs><rect x="-96" width="1152" fill="#ffffff" y="-60" height="719.999999" fill-opacity="1"/><rect x="-96" fill="url(#061ae00672)" width="1152" y="-60" height="719.999999"/><path fill="#2a2d32" d="M 33.980469 487.648438 C 31.867188 487.261719 29.019531 488.863281 27.132812 489.09375 C 24.917969 489.414062 23.679688 490.421875 21.492188 491.882812 C 19.601562 493.1875 17.359375 492.886719 15.429688 493.671875 C 12.175781 494.9375 8.957031 496.207031 5.667969 497.671875 C -1.464844 500.808594 -8.722656 505.160156 -15.882812 506.4375 C -18.910156 506.914062 -22.042969 507.484375 -25.128906 508.0625 C -25.5625 508.191406 -28.308594 525.613281 -28.667969 527.609375 C -28.402344 527.195312 -27.828125 527.167969 -27.15625 527.292969 C -26.257812 527.457031 -25.175781 527.882812 -24.433594 528.019531 C -24.238281 528.054688 -24.066406 528.070312 -23.929688 528.054688 C -21.929688 527.898438 -19.910156 527.132812 -17.914062 526.773438 C -16.558594 526.398438 -15.140625 525.628906 -13.789062 525.257812 C -13.652344 525.285156 -13.503906 525.207031 -13.367188 525.234375 C -13.039062 525.164062 -12.75 525.164062 -12.472656 525.214844 C -11.636719 525.363281 -10.996094 525.96875 -10.148438 526.433594 C -8.957031 527.019531 -7.566406 527.597656 -6.117188 527.863281 C -4.332031 528.1875 -2.449219 528.023438 -0.757812 526.792969 C 0.441406 525.984375 1.132812 524.972656 2.511719 524.707031 C 4.238281 524.304688 5.988281 524.519531 7.679688 524.304688 C 13.542969 523.820312 18.441406 519.871094 24.042969 516.039062 C 28 513.460938 34.386719 509.875 35.996094 502.238281 C 36.703125 498.863281 37.25 492.269531 36.222656 489.609375 C 35.714844 488.378906 34.921875 487.824219 33.984375 487.652344 Z M 33.980469 487.648438 " fill-opacity="1" fill-rule="nonzero"/><path fill="#757a65" d="M 657.253906 565.320312 C 645.914062 567.085938 634.957031 571.035156 624.933594 576.328125 C 617.605469 580.269531 584.101562 588.171875 591.804688 597.265625 C 593.738281 599.582031 597.828125 599.75 602.734375 598.984375 C 610.457031 597.785156 620.226562 594.28125 626.894531 593.242188 C 628.429688 593 629.796875 592.894531 630.9375 592.976562 C 636.839844 593.355469 639.605469 596.925781 645.386719 597.226562 C 646.28125 597.261719 647.195312 597.1875 648.132812 597.039062 C 652.152344 596.414062 656.410156 594.4375 660.03125 593.550781 C 661.121094 593.277344 662.144531 593.066406 663.125 592.910156 C 669.589844 591.90625 673.996094 593.324219 680.605469 593.949219 C 686.523438 594.429688 691.859375 593.996094 697.410156 594.9375 C 701.933594 595.628906 706.25 596.460938 710.566406 597.289062 C 714.761719 598.039062 718.847656 598.800781 723.230469 599.320312 C 750.773438 602.734375 779.097656 603.328125 806.859375 606.015625 C 820.527344 607.390625 834.453125 609.019531 847.207031 612.332031 C 855.472656 614.390625 865.933594 617.421875 875.546875 615.929688 C 878.597656 615.453125 881.566406 614.519531 884.351562 612.953125 C 889.230469 610.292969 889.570312 605.34375 893.980469 602.566406 C 895.703125 601.484375 897.5625 600.851562 899.492188 600.554688 C 904.679688 599.75 910.316406 601.351562 914.691406 603.144531 C 920.097656 605.304688 924.363281 609.335938 931.53125 608.625 C 932.628906 608.523438 933.652344 608.398438 934.609375 608.25 C 956.042969 604.917969 944.464844 589.160156 935.535156 582.613281 C 931.191406 579.488281 926.289062 576.351562 921.898438 573.636719 C 905.660156 566.542969 884.824219 557.15625 866.234375 560.042969 C 862.613281 560.609375 859.070312 561.632812 855.667969 563.238281 C 841.785156 568.773438 827.171875 572.558594 812.292969 574.875 C 796.335938 577.351562 780.070312 578.144531 764.066406 577.578125 C 748.878906 577.042969 734.175781 575.429688 719.421875 573.421875 C 706.359375 571.660156 695.339844 567.46875 682.773438 565.324219 C 674.210938 563.898438 665.632812 564.003906 657.257812 565.304688 Z M 657.253906 565.320312 " fill-opacity="1" fill-rule="nonzero"/><path fill="#757a65" d="M 672.632812 506.195312 C 661.296875 507.960938 650.335938 511.910156 640.3125 517.203125 C 632.988281 521.144531 599.480469 529.046875 607.183594 538.140625 C 609.121094 540.457031 613.207031 540.628906 618.113281 539.863281 C 625.835938 538.664062 635.609375 535.15625 642.273438 534.117188 C 643.808594 533.878906 645.175781 533.773438 646.316406 533.851562 C 652.21875 534.234375 654.984375 537.800781 660.765625 538.101562 C 661.660156 538.136719 662.574219 538.0625 663.511719 537.917969 C 667.53125 537.292969 671.789062 535.3125 675.410156 534.429688 C 676.5 534.152344 677.527344 533.941406 678.503906 533.789062 C 684.96875 532.78125 689.375 534.203125 695.984375 534.828125 C 701.902344 535.308594 707.238281 534.871094 712.792969 535.8125 C 717.3125 536.507812 721.628906 537.335938 725.945312 538.167969 C 730.140625 538.917969 734.226562 539.675781 738.609375 540.195312 C 766.152344 543.613281 794.476562 544.207031 822.238281 546.890625 C 835.910156 548.265625 849.832031 549.894531 862.585938 553.210938 C 870.855469 555.265625 881.3125 558.300781 890.925781 556.804688 C 893.976562 556.332031 896.945312 555.394531 899.734375 553.832031 C 904.609375 551.171875 904.949219 546.222656 909.359375 543.441406 C 911.082031 542.363281 912.941406 541.726562 914.871094 541.433594 C 920.058594 540.628906 925.695312 542.226562 930.070312 544.023438 C 935.480469 546.179688 939.746094 550.210938 946.910156 549.5 C 948.007812 549.402344 949.03125 549.277344 949.988281 549.125 C 971.425781 545.796875 959.847656 530.039062 950.914062 523.488281 C 946.570312 520.363281 941.671875 517.230469 937.277344 514.515625 C 921.039062 507.421875 900.203125 498.03125 881.613281 500.921875 C 877.992188 501.488281 874.449219 502.511719 871.050781 504.117188 C 857.164062 509.652344 842.550781 513.433594 827.671875 515.75 C 811.714844 518.230469 795.449219 519.019531 779.445312 518.453125 C 764.257812 517.917969 749.558594 516.304688 734.804688 514.300781 C 721.738281 512.535156 710.71875 508.347656 698.152344 506.199219 C 689.589844 504.777344 681.011719 504.882812 672.640625 506.179688 Z M 672.632812 506.195312 " fill-opacity="1" fill-rule="nonzero"/><path fill="#5f6454" d="M 72.1875 482.945312 C 71.855469 483.015625 71.515625 483.089844 71.171875 483.167969 C 44.683594 489.324219 80.988281 506.679688 84.597656 517.441406 C 86.3125 522.515625 80.433594 527.785156 82.355469 533.613281 C 84.296875 539.289062 89.238281 543.832031 96.066406 547.835938 C 111.238281 556.714844 132.066406 560.675781 149.265625 562.304688 C 185.945312 565.773438 221.246094 560.269531 258.660156 566.980469 C 277.574219 570.390625 299.832031 579.726562 318.117188 577.988281 C 322.101562 577.613281 325.984375 576.96875 329.800781 576.167969 C 341.640625 573.683594 352.902344 569.664062 364.882812 567.152344 C 367.546875 566.59375 370.242188 566.109375 372.992188 565.734375 C 392.460938 563.078125 417.050781 563.28125 436.6875 559.160156 C 441.699219 558.109375 446.390625 556.78125 450.585938 555.046875 C 462.671875 550.117188 462.976562 539.238281 444.640625 535.257812 C 434.808594 533.082031 406.386719 539.542969 398.222656 533.628906 C 394.289062 530.8125 398.429688 523.214844 400.5 521.433594 C 402.605469 519.621094 405.785156 518.496094 409.34375 517.75 C 413.769531 516.820312 418.789062 516.480469 423.023438 516.113281 C 429.308594 515.558594 440.214844 516.121094 447.992188 514.484375 C 452.386719 513.566406 455.785156 511.945312 456.792969 509.03125 C 458.964844 502.742188 449.078125 495.546875 440.867188 492.53125 C 425.574219 486.953125 395.394531 484.988281 379.34375 488.351562 C 377.824219 488.671875 376.433594 489.039062 375.195312 489.453125 C 365.082031 492.816406 361.054688 501.6875 350.640625 504.570312 C 350.203125 504.691406 349.765625 504.796875 349.335938 504.886719 C 338.757812 507.105469 331.789062 500.546875 320.390625 499.203125 C 315.046875 498.566406 310.488281 498.785156 306.503906 499.625 C 286.527344 503.816406 280.800781 523.398438 261.214844 527.507812 C 258.757812 528.023438 256.082031 528.296875 253.136719 528.261719 C 231.445312 528.027344 210.519531 519.804688 189.328125 513.628906 C 167.019531 507.140625 149.597656 506.5625 129.042969 508.925781 C 117.839844 510.175781 106.269531 513.003906 97.589844 502.3125 C 90.257812 493.3125 91.625 478.878906 72.199219 482.949219 Z M 72.1875 482.945312 " fill-opacity="1" fill-rule="nonzero"/><path fill="#757a65" d="M 466.90625 492.601562 C 462.800781 492.601562 458.75 492.960938 455.234375 493.085938 C 439.519531 493.671875 410.164062 496.605469 401.675781 506.632812 C 390.113281 520.308594 427.234375 537.824219 442.679688 539.808594 C 444.46875 540.039062 446.207031 540.136719 447.90625 540.136719 C 464.804688 540.136719 477.613281 529.867188 493.585938 529.867188 C 496.640625 529.867188 499.8125 530.242188 503.148438 531.144531 C 520.367188 535.800781 542.320312 552.253906 558.789062 552.253906 C 562.746094 552.253906 566.386719 551.304688 569.574219 549.015625 C 575.078125 545.046875 582.710938 539.132812 577.113281 531.367188 C 572.464844 524.980469 553.648438 512.265625 545.046875 512.265625 C 544.714844 512.265625 544.398438 512.285156 544.105469 512.320312 C 537.53125 513.171875 534.960938 519.75 528.148438 519.75 C 527.011719 519.75 525.746094 519.566406 524.324219 519.132812 C 517.328125 517.054688 515.703125 511.59375 511.050781 507.582031 C 503.6875 501.171875 500.753906 502.527344 492.039062 499.816406 C 486.757812 498.191406 482.242188 495.078125 477.042969 493.722656 C 473.8125 492.859375 470.34375 492.601562 466.90625 492.601562 Z M 466.90625 492.601562 " fill-opacity="1" fill-rule="nonzero"/><path fill="#5f6454" d="M 452.050781 569.300781 C 450.695312 569.300781 449.28125 569.378906 447.796875 569.535156 C 433.570312 571.023438 427.339844 580.953125 415.285156 584.882812 C 413.441406 585.480469 411.570312 585.71875 409.664062 585.71875 C 403.492188 585.71875 396.960938 583.207031 389.820312 582.171875 C 387.371094 581.824219 385.097656 581.65625 382.976562 581.65625 C 362.964844 581.65625 356.488281 596.277344 347.101562 607.132812 C 341.332031 613.828125 334.308594 615.679688 326.195312 615.679688 C 316.636719 615.679688 305.578125 613.109375 293.320312 612.863281 C 293.144531 612.863281 292.96875 612.859375 292.785156 612.859375 C 278.96875 612.859375 248.570312 621.378906 258.953125 637.460938 C 266.578125 649.351562 293.667969 652.378906 306.914062 652.378906 C 308.097656 652.378906 309.179688 652.355469 310.121094 652.308594 C 332.601562 651.164062 349.1875 642.320312 372.648438 642.320312 C 373.21875 642.320312 373.792969 642.324219 374.375 642.335938 C 381.8125 642.5 389.789062 643.378906 397.269531 643.378906 C 402.238281 643.378906 406.988281 642.992188 411.21875 641.75 C 427.292969 637.054688 431.359375 623.332031 437.90625 612.007812 C 441.597656 605.632812 445.96875 603.03125 450.433594 603.03125 C 456.398438 603.03125 462.535156 607.691406 467.441406 614.222656 C 474.167969 623.164062 478.414062 628.21875 491.644531 631.464844 C 503.839844 634.445312 519.460938 639.769531 532.015625 640.402344 C 532.675781 640.4375 533.320312 640.457031 533.96875 640.457031 C 550.546875 640.457031 562.375 628.976562 573.242188 620.589844 C 582.476562 613.445312 591.28125 611.558594 601.242188 611.558594 C 606.382812 611.558594 611.835938 612.058594 617.8125 612.597656 C 618.941406 612.699219 620.023438 612.742188 621.058594 612.742188 C 638.328125 612.742188 643.269531 599.570312 658.179688 595.402344 C 663.6875 593.867188 675.25 596.300781 677.59375 591.382812 C 682.652344 580.816406 647.703125 575.042969 639.800781 574.636719 C 639.320312 574.617188 638.855469 574.609375 638.398438 574.609375 C 624.570312 574.609375 620.234375 584.367188 607.675781 584.367188 C 605.328125 584.367188 602.691406 584.027344 599.65625 583.21875 C 588.183594 580.117188 571.507812 575.464844 558.828125 575.464844 C 554.34375 575.464844 550.355469 576.046875 547.277344 577.484375 C 534.40625 583.476562 526.210938 602.664062 510.769531 602.664062 C 503.996094 602.664062 495.835938 598.96875 485.277344 588.855469 C 474.078125 578.117188 466.660156 569.304688 452.058594 569.304688 Z M 452.050781 569.300781 " fill-opacity="1" fill-rule="nonzero"/><path fill="#2a2d32" d="M 107.527344 521.804688 C 106.609375 521.804688 105.652344 521.839844 104.65625 521.925781 C 100.816406 538.039062 118.113281 539.117188 130.441406 543.90625 C 159.742188 555.191406 180.425781 575.324219 212.671875 583.671875 C 219.882812 585.542969 226.105469 586.078125 231.976562 586.078125 C 239.894531 586.078125 247.171875 585.101562 255.359375 585.101562 C 257.523438 585.101562 259.753906 585.167969 262.070312 585.34375 C 279.410156 586.652344 287.859375 600.421875 302.800781 607.191406 C 307.75 609.433594 312.53125 610.449219 316.671875 610.449219 C 329.207031 610.449219 335.925781 601.171875 323.984375 588.550781 C 320.1875 584.539062 315.675781 580.878906 311.066406 577.402344 C 307.769531 574.964844 305.238281 571.355469 301.851562 569.1875 C 298.78125 567.292969 292.773438 568.105469 294.535156 563.679688 C 295.941406 563.46875 297.230469 563.375 298.4375 563.375 C 307.609375 563.375 311.433594 568.972656 319.777344 572.523438 C 333.230469 578.207031 346.914062 584.300781 362.539062 585.253906 C 363.003906 585.28125 363.496094 585.300781 363.992188 585.300781 C 369.050781 585.300781 375.523438 583.617188 377.621094 579.835938 C 378.203125 578.84375 378.796875 577.488281 378.429688 576.359375 C 378.113281 575.367188 377.253906 575.136719 376.398438 574.464844 C 374.097656 572.613281 373.554688 569.902344 370.84375 568.324219 C 369.128906 567.335938 366.460938 567.554688 364.429688 567.195312 C 363.296875 567 362.269531 566.769531 361.074219 566.769531 C 360.890625 566.769531 360.695312 566.773438 360.503906 566.789062 C 359.210938 566.882812 358.117188 566.953125 357.011719 566.953125 C 356.003906 566.953125 354.984375 566.894531 353.773438 566.746094 C 349.441406 566.113281 343.660156 565.074219 343.882812 561.101562 C 352.917969 559.023438 354.453125 554.554688 345.058594 552.660156 C 343.863281 552.410156 342.734375 552.3125 341.644531 552.3125 C 336.796875 552.3125 332.847656 554.375 328.53125 554.964844 C 327.746094 555.074219 326.996094 555.125 326.269531 555.125 C 317.730469 555.125 313.054688 548.027344 305.726562 545.53125 C 297.484375 542.660156 286.597656 541.800781 276.863281 541.800781 C 274.660156 541.800781 272.507812 541.847656 270.460938 541.921875 C 256.484375 542.457031 243.460938 545.421875 229.203125 545.421875 C 223.15625 545.421875 216.886719 544.886719 210.222656 543.40625 C 201.371094 541.46875 190.941406 542.957031 182.359375 540.292969 C 171.976562 537.042969 173.964844 533.074219 168.453125 528.828125 C 162.535156 524.269531 170.570312 524.449219 159.238281 522.644531 C 158.707031 522.5625 158.152344 522.523438 157.578125 522.523438 C 152.5 522.523438 145.808594 525.453125 141.269531 526.304688 C 138.765625 526.777344 136.527344 526.980469 134.476562 526.980469 C 124.019531 526.980469 118.347656 521.804688 107.519531 521.804688 Z M 107.527344 521.804688 " fill-opacity="1" fill-rule="nonzero"/><path fill="#5f6454" d="M 155.769531 610.453125 C 170.308594 610.453125 187.539062 613.230469 192.96875 622.667969 C 199.246094 633.636719 174.003906 630.066406 177.34375 641.265625 C 179.375 648.113281 187.03125 649.988281 196.808594 649.988281 C 208.613281 649.988281 223.5 647.261719 235.277344 647.261719 C 249.785156 647.261719 259.585938 651.410156 253.070312 669.925781 C 250.046875 678.496094 237.601562 680.9375 223.308594 680.9375 C 206.441406 680.9375 187.011719 677.542969 177.480469 676.832031 C 164.519531 675.886719 151.332031 673.941406 139.414062 670.0625 C 134.804688 668.574219 130.46875 666.8125 126.363281 664.738281 C 120.539062 661.757812 115.253906 658.148438 110.785156 653.679688 C 109.429688 652.324219 108.207031 651.015625 106.941406 649.660156 C 99.539062 641.714844 92.3125 633.90625 81.023438 628.402344 C 77.773438 626.777344 67.070312 620.457031 70.867188 616.757812 C 72.113281 615.539062 74.628906 615.214844 77.234375 615.214844 C 79.839844 615.214844 82.539062 615.542969 84.144531 615.632812 C 90.0625 615.992188 112.730469 616.625 105.726562 625.5625 C 103.605469 628.273438 100.941406 628.046875 97.464844 628.945312 C 95.390625 629.53125 92.542969 632.0625 94.574219 633.777344 C 95.660156 634.679688 98.140625 634.546875 99.539062 634.589844 C 100.871094 634.636719 102.226562 634.671875 103.582031 634.671875 C 104.9375 634.671875 106.292969 634.640625 107.625 634.546875 C 111.28125 634.277344 114.621094 632.832031 118.191406 632.515625 C 121.53125 632.203125 124.558594 632.246094 127.496094 630.710938 C 135.488281 626.558594 125.011719 616.402344 135.261719 612.75 C 138.742188 611.539062 146.734375 610.464844 155.773438 610.464844 Z M 23.914062 544.496094 C 16.761719 544.496094 9.410156 545.242188 2.726562 546.027344 C 2.097656 546.117188 1.28125 546.207031 0.425781 546.296875 L 0.425781 553.207031 C 1.375 553.207031 2.320312 553.171875 3.195312 553.171875 C 4.070312 553.171875 4.871094 553.207031 5.527344 553.339844 C 10 554.199219 12.390625 555.914062 17.222656 556.050781 C 17.480469 556.054688 17.742188 556.058594 18 556.058594 C 20.90625 556.058594 23.847656 555.628906 26.75 555.460938 C 29.148438 555.324219 31.46875 555.253906 33.742188 555.253906 C 40.644531 555.253906 47.113281 555.90625 54.246094 557.398438 C 66.9375 560.15625 79.445312 566.835938 92.042969 567.738281 C 92.859375 569.320312 93.308594 570.71875 93.265625 572.207031 C 93.128906 578.976562 62.378906 578.167969 83.242188 594.414062 C 87.847656 598.027344 122.796875 608.183594 101.03125 610.84375 C 100.117188 610.953125 99.171875 611.003906 98.195312 611.003906 C 91.152344 611.003906 82.789062 608.394531 75.652344 607.007812 C 69.375 605.789062 63.28125 605.746094 57.136719 605.023438 C 56.777344 603.941406 56.554688 602.816406 56.507812 601.683594 C 55.832031 591.121094 59.804688 585.386719 39.800781 583.355469 C 38.9375 583.273438 38.101562 583.226562 37.308594 583.226562 C 26.8125 583.226562 21.90625 590.375 18.171875 597.253906 C 14.761719 603.65625 12.359375 609.804688 7.566406 609.804688 C 5.636719 609.804688 3.316406 608.804688 0.378906 606.417969 L 0.378906 641.894531 C 1.457031 642.070312 2.597656 642.164062 3.800781 642.164062 C 6.953125 642.164062 10.605469 641.539062 15.011719 640.136719 C 17.355469 649.34375 15.234375 673.132812 31.21875 679.902344 C 33.726562 680.960938 35.953125 681.410156 37.960938 681.410156 C 43.558594 681.410156 47.496094 677.945312 51.179688 674.621094 C 52.441406 673.492188 53.660156 672.367188 54.925781 671.417969 C 61.78125 668.121094 69.730469 662.757812 77.875 662.757812 C 79.65625 662.757812 81.449219 663.011719 83.242188 663.609375 C 84.910156 664.058594 86.582031 664.554688 88.253906 665.144531 C 99.945312 668.078125 117.285156 669.523438 126.992188 675.660156 C 130.789062 678.054688 131.914062 682.796875 136.207031 684.644531 C 137.675781 685.285156 139.296875 685.480469 140.984375 685.480469 C 143.769531 685.480469 146.71875 684.9375 149.457031 684.9375 C 149.984375 684.9375 150.507812 684.957031 151.015625 685.003906 C 169.4375 686.628906 185.605469 693.941406 203.621094 696.289062 C 206.15625 696.628906 208.542969 696.773438 210.824219 696.773438 C 223.464844 696.773438 232.902344 692.324219 246.519531 691.59375 C 247.859375 691.519531 249.152344 691.484375 250.40625 691.484375 C 268.691406 691.484375 278.761719 699.140625 294.566406 704.507812 C 299.292969 706.097656 302.972656 706.808594 306.128906 706.808594 C 313.878906 706.808594 318.410156 702.519531 327.304688 696.519531 C 334.578125 691.601562 344.691406 678.421875 355.4375 678.011719 C 355.652344 678.007812 355.867188 678 356.078125 678 C 368.191406 678 375.375 690.480469 386.914062 693.496094 C 397.839844 696.382812 408.769531 700.71875 419.421875 703.878906 C 429.804688 706.992188 440.734375 708.164062 450.082031 713.042969 C 458.253906 717.242188 462.996094 724.601562 471.574219 728.390625 C 486.429688 734.980469 504.945312 731.28125 519.894531 738.5 C 521.96875 739.539062 524.050781 740.621094 526.078125 741.75 C 533.757812 745.945312 539.488281 750.914062 545.949219 755.699219 C 548.070312 757.265625 549.871094 757.851562 551.5625 757.851562 C 555.273438 757.851562 558.449219 755.03125 563.285156 753.578125 C 567.9375 752.179688 582.386719 755.113281 580.265625 747.484375 C 576.378906 746.855469 575.792969 742.292969 573.492188 740.214844 C 572.363281 739.222656 570.511719 739.445312 569.292969 738.273438 C 566.132812 735.113281 563.5625 733.761719 559.765625 731.011719 C 556.917969 728.980469 556.289062 726.226562 553.984375 724.015625 C 551.09375 721.300781 547.707031 720.921875 544.128906 720.921875 C 542.746094 720.921875 541.324219 720.976562 539.898438 720.976562 C 537.429688 720.976562 534.921875 720.800781 532.488281 719.863281 C 524.539062 716.792969 523.320312 711.6875 513.566406 708.984375 C 510.324219 708.066406 507.398438 707.769531 504.578125 707.769531 C 499.898438 707.769531 495.5 708.589844 490.402344 708.757812 C 485.828125 708.898438 482.179688 710.914062 478.46875 710.914062 C 476.167969 710.914062 473.847656 710.144531 471.257812 707.671875 C 463.722656 700.503906 471.15625 698.195312 483.746094 698.195312 C 504.117188 698.195312 537.984375 704.234375 543.734375 705.457031 C 549.710938 706.722656 559.621094 710.707031 567.617188 710.707031 C 572.1875 710.707031 576.140625 709.402344 578.371094 705.546875 C 584.289062 695.253906 562.476562 686.183594 552.453125 684.464844 C 550.386719 684.109375 548.554688 683.960938 546.890625 683.960938 C 539.007812 683.960938 534.8125 687.34375 526.984375 688.574219 C 526.039062 688.71875 524.898438 688.789062 523.597656 688.789062 C 505.820312 688.789062 458.433594 675.941406 487.292969 667.992188 C 493.191406 666.371094 502.164062 664.148438 510.09375 664.148438 C 511.878906 664.148438 513.609375 664.257812 515.246094 664.519531 C 520.121094 665.332031 526.398438 669.347656 531.726562 670.566406 C 534.738281 671.246094 539.800781 672.46875 544.03125 672.46875 C 547.921875 672.46875 551.105469 671.433594 551.324219 667.992188 C 551.414062 666.144531 543.285156 665.46875 541.792969 665.238281 C 537.414062 664.609375 533.398438 662.574219 529.195312 662.078125 C 526.574219 661.808594 523.960938 661.582031 521.609375 660.589844 C 519.351562 659.683594 517.59375 658.195312 514.972656 657.652344 C 513.289062 657.296875 511.261719 657.179688 509.125 657.179688 C 504.71875 657.179688 499.847656 657.699219 496.597656 657.792969 C 481.964844 658.289062 469.097656 661.808594 455.414062 663.792969 C 449.835938 664.601562 444.574219 664.992188 439.488281 664.992188 C 416.480469 664.992188 397.195312 657 369.976562 643.621094 C 362.074219 639.734375 354.308594 636.574219 347.894531 631.339844 C 333.492188 619.609375 313.621094 604.441406 291.808594 602.679688 C 290.59375 602.578125 289.398438 602.53125 288.238281 602.53125 C 276.019531 602.53125 266.640625 607.644531 256.3125 607.644531 C 251.472656 607.644531 246.425781 606.519531 240.785156 603.21875 C 229.40625 596.585938 225.570312 584.308594 215.316406 576.769531 C 194.929688 561.703125 175.3125 558.226562 156.21875 558.226562 C 142.074219 558.226562 128.210938 560.136719 114.523438 560.648438 C 109.683594 560.84375 105.164062 561.074219 100.691406 561.074219 C 92.660156 561.074219 84.78125 560.320312 75.46875 557.214844 C 62.148438 552.746094 48.644531 547.105469 34.242188 545.117188 C 30.914062 544.671875 27.433594 544.488281 23.90625 544.488281 Z M 23.914062 544.496094 " fill-opacity="1" fill-rule="nonzero"/><path fill="#757a65" d="M 59.1875 488.789062 C 58.0625 488.789062 56.847656 488.941406 55.515625 489.304688 C 50.6875 490.546875 44.828125 492.960938 45.855469 497.351562 C 46.371094 499.398438 46.804688 500.351562 44.097656 501.445312 C 42.269531 502.179688 40.148438 501.886719 38.316406 502.617188 C 36.265625 503.421875 34.875 504.960938 32.976562 505.835938 C 31.636719 506.4375 30.375 506.664062 29.144531 506.664062 C 27.074219 506.664062 25.078125 506.011719 22.871094 505.320312 C 15.480469 502.980469 8.378906 503.710938 0.621094 502.980469 L 0.621094 505.980469 C 0.621094 514.101562 0.109375 522.300781 0.695312 530.417969 C 3.542969 528.988281 6.066406 528.414062 8.40625 528.414062 C 15.148438 528.414062 20.285156 533.234375 26.753906 536.273438 C 28 536.859375 29.167969 537.371094 30.484375 537.734375 C 33.78125 538.757812 37.21875 538.832031 40.664062 538.902344 C 41.203125 538.902344 41.789062 538.878906 42.378906 538.878906 C 43.765625 538.878906 45.140625 539.023438 45.859375 540.003906 C 46.886719 541.171875 46.15625 543.296875 47.105469 544.6875 C 48.785156 547.464844 52.8125 548.785156 56.328125 549.734375 C 61.523438 551.054688 67.160156 551.785156 72.652344 552.082031 C 73.8125 552.136719 75.375 552.25 76.980469 552.25 C 79.425781 552.25 81.964844 551.980469 83.339844 550.835938 C 88.246094 546.8125 75.949219 541.835938 72.652344 540.664062 C 70.972656 540.078125 68.703125 539.855469 69.4375 538.46875 C 70.242188 537.078125 74.851562 536.050781 76.238281 534.878906 C 81.367188 530.707031 70.820312 529.613281 67.675781 528.078125 C 65.921875 527.199219 65.554688 526.027344 64.164062 524.933594 C 62.335938 523.46875 59.628906 523.394531 57.0625 523.105469 C 53.847656 522.808594 48.71875 522.960938 46.378906 520.757812 C 44.328125 518.929688 45.570312 514.691406 47.40625 513.074219 C 49.601562 511.246094 52.820312 510.808594 55.824219 510.660156 C 56.832031 510.601562 57.84375 510.570312 58.847656 510.570312 C 63.941406 510.570312 68.9375 511.304688 73.828125 512.34375 C 79.246094 513.515625 84.441406 516.804688 89.273438 518.929688 C 92.054688 520.175781 95.347656 522.074219 98.496094 522.734375 C 98.980469 522.839844 99.4375 522.882812 99.875 522.882812 C 102.246094 522.882812 104.117188 521.5625 106.398438 520.757812 C 107.046875 520.542969 107.636719 520.460938 108.183594 520.460938 C 110.863281 520.460938 112.464844 522.605469 115.253906 522.605469 C 115.402344 522.605469 115.546875 522.597656 115.695312 522.589844 C 120.085938 522.300781 118.917969 517.46875 117.234375 515.570312 C 113.863281 511.855469 107.324219 510.726562 101.804688 510.726562 C 101.457031 510.726562 101.105469 510.730469 100.765625 510.742188 C 99.050781 510.78125 97.183594 511.015625 95.382812 511.015625 C 94.039062 511.015625 92.730469 510.886719 91.539062 510.449219 C 87.664062 508.984375 87.296875 505.257812 83.855469 503.792969 C 79.609375 502.035156 75.804688 499.257812 72.582031 496.546875 C 68.410156 493.050781 65.011719 488.792969 59.199219 488.792969 Z M 59.1875 488.789062 " fill-opacity="1" fill-rule="nonzero"/><path fill="#757a65" d="M 758.253906 597.003906 C 749.746094 597.003906 743.421875 600.253906 735.992188 603.445312 C 750.621094 610.894531 742.585938 620.914062 756.808594 630.390625 C 762.179688 633.957031 771.4375 633.777344 777.625 635.984375 C 785.84375 638.964844 789.679688 642.441406 798.890625 643.480469 C 800.226562 643.625 801.449219 643.691406 802.574219 643.691406 C 809.441406 643.691406 812.953125 641.285156 819.664062 640.320312 C 822 639.996094 824.230469 639.839844 826.375 639.839844 C 851.15625 639.839844 864.042969 660.417969 887.984375 672.050781 C 895.933594 675.890625 903.472656 678.597656 910.652344 680.445312 C 911.828125 678.328125 912.90625 676.066406 913.992188 673.8125 C 914.441406 672.867188 914.9375 671.78125 915.4375 670.652344 C 906.898438 666.769531 898.457031 661.984375 890.511719 656.523438 C 883.597656 651.785156 876.015625 647.089844 870.234375 640.816406 C 869.417969 639.914062 868.699219 639.054688 868.113281 638.15625 C 864.363281 637.117188 860.570312 635.855469 856.550781 634.457031 C 838.308594 631.207031 807.328125 633.054688 795.277344 618.660156 C 787.417969 609.269531 785.207031 603.808594 771.660156 599.386719 C 766.515625 597.695312 762.152344 597.011719 758.246094 597.011719 Z M 758.253906 597.003906 " fill-opacity="1" fill-rule="nonzero"/><path fill="#5f6454" d="M 891.53125 491.632812 C 860.269531 491.632812 833.933594 505.691406 813.667969 514.144531 C 803.921875 518.253906 785.183594 524.394531 789.09375 532.292969 C 789.414062 532.921875 789.84375 533.558594 790.324219 534.097656 C 801.242188 529.449219 811.679688 524.394531 822.980469 519.835938 C 834.269531 515.269531 842.714844 513.46875 849.988281 513.46875 C 867.367188 513.46875 878.050781 523.742188 904.882812 531.027344 C 915.542969 533.921875 928.554688 535.0625 941.824219 535.0625 C 942.824219 535.0625 943.824219 535.058594 944.828125 535.042969 C 942.894531 531.25 933.902344 525.25 937.972656 522.539062 C 939.167969 521.753906 941.457031 521.488281 944.242188 521.488281 C 949.429688 521.488281 956.371094 522.390625 961.316406 522.449219 L 961.316406 511.886719 C 953.929688 504.347656 932.835938 498.933594 916.882812 494.824219 C 908.117188 492.578125 899.65625 491.628906 891.535156 491.628906 Z M 891.53125 491.632812 " fill-opacity="1" fill-rule="nonzero"/><path fill="#2a2d32" d="M 722.179688 575.519531 C 722.203125 575.527344 722.230469 575.53125 722.253906 575.542969 C 722.230469 575.53125 722.203125 575.527344 722.179688 575.519531 Z M 867.40625 501.246094 C 861.277344 501.246094 854.148438 503.046875 844.625 507.609375 C 835.097656 512.171875 826.289062 517.269531 817.082031 521.875 C 803.082031 528.957031 788.09375 535.007812 768.042969 536.765625 C 762.441406 537.253906 756.699219 537.453125 750.859375 537.453125 C 722.070312 537.453125 690.882812 532.5625 662.015625 532.5625 C 658.515625 532.5625 655.046875 532.632812 651.628906 532.796875 C 640.25 533.339844 628.460938 534.46875 617.808594 537.492188 C 610.199219 539.648438 601.816406 545.273438 593.589844 545.273438 C 593.371094 545.273438 593.148438 545.265625 592.929688 545.257812 C 587.792969 545.0625 583.796875 544.808594 579.875 544.808594 C 575.554688 544.808594 571.328125 545.117188 565.792969 546.15625 C 554.457031 548.28125 544.113281 551.441406 533.777344 555.410156 C 528.066406 557.613281 521.109375 558.398438 513.570312 558.398438 C 494.464844 558.398438 471.636719 553.332031 455.929688 553.332031 C 455.734375 553.332031 455.539062 553.332031 455.34375 553.332031 C 452.316406 553.375 449.066406 554.324219 446.21875 555.046875 C 437.191406 557.390625 427.980469 560.238281 419.621094 563.804688 C 415.605469 565.519531 411.40625 566.917969 407.972656 569.355469 C 403.683594 572.332031 398.132812 573.554688 393.613281 576.21875 C 391.269531 577.617188 388.875 578.832031 386.210938 579.871094 C 384.722656 580.457031 381.066406 581.316406 380.796875 582.898438 C 380.570312 584.566406 383.910156 585.515625 385.492188 585.785156 C 386.167969 585.910156 386.828125 585.972656 387.476562 585.972656 C 389.226562 585.972656 390.894531 585.542969 392.445312 584.753906 C 394.203125 583.898438 395.46875 583.039062 397.597656 582.855469 C 399.941406 582.632812 402.292969 582.902344 404.59375 582.183594 C 407.207031 581.324219 408.609375 579.066406 411.273438 578.253906 C 412.585938 577.894531 413.984375 577.847656 415.296875 577.484375 C 417.058594 577.03125 418.863281 576.582031 420.667969 576.222656 C 421.777344 576.03125 423.058594 575.878906 424.339844 575.878906 C 426.070312 575.878906 427.796875 576.15625 429.066406 576.988281 C 431.507812 578.613281 429.789062 580.78125 428.34375 582.402344 C 427.214844 583.710938 424.277344 586.871094 426.539062 588.542969 C 427.234375 589.046875 428.101562 589.25 429.046875 589.25 C 432.132812 589.25 436.082031 587.0625 437.914062 586.058594 C 448.570312 580.144531 458.234375 571.386719 470.789062 567.914062 C 473.253906 567.242188 476.023438 566.875 478.710938 566.875 C 479.464844 566.875 480.214844 566.902344 480.945312 566.964844 C 484.511719 567.277344 487.132812 567.824219 488.9375 568.589844 C 497.019531 572.511719 486.996094 581.8125 493.363281 583.796875 C 495.765625 584.507812 498.207031 584.796875 500.683594 584.796875 C 510.601562 584.796875 521.113281 580.167969 532.0625 579.550781 C 533.957031 579.550781 535.71875 579.644531 537.433594 579.644531 C 543.574219 579.550781 549.261719 577.433594 555.3125 576.976562 C 583.8125 574.878906 613.640625 572.699219 642.433594 572.699219 C 644.574219 572.699219 646.707031 572.714844 648.832031 572.734375 C 649.15625 572.738281 649.476562 572.738281 649.796875 572.738281 C 659.433594 572.738281 668.1875 571.429688 677.234375 568.898438 C 679.210938 568.335938 681.277344 568.09375 683.386719 568.09375 C 690.914062 568.09375 698.957031 571.167969 705.09375 573.636719 C 707.667969 574.722656 710.558594 575.308594 713.445312 575.625 C 713.746094 575.65625 714.085938 575.671875 714.457031 575.671875 C 716.222656 575.671875 718.648438 575.339844 720.464844 575.339844 C 721.140625 575.339844 721.730469 575.382812 722.179688 575.511719 C 721.753906 575.386719 721.324219 575.257812 720.855469 575.128906 C 717.691406 566.417969 726.089844 563.664062 735.707031 563.664062 C 727.984375 563.664062 729.117188 551.789062 731.597656 548.90625 C 733.953125 546.148438 736.761719 545.222656 739.828125 545.222656 C 742.878906 545.222656 746.191406 546.132812 749.566406 547.054688 C 753.679688 548.1875 757.648438 549.8125 761.851562 550.667969 C 763.53125 551.015625 764.746094 551.160156 765.777344 551.160156 C 768.042969 551.160156 769.382812 550.476562 772.644531 549.855469 C 775.21875 549.355469 778.132812 549.089844 781.09375 549.089844 C 785.613281 549.089844 790.25 549.710938 793.960938 551.074219 C 799.199219 552.972656 802.222656 555.230469 808.320312 555.726562 C 809.089844 555.789062 809.832031 555.816406 810.546875 555.816406 C 816.601562 555.816406 820.804688 553.785156 826.746094 553.015625 C 827.714844 552.886719 829.328125 552.796875 831.203125 552.796875 C 836.414062 552.796875 843.695312 553.464844 845.125 555.726562 C 848.917969 561.683594 830.273438 565.203125 836.730469 572.339844 C 838.339844 574.136719 841.335938 574.542969 844.574219 574.542969 C 847.207031 574.542969 849.992188 574.277344 852.328125 574.277344 C 853.324219 574.277344 854.234375 574.324219 855.015625 574.464844 C 860.65625 575.453125 864.902344 578.703125 870.230469 580.332031 C 873.96875 581.484375 878.769531 582.15625 883.683594 582.15625 C 893.40625 582.15625 903.535156 579.496094 906.625 572.570312 C 910.253906 564.445312 907.078125 554.78125 917.347656 554.78125 C 920.484375 554.78125 924.875 555.679688 931.101562 557.804688 C 941.492188 561.324219 951.378906 565.570312 961.3125 569.769531 L 961.3125 522.054688 C 957.65625 522.371094 953.949219 522.59375 950.203125 522.730469 C 949.296875 522.773438 948.351562 522.773438 947.402344 522.820312 C 946.558594 522.835938 945.714844 522.839844 944.871094 522.839844 C 933.679688 522.839844 922.699219 521.699219 913.710938 518.804688 C 891.074219 511.515625 882.066406 501.246094 867.402344 501.246094 Z M 867.40625 501.246094 " fill-opacity="1" fill-rule="nonzero"/><path fill="#5f6454" d="M 732.808594 562.632812 C 727.925781 562.632812 723.515625 563.59375 720.410156 566.023438 C 718.558594 567.46875 717.746094 569.949219 715.261719 570.898438 C 714.566406 571.152344 713.835938 571.234375 713.101562 571.234375 C 711.882812 571.234375 710.628906 571.011719 709.425781 571.011719 C 708.90625 571.011719 708.398438 571.054688 707.90625 571.167969 C 698.691406 573.199219 706.550781 576.679688 712.644531 576.859375 C 712.984375 576.867188 713.339844 576.871094 713.707031 576.871094 C 715.828125 576.871094 718.304688 576.738281 720.761719 576.738281 C 724.03125 576.738281 727.277344 576.972656 729.625 578.078125 C 734.457031 580.425781 729.535156 585.390625 725.46875 585.796875 C 725.289062 585.8125 725.109375 585.820312 724.933594 585.820312 C 723.058594 585.820312 721.515625 584.988281 719.777344 584.539062 C 716.390625 583.585938 712.910156 583.40625 709.390625 583.136719 C 708.648438 583.074219 707.914062 583.042969 707.1875 583.042969 C 700.007812 583.042969 693.734375 586.058594 686.71875 587.246094 C 683.082031 587.863281 679.917969 588.890625 676.371094 588.890625 C 675.515625 588.890625 674.628906 588.832031 673.714844 588.691406 C 666.488281 587.546875 647.4375 581.386719 634.933594 581.386719 C 626.191406 581.386719 620.648438 584.398438 624.589844 594.242188 C 626.253906 594.640625 627.804688 594.800781 629.285156 594.800781 C 635.210938 594.800781 639.984375 592.246094 646.195312 592.246094 C 647.226562 592.246094 648.296875 592.316406 649.421875 592.480469 C 658.042969 593.699219 665.992188 596.816406 674.433594 598.53125 C 682.203125 600.109375 683.285156 605.710938 686.21875 610.539062 C 689.96875 616.769531 695.476562 619.292969 704.238281 619.609375 C 705.347656 619.644531 706.519531 619.65625 707.730469 619.65625 C 716.246094 619.65625 726.914062 618.757812 733.953125 615.949219 C 737.113281 614.644531 739.910156 612.699219 742.890625 610.984375 C 746.882812 608.6875 752.792969 605.160156 758.140625 605.160156 C 758.480469 605.160156 758.816406 605.175781 759.148438 605.203125 C 761.859375 605.429688 764.386719 606.425781 767.234375 606.648438 C 771.207031 606.964844 774.863281 607.691406 778.609375 608.90625 C 792.160156 613.328125 794.324219 618.792969 802.183594 628.175781 C 806.566406 633.367188 813.15625 636.121094 820.46875 637.835938 C 826.835938 639.324219 830.8125 642.304688 836.859375 644.835938 C 843.269531 647.496094 848.328125 651.019531 854.242188 654.222656 C 859.253906 656.933594 865.308594 657.339844 870.273438 660.003906 C 874.476562 662.214844 878.625 663.164062 883.59375 663.792969 C 890.59375 664.699219 897.726562 664.652344 904.230469 666.324219 C 905.039062 666.546875 905.898438 666.773438 906.710938 667.046875 C 911.496094 668.71875 915.96875 669.210938 920.933594 670.296875 C 928.101562 671.851562 933.988281 680.875 940.925781 680.875 C 941.246094 680.875 941.566406 680.855469 941.886719 680.816406 C 949.199219 679.957031 956.785156 668.898438 959.585938 664.113281 C 961.707031 660.546875 961.347656 656.753906 961.300781 652.875 C 961.210938 642.355469 961.300781 631.796875 961.300781 621.277344 C 961.300781 620.648438 961.839844 613.019531 961.300781 612.882812 C 952.992188 610.757812 944.589844 607.691406 936.238281 605.480469 C 928.304688 603.398438 921.003906 602.179688 914.445312 602.179688 C 905.925781 602.179688 898.65625 604.238281 892.890625 609.132812 C 885.472656 615.488281 881.453125 621.082031 870.007812 621.082031 C 867.792969 621.082031 865.300781 620.871094 862.457031 620.421875 C 842.449219 617.171875 820.960938 608.78125 801.5 599.480469 C 784.832031 591.582031 777.207031 579.757812 762.390625 570.910156 C 756.035156 567.113281 743.332031 562.644531 732.792969 562.644531 Z M 732.808594 562.632812 " fill-opacity="1" fill-rule="nonzero"/><path fill="#757a65" d="M 600.550781 580.472656 C 595.796875 580.472656 591.054688 581.488281 586.613281 583.175781 C 583.363281 584.441406 569.136719 585.660156 571.714844 590.3125 C 572.359375 591.492188 574.019531 591.855469 576.078125 591.855469 C 579.320312 591.855469 583.546875 590.957031 586.34375 590.957031 C 586.988281 590.957031 587.554688 591 588.011719 591.121094 C 590.410156 591.707031 591.308594 593.515625 593.660156 594.054688 C 594.023438 594.136719 594.40625 594.164062 594.796875 594.164062 C 596.480469 594.164062 598.351562 593.570312 599.890625 593.425781 C 600.355469 593.382812 600.792969 593.355469 601.199219 593.355469 C 603.910156 593.355469 605.625 594.304688 608.289062 595.050781 C 610.683594 595.679688 612.894531 595.859375 615.113281 596.675781 C 616.917969 597.304688 618.632812 597.984375 620.347656 598.660156 C 622.019531 599.289062 623.644531 599.925781 625.40625 600.464844 C 636.46875 603.941406 648.027344 606.195312 659.226562 609.359375 C 664.738281 610.9375 670.332031 612.652344 675.34375 615.042969 C 678.601562 616.554688 682.6875 618.660156 686.71875 618.660156 C 688 618.660156 689.273438 618.441406 690.515625 617.933594 C 692.679688 617.074219 693.136719 614.863281 695.121094 613.917969 C 695.890625 613.554688 696.695312 613.398438 697.507812 613.398438 C 699.683594 613.398438 701.886719 614.519531 703.566406 615.632812 C 705.644531 616.988281 707.132812 619.109375 710.117188 619.289062 C 710.570312 619.316406 710.996094 619.332031 711.402344 619.332031 C 720.394531 619.332031 716.652344 611.402344 713.410156 607.820312 C 711.832031 606.105469 710.023438 604.34375 708.398438 602.808594 C 702.203125 598.464844 694.265625 592.765625 686.46875 592.765625 C 684.949219 592.765625 683.433594 592.980469 681.9375 593.464844 C 675.898438 594.992188 669.671875 595.675781 663.429688 595.675781 C 656.738281 595.675781 650.027344 594.890625 643.511719 593.511719 C 637.324219 592.207031 631.40625 590.441406 625.488281 588.5 C 620.253906 586.785156 616.007812 584.121094 610.996094 582.273438 C 607.578125 581.027344 604.058594 580.472656 600.546875 580.472656 Z M 600.550781 580.472656 " fill-opacity="1" fill-rule="nonzero"/><path fill="#5f6454" d="M 562.574219 519.289062 C 556.75 519.289062 550.773438 520.105469 545.289062 520.839844 C 537.433594 521.925781 513.816406 530.363281 499.367188 539.347656 C 488.394531 546.160156 482.296875 554.554688 497.921875 559.25 C 507.535156 562.148438 517.15625 564.789062 526.601562 564.789062 C 533.480469 564.789062 540.265625 563.390625 546.871094 559.65625 C 558.253906 553.226562 568.59375 545.4375 582.265625 545.4375 C 584.917969 545.4375 587.691406 545.730469 590.628906 546.382812 C 598.773438 548.179688 604.410156 550.1875 612.5625 550.1875 C 613.8125 550.1875 615.117188 550.140625 616.503906 550.035156 C 625.953125 549.300781 635.042969 547.042969 644.539062 547.042969 C 644.980469 547.042969 645.414062 547.046875 645.855469 547.054688 C 646.214844 547.0625 646.726562 547.066406 647.339844 547.066406 C 653.40625 547.066406 669.929688 546.550781 660.214844 539.335938 C 660.101562 539.246094 659.710938 539.207031 659.101562 539.207031 C 655.523438 539.207031 644.402344 540.542969 636.683594 540.542969 C 628.628906 540.542969 624.289062 539.09375 636.101562 533.152344 C 640.980469 530.71875 653.488281 529.5 645.359375 524.128906 C 643.691406 523.023438 639.765625 522.800781 635.703125 522.800781 C 632.902344 522.800781 630.046875 522.902344 627.820312 522.902344 C 626.820312 522.902344 625.945312 522.882812 625.269531 522.820312 C 620.609375 522.355469 616.773438 521.347656 612.839844 521.347656 C 610.261719 521.347656 607.640625 521.785156 604.722656 523.089844 C 600.195312 525.109375 598.890625 529.984375 593.324219 529.984375 C 592.667969 529.984375 591.960938 529.914062 591.175781 529.769531 C 583.496094 528.324219 579.839844 521.734375 571.667969 520.109375 C 568.746094 519.507812 565.6875 519.28125 562.582031 519.28125 Z M 562.574219 519.289062 " fill-opacity="1" fill-rule="nonzero"/><path fill="#757a65" d="M 100.082031 536.167969 C 99.914062 536.167969 99.75 536.171875 99.589844 536.183594 C 89.246094 536.953125 102.4375 541.058594 105.550781 542.097656 C 112.019531 544.25 117.917969 545.121094 123.691406 547.546875 C 124.339844 549.316406 125.992188 549.464844 129.710938 551.351562 C 131.054688 552.046875 132.191406 552.804688 133.234375 553.570312 C 134.464844 554.636719 135.613281 555.648438 136.890625 556.496094 L 135.996094 555.65625 C 138.296875 557.335938 140.6875 558.644531 144.734375 558.644531 C 145.28125 558.644531 145.855469 558.621094 146.464844 558.570312 C 147.457031 558.484375 148.480469 558.445312 149.519531 558.445312 C 165.46875 558.445312 186.785156 568.148438 195.683594 577.214844 C 209.820312 591.65625 239.757812 609.347656 263.914062 611.96875 C 265.253906 612.113281 266.472656 612.179688 267.597656 612.179688 C 274.453125 612.179688 277.941406 609.785156 284.6875 608.855469 C 287.046875 608.523438 289.296875 608.363281 291.457031 608.363281 C 316.203125 608.363281 329.085938 628.917969 353.003906 640.539062 C 371.828125 649.675781 388.273438 652.371094 403.773438 652.371094 C 426.105469 652.371094 446.460938 646.773438 469.113281 646.773438 C 475.964844 646.773438 483.027344 647.285156 490.414062 648.621094 C 497.15625 649.851562 507.570312 651.597656 515.890625 651.597656 C 528.695312 651.597656 536.566406 647.453125 518.585938 630.875 C 509.898438 622.835938 501.277344 620.332031 492.78125 620.332031 C 478.664062 620.332031 464.882812 627.246094 451.695312 627.246094 C 450.570312 627.246094 449.445312 627.195312 448.324219 627.085938 C 420.894531 624.296875 397.375 610.558594 369.601562 610.558594 C 368.621094 610.558594 367.632812 610.574219 366.640625 610.609375 C 365.417969 610.648438 364.199219 610.675781 362.984375 610.675781 C 350.785156 610.675781 339.1875 608.632812 327.855469 605.058594 C 316.109375 601.308594 306.269531 594.722656 294.800781 591.203125 C 291.1875 590.117188 285.992188 591.113281 282.5625 589.351562 C 280.484375 588.3125 280.800781 586.371094 278.589844 585.425781 C 277.824219 585.105469 276.792969 585.050781 275.71875 585.050781 C 275.179688 585.050781 274.628906 585.066406 274.089844 585.066406 C 273.285156 585.066406 272.507812 585.035156 271.863281 584.886719 C 266.132812 583.621094 257.953125 582.585938 255.429688 578.066406 C 251.996094 571.972656 253.082031 566.289062 245.042969 562.226562 C 244.863281 562.132812 244.683594 562.042969 244.542969 561.953125 C 238.199219 558.984375 231.644531 555.039062 225.042969 555.039062 C 222.90625 555.039062 220.765625 555.457031 218.621094 556.445312 C 213.800781 558.726562 208.898438 559.78125 203.613281 559.78125 C 200.835938 559.78125 197.949219 559.484375 194.914062 558.929688 C 190.21875 558.023438 186.785156 555.179688 181.910156 554.820312 C 181.375 554.777344 180.851562 554.753906 180.335938 554.753906 C 177.257812 554.753906 174.464844 555.457031 171.546875 555.457031 C 170.152344 555.457031 168.726562 555.296875 167.230469 554.824219 C 163.800781 553.785156 161.765625 550.671875 158.378906 549.816406 C 157.773438 549.667969 157.171875 549.605469 156.582031 549.605469 C 154.390625 549.605469 152.292969 550.421875 150.117188 550.421875 C 149.347656 550.421875 148.566406 550.320312 147.769531 550.039062 C 146.503906 549.589844 141.945312 545.75 141.269531 544.804688 C 139.914062 543.046875 142.308594 539.390625 140.910156 537.941406 C 139.949219 536.984375 139.078125 536.601562 138.273438 536.601562 C 135.640625 536.601562 133.6875 540.632812 131.335938 541.460938 C 130.433594 541.773438 129.40625 541.886719 128.320312 541.886719 C 125.753906 541.886719 122.859375 541.238281 120.542969 540.917969 C 119.40625 540.785156 118.257812 540.765625 117.105469 540.765625 C 116.675781 540.765625 116.242188 540.765625 115.8125 540.765625 C 114.230469 540.765625 112.660156 540.738281 111.148438 540.417969 C 107.554688 539.636719 103.957031 536.15625 100.082031 536.15625 Z M 100.082031 536.167969 " fill-opacity="1" fill-rule="nonzero"/><path fill="#2a2d32" d="M 90.292969 563.90625 C 86.757812 563.90625 82.628906 565.425781 79.644531 565.835938 C 76.160156 566.355469 74.449219 567.242188 71.335938 568.578125 C 68.660156 569.769531 64.957031 569.839844 62.058594 570.660156 C 57.164062 571.992188 52.335938 573.328125 47.441406 574.8125 C 36.828125 577.996094 26.367188 582.082031 15.160156 583.933594 C 10.414062 584.671875 5.511719 585.492188 0.691406 586.308594 C 0.0273438 586.457031 0.691406 599.359375 0.691406 600.84375 C 0.996094 600.511719 1.917969 600.421875 3.042969 600.421875 C 4.546875 600.421875 6.417969 600.585938 7.65625 600.585938 C 7.984375 600.585938 8.261719 600.574219 8.484375 600.546875 C 11.675781 600.175781 14.71875 599.355469 17.835938 598.839844 C 19.917969 598.394531 21.988281 597.652344 24.066406 597.210938 C 24.292969 597.210938 24.511719 597.136719 24.738281 597.136719 C 25.25 597.046875 25.722656 597.003906 26.183594 597.003906 C 27.578125 597.003906 28.792969 597.355469 30.304688 597.582031 C 32.394531 597.84375 34.816406 598.085938 37.238281 598.085938 C 40.222656 598.085938 43.214844 597.726562 45.589844 596.617188 C 47.296875 595.875 48.113281 595.0625 50.265625 594.6875 C 52.941406 594.164062 55.832031 594.097656 58.503906 593.722656 C 67.851562 592.605469 74.601562 589.121094 82.546875 585.636719 C 88.183594 583.265625 97.460938 579.851562 97.832031 574.136719 C 97.980469 571.617188 96.941406 566.792969 94.496094 565.019531 C 93.3125 564.199219 91.867188 563.90625 90.304688 563.90625 Z M 90.292969 563.90625 " fill-opacity="1" fill-rule="nonzero"/></svg>