<svg xmlns="http://www.w3.org/2000/svg" xmlns:xlink="http://www.w3.org/1999/xlink" width="1280" zoomAndPan="magnify" viewBox="0 0 960 599.999999" height="800" preserveAspectRatio="xMidYMid meet" version="1.0"><defs><linearGradient x1="640" gradientTransform="matrix(0.75, 0, 0, 0.75, 0.00000048, 0.00002)" y1="0" x2="640" gradientUnits="userSpaceOnUse" y2="799.999967" id="fd8b45bf6f"><stop stop-opacity="1" stop-color="rgb(49.398804%, 66.699219%, 56.898499%)" offset="0"/><stop stop-opacity="1" stop-color="rgb(49.539185%, 66.75415%, 56.97937%)" offset="0.0078125"/><stop stop-opacity="1" stop-color="rgb(49.821472%, 66.867065%, 57.141113%)" offset="0.015625"/><stop stop-opacity="1" stop-color="rgb(50.10376%, 66.978455%, 57.302856%)" offset="0.0234375"/><stop stop-opacity="1" stop-color="rgb(50.384521%, 67.089844%, 57.4646%)" offset="0.03125"/><stop stop-opacity="1" stop-color="rgb(50.666809%, 67.202759%, 57.626343%)" offset="0.0390625"/><stop stop-opacity="1" stop-color="rgb(50.949097%, 67.314148%, 57.788086%)" offset="0.046875"/><stop stop-opacity="1" stop-color="rgb(51.231384%, 67.425537%, 57.949829%)" offset="0.0546875"/><stop stop-opacity="1" stop-color="rgb(51.512146%, 67.538452%, 58.110046%)" offset="0.0625"/><stop stop-opacity="1" stop-color="rgb(51.794434%, 67.649841%, 58.27179%)" offset="0.0703125"/><stop stop-opacity="1" stop-color="rgb(52.076721%, 67.76123%, 58.433533%)" offset="0.078125"/><stop stop-opacity="1" stop-color="rgb(52.359009%, 67.874146%, 58.595276%)" offset="0.0859375"/><stop stop-opacity="1" stop-color="rgb(52.639771%, 67.985535%, 58.757019%)" offset="0.09375"/><stop stop-opacity="1" stop-color="rgb(52.922058%, 68.096924%, 58.918762%)" offset="0.101562"/><stop stop-opacity="1" stop-color="rgb(53.204346%, 68.209839%, 59.080505%)" offset="0.109375"/><stop stop-opacity="1" stop-color="rgb(53.486633%, 68.321228%, 59.240723%)" offset="0.117188"/><stop stop-opacity="1" stop-color="rgb(53.767395%, 68.432617%, 59.402466%)" offset="0.125"/><stop stop-opacity="1" stop-color="rgb(54.049683%, 68.545532%, 59.564209%)" offset="0.132812"/><stop stop-opacity="1" stop-color="rgb(54.33197%, 68.656921%, 59.725952%)" offset="0.140625"/><stop stop-opacity="1" stop-color="rgb(54.614258%, 68.768311%, 59.887695%)" offset="0.148438"/><stop stop-opacity="1" stop-color="rgb(54.89502%, 68.881226%, 60.049438%)" offset="0.15625"/><stop stop-opacity="1" stop-color="rgb(55.177307%, 68.992615%, 60.211182%)" offset="0.164062"/><stop stop-opacity="1" stop-color="rgb(55.459595%, 69.10553%, 60.371399%)" offset="0.171875"/><stop stop-opacity="1" stop-color="rgb(55.740356%, 69.216919%, 60.533142%)" offset="0.179688"/><stop stop-opacity="1" stop-color="rgb(56.022644%, 69.328308%, 60.694885%)" offset="0.1875"/><stop stop-opacity="1" stop-color="rgb(56.304932%, 69.441223%, 60.856628%)" offset="0.195312"/><stop stop-opacity="1" stop-color="rgb(56.587219%, 69.552612%, 61.018372%)" offset="0.203125"/><stop stop-opacity="1" stop-color="rgb(56.867981%, 69.664001%, 61.180115%)" offset="0.210938"/><stop stop-opacity="1" stop-color="rgb(57.150269%, 69.776917%, 61.341858%)" offset="0.21875"/><stop stop-opacity="1" stop-color="rgb(57.432556%, 69.888306%, 61.502075%)" offset="0.226562"/><stop stop-opacity="1" stop-color="rgb(57.714844%, 69.999695%, 61.663818%)" offset="0.234375"/><stop stop-opacity="1" stop-color="rgb(57.995605%, 70.11261%, 61.825562%)" offset="0.242188"/><stop stop-opacity="1" stop-color="rgb(58.277893%, 70.223999%, 61.987305%)" offset="0.25"/><stop stop-opacity="1" stop-color="rgb(58.560181%, 70.335388%, 62.149048%)" offset="0.257812"/><stop stop-opacity="1" stop-color="rgb(58.842468%, 70.448303%, 62.310791%)" offset="0.265625"/><stop stop-opacity="1" stop-color="rgb(59.12323%, 70.559692%, 62.472534%)" offset="0.273438"/><stop stop-opacity="1" stop-color="rgb(59.405518%, 70.671082%, 62.632751%)" offset="0.28125"/><stop stop-opacity="1" stop-color="rgb(59.687805%, 70.783997%, 62.794495%)" offset="0.289062"/><stop stop-opacity="1" stop-color="rgb(59.968567%, 70.895386%, 62.956238%)" offset="0.296875"/><stop stop-opacity="1" stop-color="rgb(60.250854%, 71.006775%, 63.117981%)" offset="0.304688"/><stop stop-opacity="1" stop-color="rgb(60.533142%, 71.11969%, 63.279724%)" offset="0.3125"/><stop stop-opacity="1" stop-color="rgb(60.81543%, 71.231079%, 63.441467%)" offset="0.320312"/><stop stop-opacity="1" stop-color="rgb(61.096191%, 71.342468%, 63.60321%)" offset="0.328125"/><stop stop-opacity="1" stop-color="rgb(61.378479%, 71.455383%, 63.763428%)" offset="0.335938"/><stop stop-opacity="1" stop-color="rgb(61.660767%, 71.566772%, 63.925171%)" offset="0.34375"/><stop stop-opacity="1" stop-color="rgb(61.943054%, 71.678162%, 64.086914%)" offset="0.351562"/><stop stop-opacity="1" stop-color="rgb(62.223816%, 71.791077%, 64.248657%)" offset="0.359375"/><stop stop-opacity="1" stop-color="rgb(62.506104%, 71.902466%, 64.4104%)" offset="0.367188"/><stop stop-opacity="1" stop-color="rgb(62.788391%, 72.013855%, 64.572144%)" offset="0.375"/><stop stop-opacity="1" stop-color="rgb(63.070679%, 72.12677%, 64.733887%)" offset="0.382812"/><stop stop-opacity="1" stop-color="rgb(63.35144%, 72.238159%, 64.894104%)" offset="0.390625"/><stop stop-opacity="1" stop-color="rgb(63.633728%, 72.349548%, 65.055847%)" offset="0.398438"/><stop stop-opacity="1" stop-color="rgb(63.916016%, 72.462463%, 65.21759%)" offset="0.40625"/><stop stop-opacity="1" stop-color="rgb(64.198303%, 72.573853%, 65.379333%)" offset="0.414062"/><stop stop-opacity="1" stop-color="rgb(64.479065%, 72.685242%, 65.541077%)" offset="0.421875"/><stop stop-opacity="1" stop-color="rgb(64.761353%, 72.798157%, 65.70282%)" offset="0.429688"/><stop stop-opacity="1" stop-color="rgb(65.04364%, 72.909546%, 65.864563%)" offset="0.4375"/><stop stop-opacity="1" stop-color="rgb(65.324402%, 73.020935%, 66.02478%)" offset="0.445312"/><stop stop-opacity="1" stop-color="rgb(65.606689%, 73.13385%, 66.186523%)" offset="0.453125"/><stop stop-opacity="1" stop-color="rgb(65.888977%, 73.245239%, 66.348267%)" offset="0.460938"/><stop stop-opacity="1" stop-color="rgb(66.171265%, 73.356628%, 66.51001%)" offset="0.46875"/><stop stop-opacity="1" stop-color="rgb(66.452026%, 73.469543%, 66.671753%)" offset="0.476562"/><stop stop-opacity="1" stop-color="rgb(66.734314%, 73.580933%, 66.833496%)" offset="0.484375"/><stop stop-opacity="1" stop-color="rgb(67.016602%, 73.692322%, 66.995239%)" offset="0.492188"/><stop stop-opacity="1" stop-color="rgb(67.298889%, 73.805237%, 67.155457%)" offset="0.5"/><stop stop-opacity="1" stop-color="rgb(67.579651%, 73.916626%, 67.3172%)" offset="0.507812"/><stop stop-opacity="1" stop-color="rgb(67.861938%, 74.028015%, 67.478943%)" offset="0.515625"/><stop stop-opacity="1" stop-color="rgb(68.144226%, 74.14093%, 67.640686%)" offset="0.523438"/><stop stop-opacity="1" stop-color="rgb(68.426514%, 74.252319%, 67.802429%)" offset="0.53125"/><stop stop-opacity="1" stop-color="rgb(68.707275%, 74.365234%, 67.964172%)" offset="0.539062"/><stop stop-opacity="1" stop-color="rgb(68.989563%, 74.476624%, 68.125916%)" offset="0.546875"/><stop stop-opacity="1" stop-color="rgb(69.271851%, 74.588013%, 68.287659%)" offset="0.554688"/><stop stop-opacity="1" stop-color="rgb(69.552612%, 74.700928%, 68.447876%)" offset="0.5625"/><stop stop-opacity="1" stop-color="rgb(69.8349%, 74.812317%, 68.609619%)" offset="0.570312"/><stop stop-opacity="1" stop-color="rgb(70.117188%, 74.923706%, 68.771362%)" offset="0.578125"/><stop stop-opacity="1" stop-color="rgb(70.399475%, 75.036621%, 68.933105%)" offset="0.585938"/><stop stop-opacity="1" stop-color="rgb(70.680237%, 75.14801%, 69.094849%)" offset="0.59375"/><stop stop-opacity="1" stop-color="rgb(70.962524%, 75.259399%, 69.256592%)" offset="0.601562"/><stop stop-opacity="1" stop-color="rgb(71.244812%, 75.372314%, 69.418335%)" offset="0.609375"/><stop stop-opacity="1" stop-color="rgb(71.5271%, 75.483704%, 69.578552%)" offset="0.617188"/><stop stop-opacity="1" stop-color="rgb(71.807861%, 75.595093%, 69.740295%)" offset="0.625"/><stop stop-opacity="1" stop-color="rgb(72.090149%, 75.708008%, 69.902039%)" offset="0.632812"/><stop stop-opacity="1" stop-color="rgb(72.372437%, 75.819397%, 70.063782%)" offset="0.640625"/><stop stop-opacity="1" stop-color="rgb(72.654724%, 75.930786%, 70.225525%)" offset="0.648438"/><stop stop-opacity="1" stop-color="rgb(72.935486%, 76.043701%, 70.387268%)" offset="0.65625"/><stop stop-opacity="1" stop-color="rgb(73.217773%, 76.15509%, 70.549011%)" offset="0.664062"/><stop stop-opacity="1" stop-color="rgb(73.500061%, 76.266479%, 70.709229%)" offset="0.671875"/><stop stop-opacity="1" stop-color="rgb(73.782349%, 76.379395%, 70.870972%)" offset="0.679688"/><stop stop-opacity="1" stop-color="rgb(74.06311%, 76.490784%, 71.032715%)" offset="0.6875"/><stop stop-opacity="1" stop-color="rgb(74.345398%, 76.602173%, 71.194458%)" offset="0.695312"/><stop stop-opacity="1" stop-color="rgb(74.627686%, 76.715088%, 71.356201%)" offset="0.703125"/><stop stop-opacity="1" stop-color="rgb(74.908447%, 76.826477%, 71.517944%)" offset="0.710938"/><stop stop-opacity="1" stop-color="rgb(75.190735%, 76.937866%, 71.679688%)" offset="0.71875"/><stop stop-opacity="1" stop-color="rgb(75.473022%, 77.050781%, 71.839905%)" offset="0.726562"/><stop stop-opacity="1" stop-color="rgb(75.75531%, 77.16217%, 72.001648%)" offset="0.734375"/><stop stop-opacity="1" stop-color="rgb(75.996399%, 77.258301%, 72.140503%)" offset="0.75"/><stop stop-opacity="1" stop-color="rgb(76.098633%, 77.2995%, 72.198486%)" offset="0.8125"/><stop stop-opacity="1" stop-color="rgb(76.098633%, 77.2995%, 72.198486%)" offset="0.828125"/><stop stop-opacity="1" stop-color="rgb(76.234436%, 77.427673%, 72.363281%)" offset="0.835938"/><stop stop-opacity="1" stop-color="rgb(76.550293%, 77.726746%, 72.743225%)" offset="0.839844"/><stop stop-opacity="1" stop-color="rgb(76.730347%, 77.897644%, 72.9599%)" offset="0.84375"/><stop stop-opacity="1" stop-color="rgb(76.908875%, 78.067017%, 73.175049%)" offset="0.847656"/><stop stop-opacity="1" stop-color="rgb(77.088928%, 78.237915%, 73.391724%)" offset="0.851562"/><stop stop-opacity="1" stop-color="rgb(77.267456%, 78.407288%, 73.606873%)" offset="0.855469"/><stop stop-opacity="1" stop-color="rgb(77.44751%, 78.578186%, 73.823547%)" offset="0.859375"/><stop stop-opacity="1" stop-color="rgb(77.626038%, 78.747559%, 74.038696%)" offset="0.863281"/><stop stop-opacity="1" stop-color="rgb(77.806091%, 78.918457%, 74.255371%)" offset="0.867188"/><stop stop-opacity="1" stop-color="rgb(77.984619%, 79.08783%, 74.47052%)" offset="0.871094"/><stop stop-opacity="1" stop-color="rgb(78.164673%, 79.258728%, 74.687195%)" offset="0.875"/><stop stop-opacity="1" stop-color="rgb(78.343201%, 79.428101%, 74.902344%)" offset="0.878906"/><stop stop-opacity="1" stop-color="rgb(78.521729%, 79.597473%, 75.119019%)" offset="0.882812"/><stop stop-opacity="1" stop-color="rgb(78.700256%, 79.766846%, 75.334167%)" offset="0.886719"/><stop stop-opacity="1" stop-color="rgb(78.88031%, 79.937744%, 75.550842%)" offset="0.890625"/><stop stop-opacity="1" stop-color="rgb(79.058838%, 80.107117%, 75.765991%)" offset="0.894531"/><stop stop-opacity="1" stop-color="rgb(79.238892%, 80.278015%, 75.982666%)" offset="0.898438"/><stop stop-opacity="1" stop-color="rgb(79.417419%, 80.447388%, 76.199341%)" offset="0.902344"/><stop stop-opacity="1" stop-color="rgb(79.597473%, 80.618286%, 76.416016%)" offset="0.90625"/><stop stop-opacity="1" stop-color="rgb(79.776001%, 80.787659%, 76.631165%)" offset="0.910156"/><stop stop-opacity="1" stop-color="rgb(79.956055%, 80.958557%, 76.847839%)" offset="0.914062"/><stop stop-opacity="1" stop-color="rgb(80.134583%, 81.12793%, 77.062988%)" offset="0.917969"/><stop stop-opacity="1" stop-color="rgb(80.314636%, 81.298828%, 77.279663%)" offset="0.921875"/><stop stop-opacity="1" stop-color="rgb(80.493164%, 81.468201%, 77.494812%)" offset="0.925781"/><stop stop-opacity="1" stop-color="rgb(80.673218%, 81.639099%, 77.711487%)" offset="0.929688"/><stop stop-opacity="1" stop-color="rgb(80.851746%, 81.808472%, 77.926636%)" offset="0.933594"/><stop stop-opacity="1" stop-color="rgb(81.031799%, 81.97937%, 78.143311%)" offset="0.9375"/><stop stop-opacity="1" stop-color="rgb(81.210327%, 82.148743%, 78.358459%)" offset="0.941406"/><stop stop-opacity="1" stop-color="rgb(81.390381%, 82.318115%, 78.575134%)" offset="0.945312"/><stop stop-opacity="1" stop-color="rgb(81.568909%, 82.487488%, 78.790283%)" offset="0.949219"/><stop stop-opacity="1" stop-color="rgb(81.748962%, 82.658386%, 79.006958%)" offset="0.953125"/><stop stop-opacity="1" stop-color="rgb(81.92749%, 82.827759%, 79.222107%)" offset="0.957031"/><stop stop-opacity="1" stop-color="rgb(82.107544%, 82.998657%, 79.438782%)" offset="0.960938"/><stop stop-opacity="1" stop-color="rgb(82.286072%, 83.16803%, 79.653931%)" offset="0.964844"/><stop stop-opacity="1" stop-color="rgb(82.466125%, 83.338928%, 79.870605%)" offset="0.96875"/><stop stop-opacity="1" stop-color="rgb(82.644653%, 83.508301%, 80.08728%)" offset="0.972656"/><stop stop-opacity="1" stop-color="rgb(82.823181%, 83.679199%, 80.303955%)" offset="0.976562"/><stop stop-opacity="1" stop-color="rgb(83.001709%, 83.848572%, 80.519104%)" offset="0.980469"/><stop stop-opacity="1" stop-color="rgb(83.181763%, 84.01947%, 80.735779%)" offset="0.984375"/><stop stop-opacity="1" stop-color="rgb(83.360291%, 84.188843%, 80.950928%)" offset="0.988281"/><stop stop-opacity="1" stop-color="rgb(83.540344%, 84.359741%, 81.167603%)" offset="0.992188"/><stop stop-opacity="1" stop-color="rgb(83.718872%, 84.529114%, 81.382751%)" offset="0.996094"/><stop stop-opacity="1" stop-color="rgb(83.898926%, 84.698486%, 81.599426%)" offset="1"/></linearGradient><clipPath id="10953ee4dc"><path d="M 651 3.394531 L 774 3.394531 L 774 51 L 651 51 Z M 651 3.394531 " clip-rule="nonzero"/></clipPath></defs><rect x="-96" width="1152" fill="#ffffff" y="-60" height="719.999999" fill-opacity="1"/><rect x="-96" fill="url(#fd8b45bf6f)" width="1152" y="-60" height="719.999999"/><path fill="#2a2d32" d="M 155.761719 577.550781 C 170.296875 577.550781 187.523438 580.324219 192.953125 589.757812 C 199.230469 600.726562 173.992188 597.15625 177.332031 608.351562 C 179.363281 615.199219 187.019531 617.074219 196.792969 617.074219 C 208.597656 617.074219 223.476562 614.34375 235.253906 614.34375 C 249.761719 614.34375 259.554688 618.492188 253.046875 637.003906 C 250.019531 645.570312 237.578125 648.007812 223.289062 648.007812 C 206.425781 648.007812 187 644.617188 177.46875 643.90625 C 164.511719 642.960938 151.324219 641.015625 139.410156 637.140625 C 134.804688 635.648438 130.46875 633.890625 126.363281 631.816406 C 120.535156 628.835938 115.257812 625.230469 110.785156 620.761719 C 109.429688 619.40625 108.210938 618.097656 106.945312 616.742188 C 99.542969 608.800781 92.320312 600.996094 81.03125 595.492188 C 77.78125 593.867188 67.082031 587.550781 70.875 583.851562 C 72.121094 582.632812 74.636719 582.308594 77.242188 582.308594 C 79.847656 582.308594 82.546875 582.636719 84.152344 582.726562 C 90.066406 583.085938 112.730469 583.71875 105.730469 592.652344 C 103.609375 595.363281 100.945312 595.136719 97.46875 596.035156 C 95.394531 596.621094 92.546875 599.148438 94.578125 600.863281 C 95.664062 601.769531 98.144531 601.632812 99.542969 601.679688 C 100.875 601.722656 102.230469 601.757812 103.585938 601.757812 C 104.941406 601.757812 106.296875 601.730469 107.625 601.632812 C 111.28125 601.363281 114.621094 599.921875 118.191406 599.605469 C 121.53125 599.289062 124.558594 599.335938 127.492188 597.800781 C 135.484375 593.648438 125.011719 583.496094 135.257812 579.84375 C 138.738281 578.632812 146.730469 577.558594 155.765625 577.558594 Z M 23.929688 511.609375 C 16.78125 511.609375 9.429688 512.351562 2.75 513.136719 C 2.117188 513.226562 1.304688 513.316406 0.449219 513.40625 L 0.449219 520.3125 C 1.398438 520.3125 2.34375 520.277344 3.21875 520.277344 C 4.09375 520.277344 4.894531 520.3125 5.550781 520.449219 C 10.019531 521.308594 12.410156 523.023438 17.242188 523.15625 C 17.5 523.164062 17.761719 523.167969 18.019531 523.167969 C 20.925781 523.167969 23.867188 522.738281 26.765625 522.566406 C 29.167969 522.433594 31.488281 522.363281 33.757812 522.363281 C 40.65625 522.363281 47.128906 523.011719 54.257812 524.507812 C 66.945312 527.261719 79.453125 533.9375 92.046875 534.84375 C 92.863281 536.421875 93.3125 537.820312 93.269531 539.3125 C 93.132812 546.078125 62.390625 545.269531 83.246094 561.511719 C 87.851562 565.121094 122.796875 575.277344 101.035156 577.933594 C 100.121094 578.042969 99.175781 578.09375 98.199219 578.09375 C 91.160156 578.09375 82.796875 575.484375 75.660156 574.101562 C 69.386719 572.882812 63.289062 572.835938 57.148438 572.117188 C 56.789062 571.03125 56.566406 569.90625 56.519531 568.777344 C 55.84375 558.21875 59.816406 552.484375 39.816406 550.457031 C 38.953125 550.371094 38.117188 550.324219 37.324219 550.324219 C 26.832031 550.324219 21.925781 557.472656 18.191406 564.351562 C 14.78125 570.746094 12.378906 576.894531 7.589844 576.894531 C 5.660156 576.894531 3.339844 575.894531 0.402344 573.511719 L 0.402344 608.976562 C 1.480469 609.152344 2.617188 609.246094 3.824219 609.246094 C 6.972656 609.246094 10.625 608.621094 15.03125 607.21875 C 17.375 616.421875 15.253906 640.203125 31.238281 646.96875 C 33.742188 648.03125 35.96875 648.480469 37.976562 648.480469 C 43.574219 648.480469 47.507812 645.015625 51.195312 641.691406 C 52.453125 640.5625 53.675781 639.4375 54.941406 638.488281 C 61.789062 635.195312 69.742188 629.832031 77.882812 629.832031 C 79.664062 629.832031 81.457031 630.085938 83.246094 630.683594 C 84.917969 631.132812 86.589844 631.625 88.257812 632.214844 C 99.949219 635.148438 117.285156 636.59375 126.992188 642.730469 C 130.789062 645.125 131.914062 649.863281 136.203125 651.714844 C 137.671875 652.351562 139.292969 652.546875 140.980469 652.546875 C 143.765625 652.546875 146.714844 652.003906 149.449219 652.003906 C 149.980469 652.003906 150.5 652.023438 151.011719 652.074219 C 169.425781 653.695312 185.59375 661.003906 203.605469 663.351562 C 206.140625 663.691406 208.527344 663.835938 210.804688 663.835938 C 223.441406 663.835938 232.878906 659.390625 246.496094 658.660156 C 247.835938 658.585938 249.125 658.550781 250.378906 658.550781 C 268.664062 658.550781 278.726562 666.203125 294.53125 671.570312 C 299.253906 673.160156 302.9375 673.867188 306.089844 673.867188 C 313.84375 673.867188 318.371094 669.582031 327.261719 663.582031 C 334.535156 658.664062 344.644531 645.492188 355.390625 645.082031 C 355.605469 645.074219 355.820312 645.070312 356.03125 645.070312 C 368.144531 645.070312 375.324219 657.546875 386.859375 660.558594 C 397.785156 663.449219 408.710938 667.78125 419.363281 670.941406 C 429.746094 674.054688 440.671875 675.222656 450.015625 680.101562 C 458.1875 684.300781 462.929688 691.65625 471.503906 695.445312 C 486.355469 702.03125 504.867188 698.332031 519.8125 705.550781 C 521.890625 706.589844 523.96875 707.667969 526 708.796875 C 533.675781 712.992188 539.40625 717.960938 545.867188 722.742188 C 547.988281 724.3125 549.789062 724.898438 551.476562 724.898438 C 555.1875 724.898438 558.363281 722.078125 563.199219 720.625 C 567.847656 719.222656 582.296875 722.15625 580.175781 714.53125 C 576.289062 713.902344 575.703125 709.34375 573.40625 707.265625 C 572.273438 706.273438 570.425781 706.496094 569.203125 705.324219 C 566.042969 702.167969 563.472656 700.8125 559.679688 698.0625 C 556.832031 696.035156 556.203125 693.28125 553.898438 691.070312 C 551.007812 688.355469 547.621094 687.976562 544.046875 687.976562 C 542.660156 687.976562 541.242188 688.03125 539.816406 688.03125 C 537.347656 688.03125 534.839844 687.859375 532.40625 686.917969 C 524.460938 683.847656 523.238281 678.746094 513.488281 676.042969 C 510.25 675.128906 507.324219 674.828125 504.503906 674.828125 C 499.820312 674.828125 495.425781 675.648438 490.332031 675.816406 C 485.753906 675.957031 482.109375 677.972656 478.398438 677.972656 C 476.097656 677.972656 473.777344 677.203125 471.1875 674.734375 C 463.652344 667.566406 471.089844 665.257812 483.675781 665.257812 C 504.042969 665.257812 537.902344 671.292969 543.652344 672.519531 C 549.628906 673.785156 559.535156 677.765625 567.527344 677.765625 C 572.101562 677.765625 576.050781 676.460938 578.28125 672.609375 C 584.195312 662.320312 562.386719 653.253906 552.367188 651.53125 C 550.300781 651.179688 548.472656 651.027344 546.808594 651.027344 C 538.925781 651.027344 534.730469 654.410156 526.90625 655.640625 C 525.960938 655.785156 524.820312 655.855469 523.519531 655.855469 C 505.742188 655.855469 458.367188 643.011719 487.21875 635.066406 C 493.117188 633.445312 502.085938 631.222656 510.019531 631.222656 C 511.804688 631.222656 513.535156 631.332031 515.167969 631.589844 C 520.042969 632.40625 526.320312 636.417969 531.644531 637.640625 C 534.65625 638.320312 539.714844 639.539062 543.945312 639.539062 C 547.835938 639.539062 551.023438 638.503906 551.238281 635.066406 C 551.328125 633.214844 543.203125 632.542969 541.710938 632.3125 C 537.332031 631.679688 533.316406 629.648438 529.113281 629.152344 C 526.496094 628.882812 523.878906 628.65625 521.527344 627.664062 C 519.273438 626.757812 517.515625 625.269531 514.894531 624.730469 C 513.214844 624.375 511.183594 624.253906 509.046875 624.253906 C 504.640625 624.253906 499.773438 624.773438 496.523438 624.871094 C 481.894531 625.363281 469.027344 628.882812 455.347656 630.867188 C 449.773438 631.675781 444.511719 632.066406 439.425781 632.066406 C 416.421875 632.066406 397.140625 624.074219 369.929688 610.699219 C 362.027344 606.816406 354.261719 603.660156 347.851562 598.425781 C 333.449219 586.695312 313.582031 571.53125 291.773438 569.773438 C 290.558594 569.671875 289.363281 569.621094 288.203125 569.621094 C 275.988281 569.621094 266.613281 574.734375 256.285156 574.734375 C 251.445312 574.734375 246.398438 573.613281 240.757812 570.3125 C 229.382812 563.679688 225.546875 551.40625 215.296875 543.867188 C 194.914062 528.808594 175.300781 525.332031 156.210938 525.332031 C 142.070312 525.332031 128.207031 527.242188 114.527344 527.753906 C 109.683594 527.949219 105.164062 528.179688 100.695312 528.179688 C 92.664062 528.179688 84.789062 527.425781 75.476562 524.324219 C 62.160156 519.855469 48.660156 514.214844 34.257812 512.226562 C 30.933594 511.78125 27.453125 511.597656 23.925781 511.597656 Z M 23.929688 511.609375 " fill-opacity="1" fill-rule="nonzero"/><path fill="#5f6454" d="M -175.183594 487.914062 C -176.085938 488.085938 -177.015625 488.300781 -177.980469 488.574219 C -178.699219 505.117188 -161.511719 502.90625 -148.507812 505.269531 C -117.605469 510.804688 -93.484375 526.652344 -60.253906 528.75 C -52.820312 529.21875 -46.609375 528.570312 -40.84375 527.460938 C -33.074219 525.960938 -26.113281 523.628906 -18.078125 522.082031 C -15.953125 521.671875 -13.753906 521.320312 -11.441406 521.046875 C 5.828125 519.054688 16.726562 530.96875 32.675781 534.789062 C 37.957031 536.050781 42.84375 536.148438 46.910156 535.363281 C 59.210938 532.992188 64.054688 522.613281 49.9375 512.488281 C 45.453125 509.261719 40.328125 506.523438 35.148438 503.984375 C 31.453125 502.214844 28.28125 499.148438 24.550781 497.664062 C 21.175781 496.382812 15.433594 498.3125 16.324219 493.640625 C 17.664062 493.171875 18.914062 492.832031 20.097656 492.605469 C 29.101562 490.871094 33.917969 495.640625 42.785156 497.546875 C 57.070312 500.585938 71.65625 503.980469 87.171875 501.953125 C 87.636719 501.898438 88.117188 501.820312 88.609375 501.726562 C 93.578125 500.765625 99.613281 497.894531 100.953125 493.785156 C 101.34375 492.695312 101.664062 491.257812 101.09375 490.214844 C 100.597656 489.300781 99.710938 489.242188 98.746094 488.742188 C 96.132812 487.363281 95.089844 484.804688 92.128906 483.765625 C 90.257812 483.113281 87.683594 483.839844 85.621094 483.871094 C 84.472656 483.890625 83.417969 483.859375 82.246094 484.089844 C 82.066406 484.125 81.878906 484.167969 81.6875 484.214844 C 80.433594 484.550781 79.378906 484.828125 78.292969 485.035156 C 77.300781 485.222656 76.285156 485.359375 75.070312 485.445312 C 70.695312 485.644531 64.824219 485.714844 64.296875 481.773438 C 72.773438 478.03125 73.425781 473.355469 63.851562 473.269531 C 62.628906 473.25 61.5 473.363281 60.429688 473.570312 C 55.675781 474.484375 52.183594 477.257812 48.058594 478.65625 C 47.308594 478.910156 46.578125 479.105469 45.867188 479.242188 C 37.488281 480.855469 31.550781 474.773438 23.886719 473.707031 C 15.25 472.449219 4.398438 473.664062 -5.15625 475.507812 C -7.320312 475.929688 -9.421875 476.378906 -11.417969 476.835938 C -25.039062 480.011719 -37.265625 485.382812 -51.257812 488.078125 C -57.199219 489.222656 -63.453125 489.886719 -70.269531 489.691406 C -79.324219 489.460938 -89.28125 492.894531 -98.210938 491.90625 C -109.023438 490.679688 -107.824219 486.410156 -114.035156 483.285156 C -120.703125 479.929688 -112.777344 478.585938 -124.25 478.957031 C -124.785156 478.976562 -125.339844 479.042969 -125.90625 479.152344 C -130.890625 480.109375 -136.902344 484.25 -141.203125 485.945312 C -143.566406 486.882812 -145.726562 487.503906 -147.742188 487.894531 C -158.007812 489.871094 -164.558594 485.867188 -175.183594 487.914062 Z M -175.183594 487.914062 " fill-opacity="1" fill-rule="nonzero"/><path fill="#3d5d4b" d="M -76.210938 477.988281 C -76.375 477.988281 -76.539062 477.992188 -76.699219 478 C -87.039062 478.773438 -73.855469 482.875 -70.738281 483.914062 C -64.273438 486.070312 -58.378906 486.9375 -52.601562 489.363281 C -51.957031 491.132812 -50.300781 491.28125 -46.585938 493.164062 C -45.242188 493.859375 -44.105469 494.621094 -43.0625 495.382812 C -41.832031 496.449219 -40.6875 497.464844 -39.40625 498.308594 L -40.300781 497.46875 C -38 499.148438 -35.609375 500.457031 -31.566406 500.457031 C -31.019531 500.457031 -30.445312 500.433594 -29.835938 500.382812 C -28.84375 500.296875 -27.820312 500.257812 -26.777344 500.257812 C -10.832031 500.257812 10.480469 509.957031 19.375 519.019531 C 33.507812 533.457031 63.441406 551.144531 87.59375 553.765625 C 88.933594 553.910156 90.148438 553.976562 91.273438 553.976562 C 98.128906 553.976562 101.613281 551.582031 108.359375 550.652344 C 110.71875 550.320312 112.96875 550.160156 115.132812 550.160156 C 139.867188 550.160156 152.75 570.707031 176.664062 582.328125 C 195.484375 591.457031 211.925781 594.152344 227.421875 594.152344 C 249.75 594.152344 270.101562 588.558594 292.75 588.558594 C 299.601562 588.558594 306.660156 589.070312 314.046875 590.402344 C 320.789062 591.632812 331.199219 593.382812 339.519531 593.382812 C 352.320312 593.382812 360.191406 589.238281 342.214844 572.667969 C 333.527344 564.628906 324.910156 562.125 316.414062 562.125 C 302.300781 562.125 288.519531 569.039062 275.339844 569.039062 C 274.210938 569.039062 273.085938 568.988281 271.96875 568.878906 C 244.539062 566.089844 221.027344 552.355469 193.257812 552.355469 C 192.277344 552.355469 191.289062 552.371094 190.300781 552.40625 C 189.074219 552.445312 187.859375 552.46875 186.644531 552.46875 C 174.445312 552.46875 162.851562 550.429688 151.519531 546.859375 C 139.777344 543.109375 129.9375 536.523438 118.472656 533.003906 C 114.859375 531.917969 109.664062 532.914062 106.234375 531.15625 C 104.160156 530.113281 104.476562 528.175781 102.265625 527.230469 C 101.5 526.910156 100.46875 526.855469 99.394531 526.855469 C 98.855469 526.855469 98.304688 526.871094 97.765625 526.871094 C 96.960938 526.871094 96.183594 526.839844 95.539062 526.691406 C 89.808594 525.425781 81.632812 524.390625 79.105469 519.875 C 75.675781 513.78125 76.761719 508.097656 68.726562 504.035156 C 68.546875 503.945312 68.367188 503.855469 68.226562 503.765625 C 61.878906 500.796875 55.328125 496.855469 48.730469 496.855469 C 46.59375 496.855469 44.453125 497.269531 42.308594 498.257812 C 37.488281 500.539062 32.585938 501.59375 27.300781 501.59375 C 24.527344 501.59375 21.640625 501.296875 18.605469 500.742188 C 13.910156 499.835938 10.480469 496.992188 5.605469 496.632812 C 5.070312 496.589844 4.542969 496.570312 4.027344 496.570312 C 0.953125 496.570312 -1.839844 497.269531 -4.757812 497.269531 C -6.152344 497.269531 -7.578125 497.109375 -9.074219 496.640625 C -12.503906 495.597656 -14.539062 492.484375 -17.921875 491.632812 C -18.527344 491.480469 -19.128906 491.421875 -19.71875 491.421875 C -21.910156 491.421875 -24.007812 492.234375 -26.183594 492.234375 C -26.953125 492.234375 -27.734375 492.136719 -28.53125 491.855469 C -29.792969 491.40625 -34.355469 487.566406 -35.03125 486.625 C -36.386719 484.863281 -33.988281 481.210938 -35.390625 479.761719 C -36.351562 478.800781 -37.21875 478.421875 -38.023438 478.421875 C -40.65625 478.421875 -42.609375 482.449219 -44.960938 483.28125 C -45.859375 483.589844 -46.890625 483.703125 -47.976562 483.703125 C -50.542969 483.703125 -53.4375 483.054688 -55.753906 482.734375 C -56.886719 482.605469 -58.039062 482.585938 -59.1875 482.585938 C -59.617188 482.585938 -60.050781 482.585938 -60.484375 482.585938 C -62.0625 482.585938 -63.632812 482.554688 -65.144531 482.234375 C -68.738281 481.457031 -72.335938 477.976562 -76.210938 477.976562 Z M -76.210938 477.988281 " fill-opacity="1" fill-rule="nonzero"/><path fill="#3d5d4b" d="M 739.578125 32.441406 C 734.066406 32.441406 728.875 33.570312 723.503906 34.425781 C 720.074219 35.011719 714.433594 34.925781 712.085938 37.132812 C 707.792969 41.199219 712.714844 42.503906 716.691406 43.8125 C 717.773438 44.171875 718.808594 44.53125 719.535156 44.941406 C 724.230469 47.488281 725.765625 51.519531 731.722656 51.519531 C 732.410156 51.519531 733.160156 51.464844 733.988281 51.347656 C 738.523438 50.699219 740.359375 47.671875 744.574219 47.671875 C 745.347656 47.671875 746.203125 47.769531 747.167969 48.011719 C 753.9375 49.679688 751.503906 55.457031 756.335938 58.480469 C 762.566406 62.402344 774.074219 63.535156 781.527344 65.832031 C 786.808594 67.457031 796.152344 78.421875 802.382812 81.671875 C 813.445312 87.449219 826.175781 91.28125 838.726562 94.664062 C 861.824219 100.921875 883.1875 108.585938 907.628906 108.585938 C 910.515625 108.585938 913.445312 108.480469 916.429688 108.25 C 927.398438 107.433594 937.914062 104.121094 948.878906 104.121094 C 949.425781 104.121094 949.96875 104.125 950.519531 104.144531 C 953.320312 104.191406 956.886719 104.371094 959.011719 105.996094 C 961.722656 108.074219 962.710938 112.3125 961.175781 114.929688 C 959.640625 117.550781 957.519531 121.339844 963.027344 121.878906 C 963.277344 121.898438 963.53125 121.910156 963.78125 121.910156 C 966.070312 121.910156 968.308594 121.105469 970.605469 121.105469 C 970.71875 121.105469 970.820312 121.105469 970.925781 121.109375 C 972.867188 121.199219 974.222656 122.285156 976.117188 122.554688 C 976.949219 122.644531 988.558594 123.277344 989.308594 123.277344 C 989.332031 123.277344 989.347656 123.277344 989.347656 123.277344 C 988.894531 116.691406 991.242188 112.265625 982.667969 109.738281 C 971.425781 106.445312 979.328125 103.691406 982.082031 97.148438 C 983.449219 93.867188 981.3125 93.035156 978.316406 93.035156 C 975.261719 93.035156 971.3125 93.898438 969.261719 93.898438 C 964.207031 93.898438 952.195312 90.605469 958.742188 85.6875 C 961.585938 83.566406 965.195312 83.203125 967.457031 80.226562 C 970.570312 76.164062 968.585938 76.304688 962.671875 75.308594 C 957.886719 74.570312 952.132812 74 947.273438 74 C 947.09375 74 946.914062 74 946.734375 74 C 942.75 74.039062 938.734375 75.359375 934.707031 75.359375 C 934.261719 75.359375 933.8125 75.34375 933.367188 75.308594 C 929.488281 74.992188 925.242188 72.015625 921.585938 70.617188 C 916.082031 68.542969 911.835938 65.292969 905.558594 64.886719 C 904.933594 64.847656 904.316406 64.832031 903.691406 64.832031 C 898.5 64.832031 893.34375 66.042969 888.222656 66.242188 C 879.328125 66.511719 872.332031 66.871094 863.617188 68.902344 C 861.503906 69.386719 859.410156 69.605469 857.328125 69.605469 C 844.109375 69.605469 831.800781 60.609375 823.839844 52.929688 C 818.425781 47.695312 813.050781 43.226562 804.019531 42.460938 C 793.183594 41.511719 781.222656 42.417969 771.015625 39.617188 C 761.398438 37 750.023438 32.441406 739.59375 32.441406 Z M 739.578125 32.441406 " fill-opacity="1" fill-rule="nonzero"/><path fill="#5f6454" d="M 923.550781 36.414062 C 922.015625 36.460938 919.757812 36.460938 918.496094 36.503906 L 917.910156 36.503906 C 917.640625 36.503906 917.371094 36.503906 917.054688 36.550781 C 916.488281 36.550781 915.910156 36.570312 915.339844 36.570312 C 915.054688 36.570312 914.765625 36.566406 914.480469 36.550781 C 913.015625 36.550781 911.554688 36.5 910.101562 36.5 C 908.496094 36.5 906.902344 36.566406 905.316406 36.820312 C 902.339844 37.320312 899.316406 38.535156 896.605469 39.574219 C 892.8125 41.0625 890.058594 42.867188 887.4375 45.394531 C 885.042969 47.695312 879.988281 48.914062 876.285156 49.230469 C 875.191406 49.335938 874.097656 49.375 873 49.375 C 868.394531 49.375 863.804688 48.644531 859.191406 48.644531 C 859.082031 48.644531 858.96875 48.644531 858.859375 48.644531 C 852.496094 48.734375 846.804688 50.671875 841.476562 53.292969 C 839.132812 54.421875 836.828125 55.589844 834.707031 56.902344 C 833.890625 57.402344 831.320312 58.660156 831.367188 59.609375 C 831.421875 60.515625 832.851562 60.8125 834.886719 60.8125 C 838.8125 60.8125 844.984375 59.695312 847.789062 59.695312 C 848.230469 59.695312 848.589844 59.726562 848.839844 59.789062 C 851.863281 60.554688 854.933594 63.398438 851.59375 65.066406 C 848.207031 66.738281 844.417969 67.726562 841.125 69.582031 C 838.464844 71.070312 835.566406 72.378906 833.132812 74.09375 C 827.621094 77.886719 833.492188 79.691406 837.871094 81.226562 C 839.992188 81.996094 841.984375 82.625 844.285156 82.984375 C 845.320312 83.144531 846.304688 83.214844 847.253906 83.214844 C 856.039062 83.214844 861.527344 77.027344 870.246094 75.761719 C 871.796875 75.527344 873.328125 75.4375 874.847656 75.4375 C 879.222656 75.4375 883.507812 76.191406 887.898438 76.527344 C 889.792969 76.664062 891.734375 76.796875 893.539062 77.296875 C 893.992188 77.433594 894.445312 77.566406 894.847656 77.746094 C 898.054688 79.011719 900.808594 79.957031 904.195312 80.816406 C 906.058594 81.269531 909.402344 82.175781 912.101562 82.175781 C 914.507812 82.175781 916.402344 81.457031 916.296875 79.058594 C 916.160156 75.132812 912.5 70.03125 909.617188 66.917969 C 908.171875 65.292969 907.128906 63.804688 906.589844 62.179688 C 906.050781 60.554688 906.003906 58.796875 906.457031 56.8125 C 907.675781 52.972656 910.199219 50.269531 913.449219 48.234375 C 915.390625 47.015625 918.191406 45.347656 920.675781 45.167969 C 921.210938 45.117188 921.765625 45.097656 922.332031 45.097656 C 924.835938 45.097656 927.539062 45.507812 929.933594 45.617188 C 931.882812 45.6875 933.847656 45.734375 935.808594 45.734375 C 940.152344 45.734375 944.5 45.476562 948.664062 44.578125 C 951.375 44.035156 954.21875 42.683594 951.375 40.699219 C 948.753906 38.894531 944.507812 38.257812 941.167969 37.898438 C 936.203125 37.355469 931.417969 37.398438 926.453125 36.679688 C 925.726562 36.589844 925.007812 36.5 924.28125 36.453125 C 924.011719 36.410156 923.785156 36.410156 923.5625 36.410156 Z M 923.550781 36.414062 " fill-opacity="1" fill-rule="nonzero"/><path fill="#2a2d32" d="M 867.597656 54.417969 C 866.015625 54.417969 864.75 54.960938 863.910156 56.226562 C 859.261719 63.128906 879.4375 69.671875 885.582031 73.6875 C 885.761719 73.824219 885.941406 73.957031 886.078125 74.046875 C 894.578125 80.324219 901.859375 86.34375 911.742188 86.34375 C 912.089844 86.34375 912.449219 86.339844 912.804688 86.324219 C 916.328125 86.144531 919.082031 84.15625 921.875 82.671875 C 923.65625 81.707031 925.496094 80.925781 927.566406 80.925781 C 928.023438 80.925781 928.488281 80.960938 928.960938 81.046875 C 932.03125 81.539062 933.882812 82.625 931.492188 84.925781 C 929.6875 86.636719 927.65625 88.128906 926.027344 89.933594 C 924.898438 91.242188 923.632812 92.867188 924.085938 94.488281 C 924.761719 96.789062 928.199219 98.414062 930.632812 99.453125 C 932.875 100.394531 935.667969 101.308594 938.339844 101.308594 C 939 101.308594 939.652344 101.253906 940.292969 101.128906 C 941.785156 100.855469 942.867188 99.996094 944.359375 99.683594 C 945.578125 99.414062 946.890625 99.457031 948.058594 99.054688 C 949.007812 98.738281 949.683594 98.238281 950.769531 98.199219 C 951.640625 98.132812 952.546875 98.089844 953.449219 98.089844 C 954.464844 98.089844 955.480469 98.144531 956.460938 98.285156 C 957.136719 98.375 961.335938 99.324219 961.335938 99.953125 L 961.335938 74.546875 C 956.96875 73.148438 952.621094 72.640625 948.273438 72.640625 C 936.875 72.640625 925.507812 76.128906 914.0625 76.128906 C 912.304688 76.128906 910.546875 76.046875 908.785156 75.859375 C 907.878906 75.769531 906.980469 75.632812 906.03125 75.5 C 905.304688 75.363281 904.496094 75.09375 903.542969 74.683594 C 894.308594 70.679688 876.238281 54.421875 867.589844 54.421875 Z M 867.597656 54.417969 " fill-opacity="1" fill-rule="nonzero"/><path fill="#2a2d32" d="M 48.769531 520.480469 C 46.617188 520.480469 44.109375 521.402344 42.289062 521.652344 C 40.167969 521.96875 39.128906 522.507812 37.234375 523.324219 C 35.609375 524.046875 33.347656 524.09375 31.585938 524.585938 C 28.605469 525.402344 25.671875 526.210938 22.691406 527.117188 C 16.234375 529.054688 9.871094 531.539062 3.054688 532.664062 C 0.164062 533.113281 -2.816406 533.613281 -5.75 534.109375 C -6.15625 534.199219 -5.75 542.050781 -5.75 542.953125 C -5.566406 542.75 -5.007812 542.695312 -4.320312 542.695312 C -3.40625 542.695312 -2.265625 542.792969 -1.511719 542.792969 C -1.316406 542.792969 -1.144531 542.789062 -1.011719 542.769531 C 0.929688 542.542969 2.785156 542.042969 4.679688 541.730469 C 5.945312 541.460938 7.203125 541.003906 8.46875 540.738281 C 8.605469 540.738281 8.738281 540.695312 8.878906 540.695312 C 9.191406 540.640625 9.480469 540.613281 9.757812 540.613281 C 10.609375 540.613281 11.351562 540.832031 12.265625 540.964844 C 13.539062 541.125 15.011719 541.269531 16.484375 541.269531 C 18.300781 541.269531 20.121094 541.050781 21.566406 540.375 C 22.605469 539.925781 23.101562 539.429688 24.410156 539.199219 C 26.035156 538.886719 27.796875 538.839844 29.421875 538.617188 C 35.109375 537.941406 39.21875 535.816406 44.046875 533.699219 C 47.480469 532.253906 53.125 530.179688 53.347656 526.707031 C 53.4375 525.171875 52.808594 522.238281 51.320312 521.160156 C 50.597656 520.660156 49.71875 520.480469 48.769531 520.480469 Z M 48.769531 520.480469 " fill-opacity="1" fill-rule="nonzero"/><g clip-path="url(#10953ee4dc)"><path fill="#2a2d32" d="M 680.359375 50.195312 C 681.894531 50.148438 684.15625 50.148438 685.417969 50.105469 L 686 50.105469 C 686.273438 50.105469 686.542969 50.105469 686.855469 50.058594 C 687.425781 50.058594 688.003906 50.039062 688.570312 50.039062 C 688.855469 50.039062 689.148438 50.042969 689.433594 50.058594 C 690.898438 50.058594 692.359375 50.109375 693.8125 50.109375 C 695.417969 50.109375 697.011719 50.042969 698.597656 49.789062 C 701.574219 49.289062 704.597656 48.074219 707.308594 47.035156 C 711.097656 45.546875 713.855469 43.742188 716.476562 41.210938 C 718.871094 38.914062 723.925781 37.695312 727.625 37.378906 C 728.722656 37.273438 729.816406 37.234375 730.910156 37.234375 C 735.515625 37.234375 740.109375 37.964844 744.722656 37.964844 C 744.832031 37.964844 744.941406 37.964844 745.054688 37.964844 C 751.417969 37.875 757.109375 35.933594 762.433594 33.316406 C 764.78125 32.1875 767.085938 31.015625 769.207031 29.707031 C 770.019531 29.207031 772.589844 27.949219 772.546875 27 C 772.492188 26.09375 771.0625 25.792969 769.027344 25.792969 C 765.101562 25.792969 758.929688 26.914062 756.125 26.914062 C 755.683594 26.914062 755.324219 26.882812 755.074219 26.820312 C 752.046875 26.054688 748.980469 23.210938 752.320312 21.542969 C 755.703125 19.871094 759.496094 18.882812 762.789062 17.027344 C 765.449219 15.539062 768.34375 14.230469 770.78125 12.515625 C 776.292969 8.722656 770.421875 6.917969 766.039062 5.382812 C 763.921875 4.613281 761.929688 3.984375 759.628906 3.625 C 758.59375 3.464844 757.609375 3.394531 756.660156 3.394531 C 747.875 3.394531 742.386719 9.582031 733.667969 10.847656 C 732.117188 11.082031 730.585938 11.171875 729.066406 11.171875 C 724.691406 11.171875 720.40625 10.414062 716.015625 10.082031 C 714.121094 9.945312 712.179688 9.8125 710.375 9.3125 C 709.917969 9.175781 709.46875 9.042969 709.0625 8.863281 C 705.859375 7.597656 703.105469 6.652344 699.71875 5.792969 C 697.851562 5.339844 694.511719 4.433594 691.8125 4.433594 C 689.40625 4.433594 687.511719 5.152344 687.617188 7.550781 C 687.753906 11.476562 691.414062 16.578125 694.296875 19.691406 C 695.742188 21.316406 696.78125 22.804688 697.324219 24.429688 C 697.863281 26.054688 697.90625 27.8125 697.457031 29.796875 C 696.238281 33.636719 693.710938 36.339844 690.460938 38.375 C 688.523438 39.59375 685.722656 41.261719 683.238281 41.441406 C 682.703125 41.492188 682.144531 41.511719 681.582031 41.511719 C 679.074219 41.511719 676.375 41.101562 673.980469 40.992188 C 672.03125 40.921875 670.066406 40.871094 668.105469 40.871094 C 663.757812 40.871094 659.414062 41.132812 655.25 42.03125 C 652.539062 42.570312 649.691406 43.925781 652.539062 45.910156 C 655.160156 47.714844 659.402344 48.351562 662.746094 48.710938 C 667.710938 49.253906 672.496094 49.210938 677.460938 49.929688 C 678.1875 50.019531 678.90625 50.109375 679.632812 50.152344 C 679.902344 50.199219 680.125 50.199219 680.351562 50.199219 Z M 680.359375 50.195312 " fill-opacity="1" fill-rule="nonzero"/></g><path fill="#5f6454" d="M 325.828125 604.144531 C 327.363281 604.097656 329.625 604.097656 330.882812 604.054688 L 331.46875 604.054688 C 331.738281 604.054688 332.007812 604.054688 332.324219 604.007812 C 332.894531 604.007812 333.46875 603.988281 334.039062 603.988281 C 334.324219 603.988281 334.613281 603.992188 334.898438 604.007812 C 336.363281 604.007812 337.824219 604.058594 339.28125 604.058594 C 340.886719 604.058594 342.480469 603.992188 344.066406 603.738281 C 347.039062 603.238281 350.066406 602.023438 352.777344 600.984375 C 356.566406 599.496094 359.320312 597.691406 361.941406 595.160156 C 364.335938 592.863281 369.394531 591.644531 373.09375 591.328125 C 374.1875 591.222656 375.285156 591.183594 376.378906 591.183594 C 380.984375 591.183594 385.574219 591.914062 390.191406 591.914062 C 390.300781 591.914062 390.410156 591.914062 390.519531 591.914062 C 396.886719 591.824219 402.578125 589.882812 407.902344 587.265625 C 410.246094 586.136719 412.554688 584.964844 414.671875 583.65625 C 415.488281 583.15625 418.058594 581.898438 418.011719 580.949219 C 417.957031 580.042969 416.527344 579.742188 414.492188 579.742188 C 410.566406 579.742188 404.398438 580.863281 401.589844 580.863281 C 401.152344 580.863281 400.792969 580.832031 400.542969 580.769531 C 397.515625 580.003906 394.445312 577.160156 397.785156 575.488281 C 401.171875 573.820312 404.960938 572.832031 408.257812 570.976562 C 410.917969 569.488281 413.8125 568.179688 416.25 566.464844 C 421.757812 562.671875 415.886719 560.867188 411.507812 559.332031 C 409.386719 558.5625 407.398438 557.933594 405.097656 557.574219 C 404.0625 557.414062 403.078125 557.34375 402.125 557.34375 C 393.339844 557.34375 387.855469 563.53125 379.132812 564.792969 C 377.585938 565.03125 376.054688 565.121094 374.535156 565.121094 C 370.160156 565.121094 365.871094 564.363281 361.480469 564.03125 C 359.585938 563.894531 357.648438 563.761719 355.839844 563.261719 C 355.386719 563.125 354.9375 562.992188 354.53125 562.8125 C 351.328125 561.546875 348.570312 560.601562 345.1875 559.742188 C 343.320312 559.285156 339.980469 558.382812 337.28125 558.382812 C 334.875 558.382812 332.980469 559.101562 333.085938 561.5 C 333.21875 565.425781 336.878906 570.527344 339.765625 573.640625 C 341.210938 575.265625 342.25 576.753906 342.789062 578.378906 C 343.332031 580.003906 343.375 581.761719 342.925781 583.746094 C 341.707031 587.585938 339.179688 590.289062 335.929688 592.324219 C 333.988281 593.542969 331.1875 595.210938 328.703125 595.390625 C 328.167969 595.441406 327.613281 595.460938 327.046875 595.460938 C 324.542969 595.460938 321.84375 595.050781 319.449219 594.941406 C 317.496094 594.871094 315.53125 594.820312 313.570312 594.820312 C 309.226562 594.820312 304.882812 595.082031 300.714844 595.980469 C 298.003906 596.519531 295.160156 597.875 298.003906 599.859375 C 300.625 601.664062 304.871094 602.296875 308.210938 602.660156 C 313.175781 603.203125 317.960938 603.160156 322.929688 603.878906 C 323.652344 603.96875 324.375 604.058594 325.097656 604.101562 C 325.367188 604.148438 325.59375 604.148438 325.820312 604.148438 Z M 325.828125 604.144531 " fill-opacity="1" fill-rule="nonzero"/></svg>