<svg xmlns="http://www.w3.org/2000/svg" xmlns:xlink="http://www.w3.org/1999/xlink" width="1280" zoomAndPan="magnify" viewBox="0 0 960 599.999999" height="800" preserveAspectRatio="xMidYMid meet" version="1.0"><defs><linearGradient x1="640" gradientTransform="matrix(0.75, 0, 0, 0.75, 0.00000048, 0.00002)" y1="0" x2="640" gradientUnits="userSpaceOnUse" y2="799.999967" id="ae839248d3"><stop stop-opacity="1" stop-color="rgb(49.398804%, 66.699219%, 56.898499%)" offset="0"/><stop stop-opacity="1" stop-color="rgb(49.539185%, 66.75415%, 56.97937%)" offset="0.0078125"/><stop stop-opacity="1" stop-color="rgb(49.821472%, 66.867065%, 57.141113%)" offset="0.015625"/><stop stop-opacity="1" stop-color="rgb(50.10376%, 66.978455%, 57.302856%)" offset="0.0234375"/><stop stop-opacity="1" stop-color="rgb(50.384521%, 67.089844%, 57.4646%)" offset="0.03125"/><stop stop-opacity="1" stop-color="rgb(50.666809%, 67.202759%, 57.626343%)" offset="0.0390625"/><stop stop-opacity="1" stop-color="rgb(50.949097%, 67.314148%, 57.788086%)" offset="0.046875"/><stop stop-opacity="1" stop-color="rgb(51.231384%, 67.425537%, 57.949829%)" offset="0.0546875"/><stop stop-opacity="1" stop-color="rgb(51.512146%, 67.538452%, 58.110046%)" offset="0.0625"/><stop stop-opacity="1" stop-color="rgb(51.794434%, 67.649841%, 58.27179%)" offset="0.0703125"/><stop stop-opacity="1" stop-color="rgb(52.076721%, 67.76123%, 58.433533%)" offset="0.078125"/><stop stop-opacity="1" stop-color="rgb(52.359009%, 67.874146%, 58.595276%)" offset="0.0859375"/><stop stop-opacity="1" stop-color="rgb(52.639771%, 67.985535%, 58.757019%)" offset="0.09375"/><stop stop-opacity="1" stop-color="rgb(52.922058%, 68.096924%, 58.918762%)" offset="0.101562"/><stop stop-opacity="1" stop-color="rgb(53.204346%, 68.209839%, 59.080505%)" offset="0.109375"/><stop stop-opacity="1" stop-color="rgb(53.486633%, 68.321228%, 59.240723%)" offset="0.117188"/><stop stop-opacity="1" stop-color="rgb(53.767395%, 68.432617%, 59.402466%)" offset="0.125"/><stop stop-opacity="1" stop-color="rgb(54.049683%, 68.545532%, 59.564209%)" offset="0.132812"/><stop stop-opacity="1" stop-color="rgb(54.33197%, 68.656921%, 59.725952%)" offset="0.140625"/><stop stop-opacity="1" stop-color="rgb(54.614258%, 68.768311%, 59.887695%)" offset="0.148438"/><stop stop-opacity="1" stop-color="rgb(54.89502%, 68.881226%, 60.049438%)" offset="0.15625"/><stop stop-opacity="1" stop-color="rgb(55.177307%, 68.992615%, 60.211182%)" offset="0.164062"/><stop stop-opacity="1" stop-color="rgb(55.459595%, 69.10553%, 60.371399%)" offset="0.171875"/><stop stop-opacity="1" stop-color="rgb(55.740356%, 69.216919%, 60.533142%)" offset="0.179688"/><stop stop-opacity="1" stop-color="rgb(56.022644%, 69.328308%, 60.694885%)" offset="0.1875"/><stop stop-opacity="1" stop-color="rgb(56.304932%, 69.441223%, 60.856628%)" offset="0.195312"/><stop stop-opacity="1" stop-color="rgb(56.587219%, 69.552612%, 61.018372%)" offset="0.203125"/><stop stop-opacity="1" stop-color="rgb(56.867981%, 69.664001%, 61.180115%)" offset="0.210938"/><stop stop-opacity="1" stop-color="rgb(57.150269%, 69.776917%, 61.341858%)" offset="0.21875"/><stop stop-opacity="1" stop-color="rgb(57.432556%, 69.888306%, 61.502075%)" offset="0.226562"/><stop stop-opacity="1" stop-color="rgb(57.714844%, 69.999695%, 61.663818%)" offset="0.234375"/><stop stop-opacity="1" stop-color="rgb(57.995605%, 70.11261%, 61.825562%)" offset="0.242188"/><stop stop-opacity="1" stop-color="rgb(58.277893%, 70.223999%, 61.987305%)" offset="0.25"/><stop stop-opacity="1" stop-color="rgb(58.560181%, 70.335388%, 62.149048%)" offset="0.257812"/><stop stop-opacity="1" stop-color="rgb(58.842468%, 70.448303%, 62.310791%)" offset="0.265625"/><stop stop-opacity="1" stop-color="rgb(59.12323%, 70.559692%, 62.472534%)" offset="0.273438"/><stop stop-opacity="1" stop-color="rgb(59.405518%, 70.671082%, 62.632751%)" offset="0.28125"/><stop stop-opacity="1" stop-color="rgb(59.687805%, 70.783997%, 62.794495%)" offset="0.289062"/><stop stop-opacity="1" stop-color="rgb(59.968567%, 70.895386%, 62.956238%)" offset="0.296875"/><stop stop-opacity="1" stop-color="rgb(60.250854%, 71.006775%, 63.117981%)" offset="0.304688"/><stop stop-opacity="1" stop-color="rgb(60.533142%, 71.11969%, 63.279724%)" offset="0.3125"/><stop stop-opacity="1" stop-color="rgb(60.81543%, 71.231079%, 63.441467%)" offset="0.320312"/><stop stop-opacity="1" stop-color="rgb(61.096191%, 71.342468%, 63.60321%)" offset="0.328125"/><stop stop-opacity="1" stop-color="rgb(61.378479%, 71.455383%, 63.763428%)" offset="0.335938"/><stop stop-opacity="1" stop-color="rgb(61.660767%, 71.566772%, 63.925171%)" offset="0.34375"/><stop stop-opacity="1" stop-color="rgb(61.943054%, 71.678162%, 64.086914%)" offset="0.351562"/><stop stop-opacity="1" stop-color="rgb(62.223816%, 71.791077%, 64.248657%)" offset="0.359375"/><stop stop-opacity="1" stop-color="rgb(62.506104%, 71.902466%, 64.4104%)" offset="0.367188"/><stop stop-opacity="1" stop-color="rgb(62.788391%, 72.013855%, 64.572144%)" offset="0.375"/><stop stop-opacity="1" stop-color="rgb(63.070679%, 72.12677%, 64.733887%)" offset="0.382812"/><stop stop-opacity="1" stop-color="rgb(63.35144%, 72.238159%, 64.894104%)" offset="0.390625"/><stop stop-opacity="1" stop-color="rgb(63.633728%, 72.349548%, 65.055847%)" offset="0.398438"/><stop stop-opacity="1" stop-color="rgb(63.916016%, 72.462463%, 65.21759%)" offset="0.40625"/><stop stop-opacity="1" stop-color="rgb(64.198303%, 72.573853%, 65.379333%)" offset="0.414062"/><stop stop-opacity="1" stop-color="rgb(64.479065%, 72.685242%, 65.541077%)" offset="0.421875"/><stop stop-opacity="1" stop-color="rgb(64.761353%, 72.798157%, 65.70282%)" offset="0.429688"/><stop stop-opacity="1" stop-color="rgb(65.04364%, 72.909546%, 65.864563%)" offset="0.4375"/><stop stop-opacity="1" stop-color="rgb(65.324402%, 73.020935%, 66.02478%)" offset="0.445312"/><stop stop-opacity="1" stop-color="rgb(65.606689%, 73.13385%, 66.186523%)" offset="0.453125"/><stop stop-opacity="1" stop-color="rgb(65.888977%, 73.245239%, 66.348267%)" offset="0.460938"/><stop stop-opacity="1" stop-color="rgb(66.171265%, 73.356628%, 66.51001%)" offset="0.46875"/><stop stop-opacity="1" stop-color="rgb(66.452026%, 73.469543%, 66.671753%)" offset="0.476562"/><stop stop-opacity="1" stop-color="rgb(66.734314%, 73.580933%, 66.833496%)" offset="0.484375"/><stop stop-opacity="1" stop-color="rgb(67.016602%, 73.692322%, 66.995239%)" offset="0.492188"/><stop stop-opacity="1" stop-color="rgb(67.298889%, 73.805237%, 67.155457%)" offset="0.5"/><stop stop-opacity="1" stop-color="rgb(67.579651%, 73.916626%, 67.3172%)" offset="0.507812"/><stop stop-opacity="1" stop-color="rgb(67.861938%, 74.028015%, 67.478943%)" offset="0.515625"/><stop stop-opacity="1" stop-color="rgb(68.144226%, 74.14093%, 67.640686%)" offset="0.523438"/><stop stop-opacity="1" stop-color="rgb(68.426514%, 74.252319%, 67.802429%)" offset="0.53125"/><stop stop-opacity="1" stop-color="rgb(68.707275%, 74.365234%, 67.964172%)" offset="0.539062"/><stop stop-opacity="1" stop-color="rgb(68.989563%, 74.476624%, 68.125916%)" offset="0.546875"/><stop stop-opacity="1" stop-color="rgb(69.271851%, 74.588013%, 68.287659%)" offset="0.554688"/><stop stop-opacity="1" stop-color="rgb(69.552612%, 74.700928%, 68.447876%)" offset="0.5625"/><stop stop-opacity="1" stop-color="rgb(69.8349%, 74.812317%, 68.609619%)" offset="0.570312"/><stop stop-opacity="1" stop-color="rgb(70.117188%, 74.923706%, 68.771362%)" offset="0.578125"/><stop stop-opacity="1" stop-color="rgb(70.399475%, 75.036621%, 68.933105%)" offset="0.585938"/><stop stop-opacity="1" stop-color="rgb(70.680237%, 75.14801%, 69.094849%)" offset="0.59375"/><stop stop-opacity="1" stop-color="rgb(70.962524%, 75.259399%, 69.256592%)" offset="0.601562"/><stop stop-opacity="1" stop-color="rgb(71.244812%, 75.372314%, 69.418335%)" offset="0.609375"/><stop stop-opacity="1" stop-color="rgb(71.5271%, 75.483704%, 69.578552%)" offset="0.617188"/><stop stop-opacity="1" stop-color="rgb(71.807861%, 75.595093%, 69.740295%)" offset="0.625"/><stop stop-opacity="1" stop-color="rgb(72.090149%, 75.708008%, 69.902039%)" offset="0.632812"/><stop stop-opacity="1" stop-color="rgb(72.372437%, 75.819397%, 70.063782%)" offset="0.640625"/><stop stop-opacity="1" stop-color="rgb(72.654724%, 75.930786%, 70.225525%)" offset="0.648438"/><stop stop-opacity="1" stop-color="rgb(72.935486%, 76.043701%, 70.387268%)" offset="0.65625"/><stop stop-opacity="1" stop-color="rgb(73.217773%, 76.15509%, 70.549011%)" offset="0.664062"/><stop stop-opacity="1" stop-color="rgb(73.500061%, 76.266479%, 70.709229%)" offset="0.671875"/><stop stop-opacity="1" stop-color="rgb(73.782349%, 76.379395%, 70.870972%)" offset="0.679688"/><stop stop-opacity="1" stop-color="rgb(74.06311%, 76.490784%, 71.032715%)" offset="0.6875"/><stop stop-opacity="1" stop-color="rgb(74.345398%, 76.602173%, 71.194458%)" offset="0.695312"/><stop stop-opacity="1" stop-color="rgb(74.627686%, 76.715088%, 71.356201%)" offset="0.703125"/><stop stop-opacity="1" stop-color="rgb(74.908447%, 76.826477%, 71.517944%)" offset="0.710938"/><stop stop-opacity="1" stop-color="rgb(75.190735%, 76.937866%, 71.679688%)" offset="0.71875"/><stop stop-opacity="1" stop-color="rgb(75.473022%, 77.050781%, 71.839905%)" offset="0.726562"/><stop stop-opacity="1" stop-color="rgb(75.75531%, 77.16217%, 72.001648%)" offset="0.734375"/><stop stop-opacity="1" stop-color="rgb(75.996399%, 77.258301%, 72.140503%)" offset="0.75"/><stop stop-opacity="1" stop-color="rgb(76.098633%, 77.2995%, 72.198486%)" offset="0.8125"/><stop stop-opacity="1" stop-color="rgb(76.098633%, 77.2995%, 72.198486%)" offset="0.828125"/><stop stop-opacity="1" stop-color="rgb(76.234436%, 77.427673%, 72.363281%)" offset="0.835938"/><stop stop-opacity="1" stop-color="rgb(76.550293%, 77.726746%, 72.743225%)" offset="0.839844"/><stop stop-opacity="1" stop-color="rgb(76.730347%, 77.897644%, 72.9599%)" offset="0.84375"/><stop stop-opacity="1" stop-color="rgb(76.908875%, 78.067017%, 73.175049%)" offset="0.847656"/><stop stop-opacity="1" stop-color="rgb(77.088928%, 78.237915%, 73.391724%)" offset="0.851562"/><stop stop-opacity="1" stop-color="rgb(77.267456%, 78.407288%, 73.606873%)" offset="0.855469"/><stop stop-opacity="1" stop-color="rgb(77.44751%, 78.578186%, 73.823547%)" offset="0.859375"/><stop stop-opacity="1" stop-color="rgb(77.626038%, 78.747559%, 74.038696%)" offset="0.863281"/><stop stop-opacity="1" stop-color="rgb(77.806091%, 78.918457%, 74.255371%)" offset="0.867188"/><stop stop-opacity="1" stop-color="rgb(77.984619%, 79.08783%, 74.47052%)" offset="0.871094"/><stop stop-opacity="1" stop-color="rgb(78.164673%, 79.258728%, 74.687195%)" offset="0.875"/><stop stop-opacity="1" stop-color="rgb(78.343201%, 79.428101%, 74.902344%)" offset="0.878906"/><stop stop-opacity="1" stop-color="rgb(78.521729%, 79.597473%, 75.119019%)" offset="0.882812"/><stop stop-opacity="1" stop-color="rgb(78.700256%, 79.766846%, 75.334167%)" offset="0.886719"/><stop stop-opacity="1" stop-color="rgb(78.88031%, 79.937744%, 75.550842%)" offset="0.890625"/><stop stop-opacity="1" stop-color="rgb(79.058838%, 80.107117%, 75.765991%)" offset="0.894531"/><stop stop-opacity="1" stop-color="rgb(79.238892%, 80.278015%, 75.982666%)" offset="0.898438"/><stop stop-opacity="1" stop-color="rgb(79.417419%, 80.447388%, 76.199341%)" offset="0.902344"/><stop stop-opacity="1" stop-color="rgb(79.597473%, 80.618286%, 76.416016%)" offset="0.90625"/><stop stop-opacity="1" stop-color="rgb(79.776001%, 80.787659%, 76.631165%)" offset="0.910156"/><stop stop-opacity="1" stop-color="rgb(79.956055%, 80.958557%, 76.847839%)" offset="0.914062"/><stop stop-opacity="1" stop-color="rgb(80.134583%, 81.12793%, 77.062988%)" offset="0.917969"/><stop stop-opacity="1" stop-color="rgb(80.314636%, 81.298828%, 77.279663%)" offset="0.921875"/><stop stop-opacity="1" stop-color="rgb(80.493164%, 81.468201%, 77.494812%)" offset="0.925781"/><stop stop-opacity="1" stop-color="rgb(80.673218%, 81.639099%, 77.711487%)" offset="0.929688"/><stop stop-opacity="1" stop-color="rgb(80.851746%, 81.808472%, 77.926636%)" offset="0.933594"/><stop stop-opacity="1" stop-color="rgb(81.031799%, 81.97937%, 78.143311%)" offset="0.9375"/><stop stop-opacity="1" stop-color="rgb(81.210327%, 82.148743%, 78.358459%)" offset="0.941406"/><stop stop-opacity="1" stop-color="rgb(81.390381%, 82.318115%, 78.575134%)" offset="0.945312"/><stop stop-opacity="1" stop-color="rgb(81.568909%, 82.487488%, 78.790283%)" offset="0.949219"/><stop stop-opacity="1" stop-color="rgb(81.748962%, 82.658386%, 79.006958%)" offset="0.953125"/><stop stop-opacity="1" stop-color="rgb(81.92749%, 82.827759%, 79.222107%)" offset="0.957031"/><stop stop-opacity="1" stop-color="rgb(82.107544%, 82.998657%, 79.438782%)" offset="0.960938"/><stop stop-opacity="1" stop-color="rgb(82.286072%, 83.16803%, 79.653931%)" offset="0.964844"/><stop stop-opacity="1" stop-color="rgb(82.466125%, 83.338928%, 79.870605%)" offset="0.96875"/><stop stop-opacity="1" stop-color="rgb(82.644653%, 83.508301%, 80.08728%)" offset="0.972656"/><stop stop-opacity="1" stop-color="rgb(82.823181%, 83.679199%, 80.303955%)" offset="0.976562"/><stop stop-opacity="1" stop-color="rgb(83.001709%, 83.848572%, 80.519104%)" offset="0.980469"/><stop stop-opacity="1" stop-color="rgb(83.181763%, 84.01947%, 80.735779%)" offset="0.984375"/><stop stop-opacity="1" stop-color="rgb(83.360291%, 84.188843%, 80.950928%)" offset="0.988281"/><stop stop-opacity="1" stop-color="rgb(83.540344%, 84.359741%, 81.167603%)" offset="0.992188"/><stop stop-opacity="1" stop-color="rgb(83.718872%, 84.529114%, 81.382751%)" offset="0.996094"/><stop stop-opacity="1" stop-color="rgb(83.898926%, 84.698486%, 81.599426%)" offset="1"/></linearGradient></defs><rect x="-96" width="1152" fill="#ffffff" y="-60" height="719.999999" fill-opacity="1"/><rect x="-96" fill="url(#ae839248d3)" width="1152" y="-60" height="719.999999"/><path fill="#3d5d4b" d="M 802.914062 561.25 C 801.558594 561.25 800.144531 561.328125 798.660156 561.484375 C 784.4375 562.972656 778.207031 572.898438 766.15625 576.828125 C 764.308594 577.425781 762.441406 577.660156 760.535156 577.660156 C 754.363281 577.660156 747.832031 575.152344 740.691406 574.117188 C 738.246094 573.769531 735.972656 573.605469 733.851562 573.605469 C 713.84375 573.605469 707.367188 588.21875 697.980469 599.070312 C 692.214844 605.765625 685.1875 607.613281 677.078125 607.613281 C 667.523438 607.613281 656.464844 605.042969 644.207031 604.800781 C 644.035156 604.800781 643.859375 604.792969 643.671875 604.792969 C 629.863281 604.792969 599.46875 613.308594 609.847656 629.386719 C 617.46875 641.273438 644.558594 644.300781 657.800781 644.300781 C 658.984375 644.300781 660.066406 644.277344 661.007812 644.230469 C 683.484375 643.085938 700.066406 634.246094 723.523438 634.246094 C 724.09375 634.246094 724.667969 634.25 725.25 634.261719 C 732.6875 634.425781 740.660156 635.304688 748.144531 635.304688 C 753.109375 635.304688 757.859375 634.914062 762.089844 633.675781 C 778.160156 628.984375 782.226562 615.265625 788.773438 603.945312 C 792.464844 597.574219 796.835938 594.96875 801.296875 594.96875 C 807.261719 594.96875 813.398438 599.625 818.300781 606.160156 C 825.027344 615.09375 829.273438 620.148438 842.5 623.394531 C 854.691406 626.375 870.3125 631.695312 882.867188 632.328125 C 883.527344 632.363281 884.171875 632.382812 884.816406 632.382812 C 901.394531 632.382812 913.21875 620.90625 924.085938 612.519531 C 933.316406 605.378906 942.117188 603.496094 952.082031 603.496094 C 957.222656 603.496094 962.671875 603.996094 968.648438 604.535156 C 969.777344 604.632812 970.859375 604.679688 971.894531 604.679688 C 989.160156 604.679688 994.101562 591.511719 1009.007812 587.34375 C 1014.511719 585.808594 1026.074219 588.242188 1028.421875 583.324219 C 1033.476562 572.765625 998.53125 566.992188 990.628906 566.585938 C 990.148438 566.566406 989.683594 566.558594 989.230469 566.558594 C 975.402344 566.558594 971.066406 576.3125 958.511719 576.3125 C 956.164062 576.3125 953.53125 575.972656 950.496094 575.164062 C 939.023438 572.066406 922.351562 567.410156 909.675781 567.410156 C 905.1875 567.410156 901.203125 567.996094 898.121094 569.429688 C 885.257812 575.421875 877.058594 594.605469 861.621094 594.605469 C 854.851562 594.605469 846.691406 590.910156 836.132812 580.800781 C 824.9375 570.066406 817.523438 561.253906 802.921875 561.253906 Z M 802.914062 561.25 " fill-opacity="1" fill-rule="nonzero"/><path fill="#5f6454" d="M 707.191406 606.539062 C 706.332031 606.863281 705.453125 607.234375 704.546875 607.65625 C 706.621094 624.085938 723.195312 619.019531 736.417969 619.164062 C 767.816406 619.421875 794.257812 630.988281 827.375 627.46875 C 834.78125 626.683594 840.796875 624.996094 846.285156 622.929688 C 853.695312 620.148438 860.164062 616.679688 867.828125 613.800781 C 869.855469 613.039062 871.964844 612.316406 874.195312 611.667969 C 890.886719 606.792969 903.632812 616.707031 920.003906 617.792969 C 925.425781 618.152344 930.257812 617.421875 934.132812 615.964844 C 945.863281 611.554688 948.890625 600.511719 933.273438 592.898438 C 928.308594 590.476562 922.796875 588.640625 917.261719 587.007812 C 913.320312 585.882812 909.679688 583.394531 905.75 582.558594 C 902.207031 581.863281 896.871094 584.734375 896.960938 579.976562 C 898.207031 579.285156 899.382812 578.742188 900.507812 578.320312 C 909.09375 575.097656 914.644531 578.992188 923.707031 579.382812 C 938.304688 579.972656 953.253906 580.867188 968.207031 576.257812 C 968.65625 576.121094 969.117188 575.96875 969.582031 575.792969 C 974.316406 574.015625 979.785156 570.160156 980.417969 565.886719 C 980.617188 564.746094 980.6875 563.277344 979.953125 562.347656 C 979.308594 561.53125 978.421875 561.621094 977.386719 561.289062 C 974.582031 560.363281 973.121094 558.019531 970.027344 557.496094 C 968.074219 557.171875 965.65625 558.316406 963.632812 558.695312 C 962.5 558.910156 961.457031 559.0625 960.339844 559.476562 C 960.167969 559.539062 959.992188 559.617188 959.8125 559.695312 C 958.628906 560.238281 957.636719 560.691406 956.601562 561.074219 C 955.65625 561.429688 954.679688 561.734375 953.496094 562.019531 C 949.214844 562.949219 943.4375 564.007812 942.253906 560.214844 C 949.976562 555.097656 949.839844 550.375 940.382812 551.902344 C 939.179688 552.089844 938.082031 552.394531 937.0625 552.773438 C 932.527344 554.476562 929.550781 557.800781 925.726562 559.871094 C 925.03125 560.246094 924.347656 560.558594 923.667969 560.816406 C 915.675781 563.820312 908.800781 558.820312 901.0625 559.0625 C 892.335938 559.269531 881.847656 562.292969 872.734375 565.71875 C 870.667969 566.492188 868.675781 567.292969 866.785156 568.082031 C 853.886719 573.5 842.742188 580.851562 829.398438 585.863281 C 823.738281 587.992188 817.683594 589.695312 810.925781 590.652344 C 801.960938 591.945312 792.71875 597.007812 783.753906 597.53125 C 772.890625 598.140625 773.351562 593.730469 766.699219 591.695312 C 759.558594 589.511719 767.144531 586.851562 755.898438 589.148438 C 755.375 589.257812 754.839844 589.417969 754.296875 589.617188 C 749.546875 591.402344 744.3125 596.492188 740.363281 598.886719 C 738.191406 600.210938 736.167969 601.1875 734.242188 601.910156 C 724.453125 605.589844 717.324219 602.742188 707.1875 606.546875 Z M 707.191406 606.539062 " fill-opacity="1" fill-rule="nonzero"/><path fill="#3d5d4b" d="M 39.84375 557.519531 C 39.683594 557.550781 39.523438 557.585938 39.363281 557.632812 C 29.355469 560.339844 43.078125 561.878906 46.332031 562.308594 C 53.089844 563.203125 59.039062 562.9375 65.175781 564.226562 C 66.144531 565.84375 67.796875 565.675781 71.800781 566.828125 C 73.257812 567.25 74.511719 567.785156 75.683594 568.339844 C 77.09375 569.152344 78.40625 569.929688 79.824219 570.519531 L 78.78125 569.867188 C 81.363281 571.074219 83.953125 571.914062 87.929688 571.148438 C 88.464844 571.046875 89.023438 570.914062 89.613281 570.75 C 90.574219 570.480469 91.5625 570.246094 92.589844 570.046875 C 108.246094 567.027344 131.007812 572.519531 141.464844 579.734375 C 158.074219 591.242188 190.816406 602.945312 215.03125 600.941406 C 216.371094 600.832031 217.582031 600.667969 218.6875 600.453125 C 225.417969 599.15625 228.386719 596.144531 234.832031 593.953125 C 237.082031 593.179688 239.269531 592.601562 241.390625 592.191406 C 265.679688 587.511719 282.21875 605.25 307.902344 612.132812 C 328.109375 617.535156 344.769531 617.070312 359.984375 614.136719 C 381.910156 609.910156 400.832031 600.570312 423.070312 596.289062 C 429.792969 594.992188 436.824219 594.160156 444.332031 594.070312 C 451.183594 594 461.738281 593.75 469.910156 592.175781 C 482.480469 589.75 489.421875 584.195312 468.636719 571.328125 C 458.582031 565.082031 449.648438 564.253906 441.300781 565.863281 C 427.445312 568.53125 415.222656 577.925781 402.277344 580.421875 C 401.171875 580.636719 400.054688 580.796875 398.941406 580.902344 C 371.480469 583.347656 345.792969 574.3125 318.523438 579.566406 C 317.558594 579.75 316.59375 579.957031 315.625 580.175781 C 314.429688 580.445312 313.238281 580.699219 312.050781 580.929688 C 300.074219 583.238281 288.300781 583.429688 276.496094 582.066406 C 264.257812 580.605469 253.347656 576.003906 241.417969 574.714844 C 237.667969 574.332031 232.757812 576.289062 229.058594 575.214844 C 226.824219 574.589844 226.761719 572.625 224.414062 572.109375 C 223.601562 571.941406 222.582031 572.078125 221.523438 572.285156 C 220.992188 572.382812 220.453125 572.503906 219.925781 572.609375 C 219.136719 572.765625 218.371094 572.878906 217.707031 572.855469 C 211.835938 572.699219 203.621094 573.222656 200.277344 569.269531 C 195.757812 563.9375 195.742188 558.152344 187.082031 555.6875 C 186.886719 555.632812 186.691406 555.582031 186.542969 555.515625 C 179.75 553.804688 172.570312 551.167969 166.089844 552.417969 C 163.992188 552.824219 161.96875 553.632812 160.054688 555.011719 C 155.746094 558.160156 151.136719 560.125 145.953125 561.125 C 143.226562 561.648438 140.335938 561.910156 137.25 561.933594 C 132.46875 561.933594 128.5625 559.796875 123.703125 560.363281 C 123.167969 560.421875 122.648438 560.5 122.144531 560.59375 C 119.121094 561.175781 116.511719 562.390625 113.652344 562.945312 C 112.28125 563.207031 110.855469 563.320312 109.296875 563.140625 C 105.730469 562.769531 103.144531 560.09375 99.660156 559.894531 C 99.035156 559.867188 98.441406 559.914062 97.859375 560.03125 C 95.710938 560.445312 93.804688 561.640625 91.664062 562.054688 C 90.910156 562.199219 90.125 562.25 89.289062 562.128906 C 87.964844 561.925781 82.757812 559.019531 81.914062 558.222656 C 80.246094 556.75 81.90625 552.707031 80.257812 551.554688 C 79.132812 550.789062 78.207031 550.585938 77.417969 550.738281 C 74.835938 551.238281 73.675781 555.5625 71.527344 556.820312 C 70.703125 557.296875 69.710938 557.605469 68.644531 557.8125 C 66.125 558.296875 63.160156 558.207031 60.832031 558.332031 C 59.695312 558.414062 58.558594 558.617188 57.429688 558.835938 C 57.003906 558.914062 56.585938 559 56.160156 559.082031 C 54.609375 559.378906 53.0625 559.644531 51.519531 559.621094 C 47.839844 559.535156 43.652344 556.796875 39.847656 557.53125 Z M 39.84375 557.519531 " fill-opacity="1" fill-rule="nonzero"/><path fill="#2a2d32" d="M 451.988281 564.644531 C 450.632812 564.644531 449.21875 564.722656 447.730469 564.878906 C 433.511719 566.367188 427.28125 576.292969 415.226562 580.222656 C 413.382812 580.820312 411.511719 581.054688 409.605469 581.054688 C 403.4375 581.054688 396.90625 578.546875 389.765625 577.511719 C 387.320312 577.164062 385.042969 576.996094 382.921875 576.996094 C 362.914062 576.996094 356.441406 591.609375 347.054688 602.464844 C 341.289062 609.15625 334.261719 611.007812 326.152344 611.007812 C 316.59375 611.007812 305.539062 608.4375 293.28125 608.191406 C 293.105469 608.191406 292.929688 608.1875 292.746094 608.1875 C 278.933594 608.1875 248.539062 616.703125 258.921875 632.78125 C 266.542969 644.664062 293.632812 647.695312 306.875 647.695312 C 308.058594 647.695312 309.140625 647.667969 310.078125 647.625 C 332.558594 646.480469 349.140625 637.640625 372.597656 637.640625 C 373.167969 637.640625 373.742188 637.644531 374.324219 637.652344 C 381.757812 637.820312 389.734375 638.699219 397.214844 638.699219 C 402.179688 638.699219 406.933594 638.308594 411.164062 637.070312 C 427.234375 632.375 431.300781 618.65625 437.847656 607.339844 C 441.535156 600.964844 445.90625 598.363281 450.367188 598.363281 C 456.332031 598.363281 462.46875 603.019531 467.375 609.550781 C 474.101562 618.488281 478.347656 623.539062 491.574219 626.789062 C 503.765625 629.769531 519.386719 635.089844 531.9375 635.71875 C 532.597656 635.753906 533.242188 635.773438 533.890625 635.773438 C 550.464844 635.773438 562.292969 624.300781 573.160156 615.914062 C 582.390625 608.773438 591.191406 606.886719 601.152344 606.886719 C 606.292969 606.886719 611.746094 607.386719 617.71875 607.929688 C 618.851562 608.027344 619.929688 608.074219 620.964844 608.074219 C 638.234375 608.074219 643.171875 594.902344 658.082031 590.734375 C 663.585938 589.203125 675.148438 591.636719 677.492188 586.71875 C 682.550781 576.15625 647.605469 570.386719 639.703125 569.980469 C 639.222656 569.960938 638.757812 569.949219 638.304688 569.949219 C 624.476562 569.949219 620.140625 579.707031 607.582031 579.707031 C 605.238281 579.707031 602.601562 579.367188 599.566406 578.554688 C 588.097656 575.457031 571.425781 570.804688 558.746094 570.804688 C 554.261719 570.804688 550.277344 571.390625 547.195312 572.824219 C 534.328125 578.816406 526.132812 597.996094 510.695312 597.996094 C 503.925781 597.996094 495.765625 594.304688 485.207031 584.195312 C 474.011719 573.457031 466.59375 564.648438 451.992188 564.648438 Z M 451.988281 564.644531 " fill-opacity="1" fill-rule="nonzero"/><path fill="#5f6454" d="M 110.46875 608.871094 C 125.003906 608.871094 142.230469 611.644531 147.660156 621.082031 C 153.9375 632.046875 128.699219 628.476562 132.039062 639.671875 C 134.070312 646.519531 141.726562 648.394531 151.503906 648.394531 C 163.304688 648.394531 178.1875 645.664062 189.960938 645.664062 C 204.46875 645.664062 214.265625 649.8125 207.753906 668.324219 C 204.730469 676.890625 192.289062 679.328125 177.996094 679.328125 C 161.132812 679.328125 141.707031 675.9375 132.175781 675.226562 C 119.21875 674.28125 106.03125 672.335938 94.113281 668.460938 C 89.507812 666.96875 85.171875 665.210938 81.066406 663.136719 C 75.242188 660.160156 69.960938 656.550781 65.492188 652.082031 C 64.136719 650.726562 62.914062 649.417969 61.652344 648.0625 C 54.25 640.121094 47.023438 632.316406 35.738281 626.8125 C 32.488281 625.191406 21.785156 618.871094 25.582031 615.175781 C 26.824219 613.953125 29.339844 613.628906 31.945312 613.628906 C 34.550781 613.628906 37.253906 613.960938 38.855469 614.050781 C 44.773438 614.410156 67.4375 615.039062 60.433594 623.976562 C 58.316406 626.683594 55.648438 626.460938 52.175781 627.359375 C 50.097656 627.945312 47.253906 630.472656 49.285156 632.1875 C 50.367188 633.089844 52.847656 632.957031 54.25 633 C 55.578125 633.046875 56.933594 633.082031 58.289062 633.082031 C 59.644531 633.082031 61 633.050781 62.332031 632.957031 C 65.984375 632.6875 69.328125 631.242188 72.898438 630.925781 C 76.238281 630.613281 79.261719 630.65625 82.199219 629.121094 C 90.1875 624.96875 79.71875 614.820312 89.964844 611.167969 C 93.445312 609.957031 101.4375 608.882812 110.472656 608.882812 Z M -21.367188 542.933594 C -28.515625 542.933594 -35.867188 543.679688 -42.546875 544.460938 C -43.179688 544.550781 -43.992188 544.640625 -44.847656 544.730469 L -44.847656 551.640625 C -43.898438 551.640625 -42.953125 551.605469 -42.078125 551.605469 C -41.203125 551.605469 -40.402344 551.640625 -39.75 551.773438 C -35.277344 552.632812 -32.886719 554.347656 -28.058594 554.484375 C -27.796875 554.488281 -27.535156 554.492188 -27.277344 554.492188 C -24.371094 554.492188 -21.429688 554.0625 -18.53125 553.894531 C -16.128906 553.757812 -13.808594 553.6875 -11.539062 553.6875 C -4.636719 553.6875 1.832031 554.335938 8.964844 555.832031 C 21.648438 558.585938 34.15625 565.261719 46.753906 566.167969 C 47.570312 567.746094 48.019531 569.144531 47.972656 570.636719 C 47.839844 577.402344 17.09375 576.59375 37.953125 592.835938 C 42.558594 596.441406 77.503906 606.597656 55.738281 609.257812 C 54.824219 609.367188 53.878906 609.417969 52.902344 609.417969 C 45.863281 609.417969 37.503906 606.808594 30.367188 605.425781 C 24.089844 604.203125 17.996094 604.160156 11.855469 603.441406 C 11.492188 602.355469 11.269531 601.230469 11.222656 600.101562 C 10.546875 589.542969 14.519531 583.808594 -5.480469 581.78125 C -6.34375 581.695312 -7.179688 581.648438 -7.972656 581.648438 C -18.464844 581.648438 -23.371094 588.796875 -27.105469 595.671875 C -30.515625 602.070312 -32.917969 608.21875 -37.707031 608.21875 C -39.636719 608.21875 -41.957031 607.21875 -44.894531 604.835938 L -44.894531 640.296875 C -43.820312 640.472656 -42.679688 640.566406 -41.472656 640.566406 C -38.324219 640.566406 -34.671875 639.941406 -30.265625 638.539062 C -27.921875 647.746094 -30.042969 671.523438 -14.058594 678.289062 C -11.554688 679.347656 -9.328125 679.800781 -7.320312 679.800781 C -1.722656 679.800781 2.210938 676.335938 5.898438 673.011719 C 7.15625 671.882812 8.378906 670.757812 9.644531 669.808594 C 16.496094 666.515625 24.445312 661.152344 32.585938 661.152344 C 34.367188 661.152344 36.160156 661.40625 37.953125 662.003906 C 39.621094 662.453125 41.292969 662.945312 42.960938 663.535156 C 54.65625 666.46875 71.992188 667.914062 81.699219 674.050781 C 85.492188 676.445312 86.617188 681.183594 90.910156 683.03125 C 92.378906 683.671875 94 683.867188 95.683594 683.867188 C 98.46875 683.867188 101.421875 683.324219 104.15625 683.324219 C 104.6875 683.324219 105.207031 683.34375 105.714844 683.394531 C 124.132812 685.015625 140.300781 692.324219 158.3125 694.671875 C 160.847656 695.011719 163.234375 695.15625 165.515625 695.15625 C 178.152344 695.15625 187.585938 690.710938 201.203125 689.980469 C 202.542969 689.90625 203.835938 689.871094 205.089844 689.871094 C 223.371094 689.871094 233.4375 697.519531 249.242188 702.886719 C 253.964844 704.476562 257.648438 705.1875 260.800781 705.1875 C 268.554688 705.1875 273.082031 700.898438 281.976562 694.902344 C 289.246094 689.984375 299.355469 676.8125 310.105469 676.402344 C 310.320312 676.394531 310.535156 676.390625 310.742188 676.390625 C 322.855469 676.390625 330.035156 688.863281 341.574219 691.878906 C 352.5 694.765625 363.425781 699.101562 374.078125 702.257812 C 384.457031 705.371094 395.386719 706.542969 404.730469 711.417969 C 412.902344 715.617188 417.644531 722.972656 426.21875 726.761719 C 441.070312 733.347656 459.582031 729.652344 474.53125 736.867188 C 476.605469 737.90625 478.6875 738.988281 480.71875 740.117188 C 488.394531 744.308594 494.125 749.277344 500.585938 754.058594 C 502.703125 755.628906 504.503906 756.214844 506.195312 756.214844 C 509.90625 756.214844 513.082031 753.394531 517.917969 751.941406 C 522.566406 750.542969 537.015625 753.476562 534.894531 745.847656 C 531.007812 745.21875 530.421875 740.660156 528.125 738.582031 C 526.992188 737.59375 525.144531 737.8125 523.921875 736.644531 C 520.761719 733.484375 518.191406 732.128906 514.394531 729.382812 C 511.550781 727.351562 510.921875 724.597656 508.617188 722.390625 C 505.726562 719.675781 502.339844 719.296875 498.765625 719.296875 C 497.378906 719.296875 495.957031 719.351562 494.535156 719.351562 C 492.0625 719.351562 489.558594 719.175781 487.121094 718.238281 C 479.175781 715.167969 477.957031 710.066406 468.203125 707.363281 C 464.964844 706.445312 462.039062 706.148438 459.21875 706.148438 C 454.539062 706.148438 450.144531 706.964844 445.046875 707.136719 C 440.472656 707.277344 436.824219 709.289062 433.117188 709.289062 C 430.816406 709.289062 428.496094 708.519531 425.90625 706.050781 C 418.367188 698.886719 425.804688 696.578125 438.390625 696.578125 C 458.757812 696.578125 492.617188 702.613281 498.367188 703.839844 C 504.34375 705.101562 514.25 709.085938 522.246094 709.085938 C 526.816406 709.085938 530.769531 707.78125 533 703.929688 C 538.914062 693.636719 517.105469 684.570312 507.085938 682.851562 C 505.019531 682.5 503.191406 682.347656 501.523438 682.347656 C 493.644531 682.347656 489.449219 685.730469 481.621094 686.960938 C 480.675781 687.105469 479.535156 687.175781 478.238281 687.175781 C 460.457031 687.175781 413.082031 674.332031 441.9375 666.386719 C 447.832031 664.765625 456.804688 662.542969 464.734375 662.542969 C 466.519531 662.542969 468.25 662.652344 469.886719 662.914062 C 474.761719 663.726562 481.035156 667.738281 486.363281 668.960938 C 489.371094 669.640625 494.433594 670.859375 498.664062 670.859375 C 502.554688 670.859375 505.738281 669.824219 505.953125 666.386719 C 506.046875 664.535156 497.917969 663.863281 496.429688 663.632812 C 492.046875 663.003906 488.03125 660.96875 483.832031 660.472656 C 481.210938 660.203125 478.597656 659.980469 476.246094 658.984375 C 473.992188 658.078125 472.230469 656.589844 469.609375 656.050781 C 467.929688 655.695312 465.898438 655.574219 463.765625 655.574219 C 459.359375 655.574219 454.488281 656.09375 451.238281 656.191406 C 436.609375 656.683594 423.742188 660.203125 410.0625 662.1875 C 404.488281 662.996094 399.226562 663.386719 394.140625 663.386719 C 371.136719 663.386719 351.855469 655.394531 324.640625 642.023438 C 316.738281 638.140625 308.972656 634.980469 302.5625 629.746094 C 288.160156 618.019531 268.292969 602.855469 246.484375 601.097656 C 245.269531 600.996094 244.074219 600.945312 242.914062 600.945312 C 230.699219 600.945312 221.320312 606.058594 210.996094 606.058594 C 206.15625 606.058594 201.109375 604.933594 195.46875 601.636719 C 184.089844 595.003906 180.257812 582.730469 170.003906 575.191406 C 149.621094 560.136719 130.007812 556.65625 110.917969 556.65625 C 96.773438 556.65625 82.914062 558.566406 69.230469 559.082031 C 64.390625 559.277344 59.871094 559.503906 55.398438 559.503906 C 47.367188 559.503906 39.492188 558.75 30.179688 555.648438 C 16.863281 551.179688 3.363281 545.542969 -11.039062 543.554688 C -14.363281 543.109375 -17.84375 542.921875 -21.371094 542.921875 Z M -21.367188 542.933594 " fill-opacity="1" fill-rule="nonzero"/><path fill="#3d5d4b" d="M 688.988281 578.015625 C 680.484375 578.015625 674.15625 581.265625 666.730469 584.453125 C 681.359375 591.898438 673.324219 601.914062 687.542969 611.390625 C 692.914062 614.953125 702.171875 614.773438 708.355469 616.984375 C 716.574219 619.960938 720.410156 623.4375 729.621094 624.476562 C 730.957031 624.621094 732.175781 624.683594 733.300781 624.683594 C 740.167969 624.683594 743.675781 622.28125 750.386719 621.316406 C 752.722656 620.992188 754.953125 620.835938 757.097656 620.835938 C 781.878906 620.835938 794.757812 641.40625 818.699219 653.035156 C 826.644531 656.875 834.183594 659.578125 841.359375 661.429688 C 842.535156 659.308594 843.617188 657.050781 844.699219 654.796875 C 845.152344 653.851562 845.644531 652.765625 846.144531 651.636719 C 837.609375 647.753906 829.167969 642.972656 821.222656 637.515625 C 814.3125 632.777344 806.730469 628.082031 800.949219 621.8125 C 800.136719 620.910156 799.414062 620.050781 798.828125 619.152344 C 795.078125 618.113281 791.289062 616.855469 787.269531 615.453125 C 769.03125 612.207031 738.054688 614.054688 726.003906 599.660156 C 718.148438 590.277344 715.9375 584.820312 702.390625 580.394531 C 697.25 578.707031 692.886719 578.023438 688.980469 578.023438 Z M 688.988281 578.015625 " fill-opacity="1" fill-rule="nonzero"/><path fill="#3d5d4b" d="M 606.308594 564.644531 C 601.554688 564.644531 596.8125 565.65625 592.371094 567.347656 C 589.121094 568.609375 574.898438 569.832031 577.476562 574.476562 C 578.121094 575.65625 579.78125 576.023438 581.839844 576.023438 C 585.082031 576.023438 589.304688 575.125 592.101562 575.125 C 592.746094 575.125 593.3125 575.167969 593.773438 575.289062 C 596.167969 575.871094 597.066406 577.683594 599.417969 578.222656 C 599.78125 578.300781 600.164062 578.332031 600.554688 578.332031 C 602.238281 578.332031 604.109375 577.738281 605.648438 577.59375 C 606.113281 577.546875 606.546875 577.523438 606.953125 577.523438 C 609.664062 577.523438 611.378906 578.472656 614.042969 579.214844 C 616.441406 579.847656 618.648438 580.027344 620.867188 580.839844 C 622.671875 581.46875 624.386719 582.148438 626.101562 582.824219 C 627.773438 583.453125 629.398438 584.089844 631.15625 584.628906 C 642.21875 588.101562 653.773438 590.355469 664.972656 593.519531 C 670.480469 595.097656 676.078125 596.8125 681.089844 599.203125 C 684.34375 600.710938 688.429688 602.816406 692.460938 602.816406 C 693.742188 602.816406 695.015625 602.601562 696.253906 602.089844 C 698.421875 601.230469 698.875 599.023438 700.859375 598.078125 C 701.632812 597.710938 702.4375 597.558594 703.246094 597.558594 C 705.421875 597.558594 707.628906 598.675781 709.308594 599.792969 C 711.382812 601.144531 712.871094 603.265625 715.851562 603.445312 C 716.308594 603.476562 716.734375 603.488281 717.136719 603.488281 C 726.128906 603.488281 722.390625 595.5625 719.148438 591.980469 C 717.570312 590.265625 715.761719 588.507812 714.136719 586.972656 C 707.941406 582.628906 700.007812 576.933594 692.210938 576.933594 C 690.691406 576.933594 689.175781 577.148438 687.679688 577.632812 C 681.644531 579.15625 675.417969 579.839844 669.175781 579.839844 C 662.484375 579.839844 655.773438 579.054688 649.257812 577.675781 C 643.074219 576.371094 637.15625 574.609375 631.242188 572.667969 C 626.007812 570.957031 621.761719 568.292969 616.75 566.441406 C 613.335938 565.199219 609.8125 564.644531 606.304688 564.644531 Z M 606.308594 564.644531 " fill-opacity="1" fill-rule="nonzero"/><path fill="#2a2d32" d="M 89.3125 617.5625 C 100.605469 617.5625 108.996094 614.046875 118.851562 610.589844 C 99.441406 602.523438 110.101562 591.671875 91.230469 581.40625 C 84.097656 577.542969 71.816406 577.738281 63.605469 575.34375 C 52.699219 572.113281 47.609375 568.351562 35.382812 567.226562 C 33.605469 567.066406 31.992188 566.996094 30.496094 566.996094 C 21.386719 566.996094 16.722656 569.601562 7.816406 570.648438 C 4.71875 571.003906 1.757812 571.171875 -1.089844 571.171875 C -33.976562 571.171875 -51.074219 548.875 -82.84375 536.277344 C -93.390625 532.117188 -103.398438 529.183594 -112.929688 527.179688 C -114.488281 529.480469 -115.921875 531.921875 -117.363281 534.367188 C -117.964844 535.390625 -118.617188 536.566406 -119.285156 537.789062 C -107.957031 542 -96.75 547.179688 -86.203125 553.09375 C -77.035156 558.226562 -66.96875 563.3125 -59.296875 570.109375 C -58.214844 571.085938 -57.261719 572.019531 -56.480469 572.992188 C -51.503906 574.117188 -46.46875 575.488281 -41.136719 577.003906 C -16.929688 580.519531 24.179688 578.515625 40.175781 594.113281 C 50.605469 604.285156 53.539062 610.203125 71.515625 614.996094 C 78.34375 616.824219 84.132812 617.5625 89.3125 617.5625 Z M 89.3125 617.5625 " fill-opacity="1" fill-rule="nonzero"/></svg>