<svg xmlns="http://www.w3.org/2000/svg" xmlns:xlink="http://www.w3.org/1999/xlink" width="1280" zoomAndPan="magnify" viewBox="0 0 960 599.999999" height="800" preserveAspectRatio="xMidYMid meet" version="1.0"><defs><linearGradient x1="640" gradientTransform="matrix(0.75, 0, 0, 0.75, 0.00000048, 0.00002)" y1="0" x2="640" gradientUnits="userSpaceOnUse" y2="799.999967" id="bbae94e721"><stop stop-opacity="1" stop-color="rgb(49.398804%, 66.699219%, 56.898499%)" offset="0"/><stop stop-opacity="1" stop-color="rgb(49.539185%, 66.75415%, 56.97937%)" offset="0.0078125"/><stop stop-opacity="1" stop-color="rgb(49.821472%, 66.867065%, 57.141113%)" offset="0.015625"/><stop stop-opacity="1" stop-color="rgb(50.10376%, 66.978455%, 57.302856%)" offset="0.0234375"/><stop stop-opacity="1" stop-color="rgb(50.384521%, 67.089844%, 57.4646%)" offset="0.03125"/><stop stop-opacity="1" stop-color="rgb(50.666809%, 67.202759%, 57.626343%)" offset="0.0390625"/><stop stop-opacity="1" stop-color="rgb(50.949097%, 67.314148%, 57.788086%)" offset="0.046875"/><stop stop-opacity="1" stop-color="rgb(51.231384%, 67.425537%, 57.949829%)" offset="0.0546875"/><stop stop-opacity="1" stop-color="rgb(51.512146%, 67.538452%, 58.110046%)" offset="0.0625"/><stop stop-opacity="1" stop-color="rgb(51.794434%, 67.649841%, 58.27179%)" offset="0.0703125"/><stop stop-opacity="1" stop-color="rgb(52.076721%, 67.76123%, 58.433533%)" offset="0.078125"/><stop stop-opacity="1" stop-color="rgb(52.359009%, 67.874146%, 58.595276%)" offset="0.0859375"/><stop stop-opacity="1" stop-color="rgb(52.639771%, 67.985535%, 58.757019%)" offset="0.09375"/><stop stop-opacity="1" stop-color="rgb(52.922058%, 68.096924%, 58.918762%)" offset="0.101562"/><stop stop-opacity="1" stop-color="rgb(53.204346%, 68.209839%, 59.080505%)" offset="0.109375"/><stop stop-opacity="1" stop-color="rgb(53.486633%, 68.321228%, 59.240723%)" offset="0.117188"/><stop stop-opacity="1" stop-color="rgb(53.767395%, 68.432617%, 59.402466%)" offset="0.125"/><stop stop-opacity="1" stop-color="rgb(54.049683%, 68.545532%, 59.564209%)" offset="0.132812"/><stop stop-opacity="1" stop-color="rgb(54.33197%, 68.656921%, 59.725952%)" offset="0.140625"/><stop stop-opacity="1" stop-color="rgb(54.614258%, 68.768311%, 59.887695%)" offset="0.148438"/><stop stop-opacity="1" stop-color="rgb(54.89502%, 68.881226%, 60.049438%)" offset="0.15625"/><stop stop-opacity="1" stop-color="rgb(55.177307%, 68.992615%, 60.211182%)" offset="0.164062"/><stop stop-opacity="1" stop-color="rgb(55.459595%, 69.10553%, 60.371399%)" offset="0.171875"/><stop stop-opacity="1" stop-color="rgb(55.740356%, 69.216919%, 60.533142%)" offset="0.179688"/><stop stop-opacity="1" stop-color="rgb(56.022644%, 69.328308%, 60.694885%)" offset="0.1875"/><stop stop-opacity="1" stop-color="rgb(56.304932%, 69.441223%, 60.856628%)" offset="0.195312"/><stop stop-opacity="1" stop-color="rgb(56.587219%, 69.552612%, 61.018372%)" offset="0.203125"/><stop stop-opacity="1" stop-color="rgb(56.867981%, 69.664001%, 61.180115%)" offset="0.210938"/><stop stop-opacity="1" stop-color="rgb(57.150269%, 69.776917%, 61.341858%)" offset="0.21875"/><stop stop-opacity="1" stop-color="rgb(57.432556%, 69.888306%, 61.502075%)" offset="0.226562"/><stop stop-opacity="1" stop-color="rgb(57.714844%, 69.999695%, 61.663818%)" offset="0.234375"/><stop stop-opacity="1" stop-color="rgb(57.995605%, 70.11261%, 61.825562%)" offset="0.242188"/><stop stop-opacity="1" stop-color="rgb(58.277893%, 70.223999%, 61.987305%)" offset="0.25"/><stop stop-opacity="1" stop-color="rgb(58.560181%, 70.335388%, 62.149048%)" offset="0.257812"/><stop stop-opacity="1" stop-color="rgb(58.842468%, 70.448303%, 62.310791%)" offset="0.265625"/><stop stop-opacity="1" stop-color="rgb(59.12323%, 70.559692%, 62.472534%)" offset="0.273438"/><stop stop-opacity="1" stop-color="rgb(59.405518%, 70.671082%, 62.632751%)" offset="0.28125"/><stop stop-opacity="1" stop-color="rgb(59.687805%, 70.783997%, 62.794495%)" offset="0.289062"/><stop stop-opacity="1" stop-color="rgb(59.968567%, 70.895386%, 62.956238%)" offset="0.296875"/><stop stop-opacity="1" stop-color="rgb(60.250854%, 71.006775%, 63.117981%)" offset="0.304688"/><stop stop-opacity="1" stop-color="rgb(60.533142%, 71.11969%, 63.279724%)" offset="0.3125"/><stop stop-opacity="1" stop-color="rgb(60.81543%, 71.231079%, 63.441467%)" offset="0.320312"/><stop stop-opacity="1" stop-color="rgb(61.096191%, 71.342468%, 63.60321%)" offset="0.328125"/><stop stop-opacity="1" stop-color="rgb(61.378479%, 71.455383%, 63.763428%)" offset="0.335938"/><stop stop-opacity="1" stop-color="rgb(61.660767%, 71.566772%, 63.925171%)" offset="0.34375"/><stop stop-opacity="1" stop-color="rgb(61.943054%, 71.678162%, 64.086914%)" offset="0.351562"/><stop stop-opacity="1" stop-color="rgb(62.223816%, 71.791077%, 64.248657%)" offset="0.359375"/><stop stop-opacity="1" stop-color="rgb(62.506104%, 71.902466%, 64.4104%)" offset="0.367188"/><stop stop-opacity="1" stop-color="rgb(62.788391%, 72.013855%, 64.572144%)" offset="0.375"/><stop stop-opacity="1" stop-color="rgb(63.070679%, 72.12677%, 64.733887%)" offset="0.382812"/><stop stop-opacity="1" stop-color="rgb(63.35144%, 72.238159%, 64.894104%)" offset="0.390625"/><stop stop-opacity="1" stop-color="rgb(63.633728%, 72.349548%, 65.055847%)" offset="0.398438"/><stop stop-opacity="1" stop-color="rgb(63.916016%, 72.462463%, 65.21759%)" offset="0.40625"/><stop stop-opacity="1" stop-color="rgb(64.198303%, 72.573853%, 65.379333%)" offset="0.414062"/><stop stop-opacity="1" stop-color="rgb(64.479065%, 72.685242%, 65.541077%)" offset="0.421875"/><stop stop-opacity="1" stop-color="rgb(64.761353%, 72.798157%, 65.70282%)" offset="0.429688"/><stop stop-opacity="1" stop-color="rgb(65.04364%, 72.909546%, 65.864563%)" offset="0.4375"/><stop stop-opacity="1" stop-color="rgb(65.324402%, 73.020935%, 66.02478%)" offset="0.445312"/><stop stop-opacity="1" stop-color="rgb(65.606689%, 73.13385%, 66.186523%)" offset="0.453125"/><stop stop-opacity="1" stop-color="rgb(65.888977%, 73.245239%, 66.348267%)" offset="0.460938"/><stop stop-opacity="1" stop-color="rgb(66.171265%, 73.356628%, 66.51001%)" offset="0.46875"/><stop stop-opacity="1" stop-color="rgb(66.452026%, 73.469543%, 66.671753%)" offset="0.476562"/><stop stop-opacity="1" stop-color="rgb(66.734314%, 73.580933%, 66.833496%)" offset="0.484375"/><stop stop-opacity="1" stop-color="rgb(67.016602%, 73.692322%, 66.995239%)" offset="0.492188"/><stop stop-opacity="1" stop-color="rgb(67.298889%, 73.805237%, 67.155457%)" offset="0.5"/><stop stop-opacity="1" stop-color="rgb(67.579651%, 73.916626%, 67.3172%)" offset="0.507812"/><stop stop-opacity="1" stop-color="rgb(67.861938%, 74.028015%, 67.478943%)" offset="0.515625"/><stop stop-opacity="1" stop-color="rgb(68.144226%, 74.14093%, 67.640686%)" offset="0.523438"/><stop stop-opacity="1" stop-color="rgb(68.426514%, 74.252319%, 67.802429%)" offset="0.53125"/><stop stop-opacity="1" stop-color="rgb(68.707275%, 74.365234%, 67.964172%)" offset="0.539062"/><stop stop-opacity="1" stop-color="rgb(68.989563%, 74.476624%, 68.125916%)" offset="0.546875"/><stop stop-opacity="1" stop-color="rgb(69.271851%, 74.588013%, 68.287659%)" offset="0.554688"/><stop stop-opacity="1" stop-color="rgb(69.552612%, 74.700928%, 68.447876%)" offset="0.5625"/><stop stop-opacity="1" stop-color="rgb(69.8349%, 74.812317%, 68.609619%)" offset="0.570312"/><stop stop-opacity="1" stop-color="rgb(70.117188%, 74.923706%, 68.771362%)" offset="0.578125"/><stop stop-opacity="1" stop-color="rgb(70.399475%, 75.036621%, 68.933105%)" offset="0.585938"/><stop stop-opacity="1" stop-color="rgb(70.680237%, 75.14801%, 69.094849%)" offset="0.59375"/><stop stop-opacity="1" stop-color="rgb(70.962524%, 75.259399%, 69.256592%)" offset="0.601562"/><stop stop-opacity="1" stop-color="rgb(71.244812%, 75.372314%, 69.418335%)" offset="0.609375"/><stop stop-opacity="1" stop-color="rgb(71.5271%, 75.483704%, 69.578552%)" offset="0.617188"/><stop stop-opacity="1" stop-color="rgb(71.807861%, 75.595093%, 69.740295%)" offset="0.625"/><stop stop-opacity="1" stop-color="rgb(72.090149%, 75.708008%, 69.902039%)" offset="0.632812"/><stop stop-opacity="1" stop-color="rgb(72.372437%, 75.819397%, 70.063782%)" offset="0.640625"/><stop stop-opacity="1" stop-color="rgb(72.654724%, 75.930786%, 70.225525%)" offset="0.648438"/><stop stop-opacity="1" stop-color="rgb(72.935486%, 76.043701%, 70.387268%)" offset="0.65625"/><stop stop-opacity="1" stop-color="rgb(73.217773%, 76.15509%, 70.549011%)" offset="0.664062"/><stop stop-opacity="1" stop-color="rgb(73.500061%, 76.266479%, 70.709229%)" offset="0.671875"/><stop stop-opacity="1" stop-color="rgb(73.782349%, 76.379395%, 70.870972%)" offset="0.679688"/><stop stop-opacity="1" stop-color="rgb(74.06311%, 76.490784%, 71.032715%)" offset="0.6875"/><stop stop-opacity="1" stop-color="rgb(74.345398%, 76.602173%, 71.194458%)" offset="0.695312"/><stop stop-opacity="1" stop-color="rgb(74.627686%, 76.715088%, 71.356201%)" offset="0.703125"/><stop stop-opacity="1" stop-color="rgb(74.908447%, 76.826477%, 71.517944%)" offset="0.710938"/><stop stop-opacity="1" stop-color="rgb(75.190735%, 76.937866%, 71.679688%)" offset="0.71875"/><stop stop-opacity="1" stop-color="rgb(75.473022%, 77.050781%, 71.839905%)" offset="0.726562"/><stop stop-opacity="1" stop-color="rgb(75.75531%, 77.16217%, 72.001648%)" offset="0.734375"/><stop stop-opacity="1" stop-color="rgb(75.996399%, 77.258301%, 72.140503%)" offset="0.75"/><stop stop-opacity="1" stop-color="rgb(76.098633%, 77.2995%, 72.198486%)" offset="0.8125"/><stop stop-opacity="1" stop-color="rgb(76.098633%, 77.2995%, 72.198486%)" offset="0.828125"/><stop stop-opacity="1" stop-color="rgb(76.234436%, 77.427673%, 72.363281%)" offset="0.835938"/><stop stop-opacity="1" stop-color="rgb(76.550293%, 77.726746%, 72.743225%)" offset="0.839844"/><stop stop-opacity="1" stop-color="rgb(76.730347%, 77.897644%, 72.9599%)" offset="0.84375"/><stop stop-opacity="1" stop-color="rgb(76.908875%, 78.067017%, 73.175049%)" offset="0.847656"/><stop stop-opacity="1" stop-color="rgb(77.088928%, 78.237915%, 73.391724%)" offset="0.851562"/><stop stop-opacity="1" stop-color="rgb(77.267456%, 78.407288%, 73.606873%)" offset="0.855469"/><stop stop-opacity="1" stop-color="rgb(77.44751%, 78.578186%, 73.823547%)" offset="0.859375"/><stop stop-opacity="1" stop-color="rgb(77.626038%, 78.747559%, 74.038696%)" offset="0.863281"/><stop stop-opacity="1" stop-color="rgb(77.806091%, 78.918457%, 74.255371%)" offset="0.867188"/><stop stop-opacity="1" stop-color="rgb(77.984619%, 79.08783%, 74.47052%)" offset="0.871094"/><stop stop-opacity="1" stop-color="rgb(78.164673%, 79.258728%, 74.687195%)" offset="0.875"/><stop stop-opacity="1" stop-color="rgb(78.343201%, 79.428101%, 74.902344%)" offset="0.878906"/><stop stop-opacity="1" stop-color="rgb(78.521729%, 79.597473%, 75.119019%)" offset="0.882812"/><stop stop-opacity="1" stop-color="rgb(78.700256%, 79.766846%, 75.334167%)" offset="0.886719"/><stop stop-opacity="1" stop-color="rgb(78.88031%, 79.937744%, 75.550842%)" offset="0.890625"/><stop stop-opacity="1" stop-color="rgb(79.058838%, 80.107117%, 75.765991%)" offset="0.894531"/><stop stop-opacity="1" stop-color="rgb(79.238892%, 80.278015%, 75.982666%)" offset="0.898438"/><stop stop-opacity="1" stop-color="rgb(79.417419%, 80.447388%, 76.199341%)" offset="0.902344"/><stop stop-opacity="1" stop-color="rgb(79.597473%, 80.618286%, 76.416016%)" offset="0.90625"/><stop stop-opacity="1" stop-color="rgb(79.776001%, 80.787659%, 76.631165%)" offset="0.910156"/><stop stop-opacity="1" stop-color="rgb(79.956055%, 80.958557%, 76.847839%)" offset="0.914062"/><stop stop-opacity="1" stop-color="rgb(80.134583%, 81.12793%, 77.062988%)" offset="0.917969"/><stop stop-opacity="1" stop-color="rgb(80.314636%, 81.298828%, 77.279663%)" offset="0.921875"/><stop stop-opacity="1" stop-color="rgb(80.493164%, 81.468201%, 77.494812%)" offset="0.925781"/><stop stop-opacity="1" stop-color="rgb(80.673218%, 81.639099%, 77.711487%)" offset="0.929688"/><stop stop-opacity="1" stop-color="rgb(80.851746%, 81.808472%, 77.926636%)" offset="0.933594"/><stop stop-opacity="1" stop-color="rgb(81.031799%, 81.97937%, 78.143311%)" offset="0.9375"/><stop stop-opacity="1" stop-color="rgb(81.210327%, 82.148743%, 78.358459%)" offset="0.941406"/><stop stop-opacity="1" stop-color="rgb(81.390381%, 82.318115%, 78.575134%)" offset="0.945312"/><stop stop-opacity="1" stop-color="rgb(81.568909%, 82.487488%, 78.790283%)" offset="0.949219"/><stop stop-opacity="1" stop-color="rgb(81.748962%, 82.658386%, 79.006958%)" offset="0.953125"/><stop stop-opacity="1" stop-color="rgb(81.92749%, 82.827759%, 79.222107%)" offset="0.957031"/><stop stop-opacity="1" stop-color="rgb(82.107544%, 82.998657%, 79.438782%)" offset="0.960938"/><stop stop-opacity="1" stop-color="rgb(82.286072%, 83.16803%, 79.653931%)" offset="0.964844"/><stop stop-opacity="1" stop-color="rgb(82.466125%, 83.338928%, 79.870605%)" offset="0.96875"/><stop stop-opacity="1" stop-color="rgb(82.644653%, 83.508301%, 80.08728%)" offset="0.972656"/><stop stop-opacity="1" stop-color="rgb(82.823181%, 83.679199%, 80.303955%)" offset="0.976562"/><stop stop-opacity="1" stop-color="rgb(83.001709%, 83.848572%, 80.519104%)" offset="0.980469"/><stop stop-opacity="1" stop-color="rgb(83.181763%, 84.01947%, 80.735779%)" offset="0.984375"/><stop stop-opacity="1" stop-color="rgb(83.360291%, 84.188843%, 80.950928%)" offset="0.988281"/><stop stop-opacity="1" stop-color="rgb(83.540344%, 84.359741%, 81.167603%)" offset="0.992188"/><stop stop-opacity="1" stop-color="rgb(83.718872%, 84.529114%, 81.382751%)" offset="0.996094"/><stop stop-opacity="1" stop-color="rgb(83.898926%, 84.698486%, 81.599426%)" offset="1"/></linearGradient></defs><rect x="-96" width="1152" fill="#ffffff" y="-60" height="719.999999" fill-opacity="1"/><rect x="-96" fill="url(#bbae94e721)" width="1152" y="-60" height="719.999999"/><path fill="#2a2d32" d="M 926.871094 113.917969 C 928.984375 114.304688 931.832031 112.703125 933.71875 112.472656 C 935.933594 112.152344 937.171875 111.144531 939.359375 109.683594 C 941.25 108.378906 943.488281 108.679688 945.421875 107.894531 C 948.675781 106.628906 951.890625 105.359375 955.183594 103.894531 C 962.316406 100.761719 969.574219 96.40625 976.734375 95.128906 C 979.761719 94.652344 982.890625 94.082031 985.976562 93.507812 C 986.414062 93.375 989.160156 75.953125 989.519531 73.957031 C 989.253906 74.375 988.679688 74.398438 988.007812 74.273438 C 987.109375 74.109375 986.027344 73.683594 985.28125 73.546875 C 985.085938 73.511719 984.917969 73.5 984.78125 73.511719 C 982.78125 73.667969 980.761719 74.433594 978.765625 74.792969 C 977.410156 75.167969 975.988281 75.9375 974.640625 76.308594 C 974.503906 76.28125 974.355469 76.359375 974.21875 76.332031 C 973.890625 76.402344 973.597656 76.402344 973.324219 76.351562 C 972.488281 76.203125 971.847656 75.597656 971 75.132812 C 969.808594 74.546875 968.417969 73.96875 966.96875 73.703125 C 965.179688 73.378906 963.300781 73.542969 961.609375 74.773438 C 960.410156 75.582031 959.71875 76.59375 958.339844 76.859375 C 956.613281 77.261719 954.863281 77.046875 953.171875 77.261719 C 947.304688 77.746094 942.410156 81.699219 936.808594 85.527344 C 932.851562 88.105469 926.464844 91.691406 924.855469 99.332031 C 924.148438 102.703125 923.597656 109.300781 924.628906 111.957031 C 925.132812 113.1875 925.929688 113.742188 926.863281 113.914062 Z M 926.871094 113.917969 " fill-opacity="1" fill-rule="nonzero"/><path fill="#3d5d4b" d="M 303.597656 36.246094 C 314.933594 34.484375 325.894531 30.53125 335.917969 25.238281 C 343.242188 21.300781 376.75 13.394531 369.046875 4.300781 C 367.109375 1.988281 363.023438 1.816406 358.117188 2.582031 C 350.394531 3.78125 340.621094 7.285156 333.957031 8.324219 C 332.421875 8.566406 331.054688 8.671875 329.914062 8.589844 C 324.011719 8.210938 321.246094 4.640625 315.464844 4.339844 C 314.570312 4.304688 313.65625 4.382812 312.71875 4.527344 C 308.699219 5.152344 304.441406 7.128906 300.820312 8.015625 C 299.730469 8.289062 298.703125 8.5 297.726562 8.65625 C 291.261719 9.660156 286.855469 8.242188 280.246094 7.617188 C 274.328125 7.136719 268.992188 7.570312 263.4375 6.632812 C 258.917969 5.9375 254.601562 5.105469 250.285156 4.277344 C 246.089844 3.527344 242.003906 2.765625 237.621094 2.246094 C 210.078125 -1.167969 181.753906 -1.761719 153.992188 -4.449219 C 140.320312 -5.824219 126.398438 -7.453125 113.644531 -10.765625 C 105.375 -12.820312 94.917969 -15.855469 85.304688 -14.363281 C 82.253906 -13.886719 79.285156 -12.953125 76.496094 -11.386719 C 71.621094 -8.726562 71.28125 -3.777344 66.871094 -1 C 65.148438 0.0820312 63.289062 0.714844 61.359375 1.011719 C 56.171875 1.816406 50.535156 0.214844 46.160156 -1.578125 C 40.753906 -3.738281 36.484375 -7.765625 29.320312 -7.058594 C 28.222656 -6.957031 27.199219 -6.832031 26.242188 -6.683594 C 4.804688 -3.351562 16.382812 12.40625 25.316406 18.953125 C 29.660156 22.078125 34.558594 25.214844 38.953125 27.929688 C 55.191406 35.023438 76.027344 44.410156 94.617188 41.523438 C 98.238281 40.957031 101.78125 39.933594 105.179688 38.328125 C 119.066406 32.792969 133.679688 29.007812 148.558594 26.695312 C 164.515625 24.214844 180.78125 23.425781 196.785156 23.988281 C 211.972656 24.523438 226.671875 26.140625 241.425781 28.144531 C 254.492188 29.910156 265.511719 34.097656 278.078125 36.242188 C 286.640625 37.667969 295.21875 37.5625 303.589844 36.261719 Z M 303.597656 36.246094 " fill-opacity="1" fill-rule="nonzero"/><path fill="#3d5d4b" d="M 288.214844 95.367188 C 299.554688 93.601562 310.511719 89.652344 320.535156 84.355469 C 327.863281 80.417969 361.367188 72.511719 353.667969 63.417969 C 351.730469 61.105469 347.644531 60.933594 342.738281 61.699219 C 335.015625 62.898438 325.242188 66.402344 318.574219 67.445312 C 317.039062 67.683594 315.675781 67.789062 314.535156 67.707031 C 308.632812 67.328125 305.867188 63.757812 300.085938 63.460938 C 299.191406 63.425781 298.273438 63.5 297.339844 63.644531 C 293.316406 64.269531 289.0625 66.25 285.441406 67.132812 C 284.351562 67.410156 283.324219 67.617188 282.34375 67.773438 C 275.882812 68.777344 271.476562 67.359375 264.863281 66.734375 C 258.949219 66.253906 253.609375 66.6875 248.058594 65.75 C 243.539062 65.054688 239.222656 64.222656 234.90625 63.394531 C 230.710938 62.644531 226.625 61.882812 222.242188 61.363281 C 194.699219 57.949219 166.375 57.355469 138.613281 54.671875 C 124.941406 53.296875 111.019531 51.664062 98.265625 48.351562 C 89.996094 46.296875 79.539062 43.261719 69.925781 44.757812 C 66.875 45.230469 63.902344 46.167969 61.117188 47.730469 C 56.242188 50.390625 55.902344 55.339844 51.488281 58.121094 C 49.769531 59.199219 47.910156 59.835938 45.980469 60.128906 C 40.792969 60.933594 35.15625 59.335938 30.777344 57.539062 C 25.371094 55.378906 21.105469 51.351562 13.9375 52.0625 C 12.84375 52.160156 11.816406 52.285156 10.863281 52.4375 C -10.574219 55.765625 1.003906 71.523438 9.9375 78.074219 C 14.277344 81.199219 19.179688 84.332031 23.570312 87.046875 C 39.8125 94.140625 60.648438 103.53125 79.238281 100.640625 C 82.859375 100.074219 86.402344 99.050781 89.800781 97.445312 C 103.6875 91.910156 118.300781 88.125 133.179688 85.8125 C 149.132812 83.332031 165.398438 82.542969 181.40625 83.105469 C 196.59375 83.640625 211.292969 85.257812 226.046875 87.261719 C 239.113281 89.027344 250.128906 93.214844 262.699219 95.359375 C 271.261719 96.785156 279.839844 96.679688 288.210938 95.378906 Z M 288.214844 95.367188 " fill-opacity="1" fill-rule="nonzero"/><path fill="#5f6454" d="M 888.664062 118.625 C 888.992188 118.554688 889.332031 118.476562 889.679688 118.398438 C 916.167969 112.242188 879.859375 94.886719 876.253906 84.128906 C 874.539062 79.050781 880.414062 73.785156 878.496094 67.953125 C 876.554688 62.28125 871.613281 57.734375 864.785156 53.730469 C 849.613281 44.851562 828.785156 40.890625 811.585938 39.261719 C 774.902344 35.792969 739.601562 41.296875 702.191406 34.585938 C 683.277344 31.179688 661.019531 21.839844 642.734375 23.578125 C 638.746094 23.953125 634.867188 24.597656 631.050781 25.398438 C 619.210938 27.882812 607.949219 31.902344 595.96875 34.414062 C 593.304688 34.972656 590.609375 35.457031 587.859375 35.832031 C 568.390625 38.488281 543.800781 38.289062 524.164062 42.40625 C 519.152344 43.457031 514.460938 44.785156 510.265625 46.519531 C 498.179688 51.449219 497.875 62.328125 516.210938 66.308594 C 526.042969 68.484375 554.460938 62.023438 562.628906 67.9375 C 566.5625 70.753906 562.417969 78.351562 560.347656 80.132812 C 558.242188 81.949219 555.066406 83.070312 551.507812 83.816406 C 547.078125 84.746094 542.0625 85.085938 537.828125 85.453125 C 531.539062 86.007812 520.636719 85.445312 512.859375 87.082031 C 508.464844 88 505.066406 89.621094 504.058594 92.535156 C 501.886719 98.824219 511.773438 106.019531 519.980469 109.035156 C 535.277344 114.613281 565.457031 116.578125 581.503906 113.214844 C 583.027344 112.894531 584.417969 112.527344 585.65625 112.113281 C 595.769531 108.75 599.796875 99.878906 610.210938 96.996094 C 610.648438 96.875 611.085938 96.769531 611.515625 96.679688 C 622.09375 94.460938 629.058594 101.019531 640.457031 102.363281 C 645.804688 103 650.359375 102.78125 654.347656 101.941406 C 674.324219 97.75 680.050781 78.167969 699.636719 74.058594 C 702.09375 73.542969 704.769531 73.269531 707.714844 73.304688 C 729.40625 73.539062 750.332031 81.761719 771.523438 87.9375 C 793.828125 94.425781 811.253906 95.003906 831.804688 92.640625 C 843.007812 91.390625 854.582031 88.5625 863.261719 99.253906 C 870.59375 108.253906 869.226562 122.6875 888.652344 118.617188 Z M 888.664062 118.625 " fill-opacity="1" fill-rule="nonzero"/><path fill="#3d5d4b" d="M 493.9375 108.964844 C 498.046875 108.964844 502.097656 108.605469 505.613281 108.480469 C 521.328125 107.894531 550.679688 104.960938 559.167969 94.9375 C 570.730469 81.257812 533.609375 63.746094 518.167969 61.757812 C 516.375 61.53125 514.640625 61.429688 512.941406 61.429688 C 496.039062 61.429688 483.230469 71.699219 467.261719 71.699219 C 464.203125 71.699219 461.035156 71.324219 457.699219 70.421875 C 440.476562 65.765625 418.527344 49.3125 402.054688 49.3125 C 398.101562 49.3125 394.457031 50.261719 391.273438 52.550781 C 385.765625 56.519531 378.132812 62.433594 383.730469 70.199219 C 388.382812 76.589844 407.199219 89.300781 415.800781 89.300781 C 416.128906 89.300781 416.445312 89.28125 416.742188 89.246094 C 423.3125 88.398438 425.882812 81.816406 432.695312 81.816406 C 433.835938 81.816406 435.101562 82.003906 436.523438 82.433594 C 443.519531 84.511719 445.144531 89.972656 449.796875 93.984375 C 457.15625 100.394531 460.09375 99.039062 468.804688 101.75 C 474.089844 103.375 478.605469 106.488281 483.800781 107.84375 C 487.03125 108.710938 490.503906 108.964844 493.9375 108.964844 Z M 493.9375 108.964844 " fill-opacity="1" fill-rule="nonzero"/><path fill="#5f6454" d="M 508.796875 32.261719 C 510.152344 32.261719 511.570312 32.183594 513.054688 32.027344 C 527.277344 30.539062 533.511719 20.609375 545.566406 16.679688 C 547.410156 16.078125 549.28125 15.84375 551.1875 15.84375 C 557.359375 15.84375 563.890625 18.355469 571.03125 19.390625 C 573.476562 19.738281 575.753906 19.90625 577.875 19.90625 C 597.886719 19.90625 604.363281 5.285156 613.75 -5.574219 C 619.515625 -12.265625 626.542969 -14.117188 634.65625 -14.117188 C 644.214844 -14.117188 655.273438 -11.546875 667.53125 -11.300781 C 667.707031 -11.300781 667.882812 -11.296875 668.066406 -11.296875 C 681.882812 -11.296875 712.28125 -19.816406 701.898438 -35.898438 C 694.273438 -47.789062 667.179688 -50.816406 653.9375 -50.816406 C 652.753906 -50.816406 651.671875 -50.792969 650.730469 -50.746094 C 628.25 -49.601562 611.664062 -40.757812 588.203125 -40.757812 C 587.632812 -40.757812 587.058594 -40.765625 586.476562 -40.773438 C 579.039062 -40.9375 571.0625 -41.820312 563.582031 -41.820312 C 558.613281 -41.820312 553.863281 -41.429688 549.632812 -40.1875 C 533.554688 -35.496094 529.488281 -21.769531 522.941406 -10.445312 C 519.25 -4.074219 514.878906 -1.46875 510.417969 -1.46875 C 504.453125 -1.46875 498.316406 -6.128906 493.410156 -12.660156 C 486.683594 -21.601562 482.433594 -26.65625 469.207031 -29.90625 C 457.011719 -32.882812 441.386719 -38.210938 428.835938 -38.839844 C 428.175781 -38.875 427.527344 -38.894531 426.882812 -38.894531 C 410.304688 -38.894531 398.476562 -27.414062 387.605469 -19.027344 C 378.375 -11.882812 369.570312 -9.996094 359.609375 -9.996094 C 354.46875 -9.996094 349.015625 -10.496094 343.039062 -11.035156 C 341.90625 -11.136719 340.828125 -11.183594 339.792969 -11.183594 C 322.523438 -11.183594 317.582031 1.992188 302.671875 6.160156 C 297.164062 7.695312 285.601562 5.261719 283.253906 10.179688 C 278.199219 20.746094 313.148438 26.519531 321.050781 26.921875 C 321.53125 26.945312 321.996094 26.953125 322.453125 26.953125 C 336.28125 26.953125 340.617188 17.195312 353.175781 17.195312 C 355.523438 17.195312 358.15625 17.535156 361.195312 18.34375 C 372.667969 21.445312 389.34375 26.097656 402.019531 26.097656 C 406.507812 26.097656 410.492188 25.515625 413.574219 24.078125 C 426.445312 18.085938 434.640625 -1.101562 450.082031 -1.101562 C 456.851562 -1.101562 465.015625 2.589844 475.574219 12.707031 C 486.773438 23.445312 494.1875 32.257812 508.792969 32.257812 Z M 508.796875 32.261719 " fill-opacity="1" fill-rule="nonzero"/><path fill="#2a2d32" d="M 853.324219 79.761719 C 854.242188 79.761719 855.199219 79.726562 856.195312 79.644531 C 860.035156 63.53125 842.738281 62.449219 830.410156 57.660156 C 801.105469 46.375 780.425781 26.242188 748.179688 17.894531 C 740.96875 16.023438 734.746094 15.488281 728.875 15.488281 C 720.957031 15.488281 713.679688 16.464844 705.492188 16.464844 C 703.328125 16.464844 701.097656 16.398438 698.78125 16.226562 C 681.441406 14.914062 672.992188 1.148438 658.046875 -5.621094 C 653.101562 -7.867188 648.320312 -8.882812 644.179688 -8.882812 C 631.644531 -8.882812 624.921875 0.398438 636.867188 13.015625 C 640.664062 17.03125 645.175781 20.6875 649.785156 24.164062 C 653.082031 26.605469 655.613281 30.214844 659 32.378906 C 662.070312 34.273438 668.078125 33.460938 666.316406 37.886719 C 664.910156 38.097656 663.621094 38.191406 662.414062 38.191406 C 653.242188 38.191406 649.414062 32.59375 641.074219 29.042969 C 627.621094 23.359375 613.933594 17.265625 598.308594 16.316406 C 597.84375 16.285156 597.355469 16.265625 596.859375 16.265625 C 591.796875 16.265625 585.328125 17.949219 583.230469 21.730469 C 582.644531 22.722656 582.054688 24.078125 582.421875 25.207031 C 582.734375 26.199219 583.597656 26.429688 584.453125 27.105469 C 586.75 28.953125 587.296875 31.664062 590.007812 33.242188 C 591.722656 34.234375 594.390625 34.011719 596.417969 34.371094 C 597.554688 34.566406 598.582031 34.796875 599.777344 34.796875 C 599.960938 34.796875 600.15625 34.792969 600.347656 34.777344 C 601.640625 34.683594 602.730469 34.613281 603.835938 34.613281 C 604.847656 34.613281 605.867188 34.671875 607.078125 34.824219 C 611.410156 35.453125 617.191406 36.492188 616.964844 40.46875 C 607.933594 42.542969 606.398438 47.011719 615.789062 48.90625 C 616.984375 49.15625 618.117188 49.257812 619.207031 49.257812 C 624.054688 49.257812 628.003906 47.191406 632.320312 46.601562 C 633.105469 46.492188 633.855469 46.441406 634.582031 46.441406 C 643.117188 46.441406 647.796875 53.539062 655.121094 56.035156 C 663.363281 58.90625 674.253906 59.765625 683.984375 59.765625 C 686.191406 59.765625 688.34375 59.71875 690.386719 59.644531 C 704.367188 59.109375 717.390625 56.144531 731.644531 56.144531 C 737.691406 56.144531 743.964844 56.679688 750.625 58.160156 C 759.480469 60.101562 769.90625 58.609375 778.488281 61.273438 C 788.871094 64.523438 786.886719 68.492188 792.398438 72.738281 C 798.316406 77.296875 790.277344 77.117188 801.613281 78.921875 C 802.140625 79.003906 802.695312 79.042969 803.273438 79.042969 C 808.347656 79.042969 815.039062 76.113281 819.582031 75.261719 C 822.082031 74.789062 824.324219 74.589844 826.375 74.589844 C 836.832031 74.589844 842.503906 79.761719 853.332031 79.761719 Z M 853.324219 79.761719 " fill-opacity="1" fill-rule="nonzero"/><path fill="#5f6454" d="M 805.082031 -8.890625 C 790.542969 -8.890625 773.3125 -11.667969 767.882812 -21.105469 C 761.605469 -32.074219 786.847656 -28.503906 783.507812 -39.703125 C 781.476562 -46.554688 773.820312 -48.429688 764.039062 -48.429688 C 752.238281 -48.429688 737.351562 -45.699219 725.574219 -45.699219 C 711.066406 -45.699219 701.265625 -49.847656 707.777344 -68.367188 C 710.804688 -76.933594 723.25 -79.375 737.542969 -79.375 C 754.40625 -79.375 773.839844 -75.980469 783.371094 -75.269531 C 796.332031 -74.324219 809.519531 -72.378906 821.4375 -68.5 C 826.042969 -67.011719 830.378906 -65.25 834.488281 -63.175781 C 840.3125 -60.195312 845.59375 -56.585938 850.066406 -52.117188 C 851.421875 -50.761719 852.640625 -49.453125 853.90625 -48.097656 C 861.308594 -40.152344 868.539062 -32.34375 879.824219 -26.839844 C 883.078125 -25.214844 893.78125 -18.894531 889.984375 -15.195312 C 888.738281 -13.976562 886.222656 -13.652344 883.617188 -13.652344 C 881.011719 -13.652344 878.308594 -13.980469 876.703125 -14.070312 C 870.789062 -14.433594 848.121094 -15.0625 855.125 -24 C 857.242188 -26.710938 859.910156 -26.484375 863.386719 -27.386719 C 865.460938 -27.96875 868.308594 -30.5 866.277344 -32.214844 C 865.191406 -33.121094 862.710938 -32.984375 861.308594 -33.03125 C 859.980469 -33.074219 858.625 -33.109375 857.269531 -33.109375 C 855.914062 -33.109375 854.558594 -33.078125 853.226562 -32.984375 C 849.570312 -32.714844 846.230469 -31.269531 842.660156 -30.953125 C 839.320312 -30.640625 836.292969 -30.683594 833.355469 -29.148438 C 825.363281 -24.996094 835.835938 -14.839844 825.589844 -11.1875 C 822.109375 -9.976562 814.117188 -8.902344 805.078125 -8.902344 Z M 936.9375 57.070312 C 944.089844 57.070312 951.441406 56.324219 958.125 55.539062 C 958.753906 55.449219 959.570312 55.359375 960.425781 55.269531 L 960.425781 48.359375 C 959.476562 48.359375 958.53125 48.394531 957.652344 48.394531 C 956.777344 48.394531 955.980469 48.359375 955.324219 48.226562 C 950.851562 47.367188 948.460938 45.652344 943.628906 45.515625 C 943.371094 45.511719 943.109375 45.507812 942.851562 45.507812 C 939.945312 45.507812 937.003906 45.9375 934.101562 46.105469 C 931.703125 46.242188 929.378906 46.3125 927.109375 46.3125 C 920.207031 46.3125 913.734375 45.660156 906.605469 44.167969 C 893.914062 41.410156 881.40625 34.734375 868.808594 33.828125 C 867.992188 32.246094 867.542969 30.847656 867.585938 29.359375 C 867.722656 22.589844 898.472656 23.398438 877.609375 7.152344 C 873.003906 3.542969 838.054688 -6.617188 859.820312 -9.277344 C 860.734375 -9.386719 861.679688 -9.4375 862.65625 -9.4375 C 869.699219 -9.4375 878.058594 -6.828125 885.199219 -5.441406 C 891.472656 -4.222656 897.570312 -4.179688 903.714844 -3.457031 C 904.074219 -2.375 904.296875 -1.25 904.34375 -0.117188 C 905.019531 10.445312 901.046875 16.179688 921.046875 18.210938 C 921.914062 18.292969 922.75 18.339844 923.542969 18.339844 C 934.035156 18.339844 938.945312 11.191406 942.679688 4.3125 C 946.089844 -2.089844 948.492188 -8.238281 953.28125 -8.238281 C 955.214844 -8.238281 957.535156 -7.238281 960.46875 -4.851562 L 960.46875 -40.332031 C 959.394531 -40.507812 958.253906 -40.605469 957.050781 -40.605469 C 953.898438 -40.605469 950.246094 -39.980469 945.839844 -38.574219 C 943.496094 -47.78125 945.617188 -71.570312 929.628906 -78.339844 C 927.125 -79.398438 924.898438 -79.847656 922.890625 -79.847656 C 917.292969 -79.847656 913.355469 -76.382812 909.667969 -73.058594 C 908.410156 -71.929688 907.1875 -70.804688 905.921875 -69.855469 C 899.070312 -66.5625 891.117188 -61.195312 882.976562 -61.195312 C 881.195312 -61.195312 879.402344 -61.453125 877.609375 -62.046875 C 875.941406 -62.496094 874.269531 -62.992188 872.597656 -63.582031 C 860.90625 -66.515625 843.566406 -67.960938 833.855469 -74.101562 C 830.0625 -76.496094 828.933594 -81.234375 824.644531 -83.082031 C 823.171875 -83.722656 821.554688 -83.917969 819.867188 -83.917969 C 817.082031 -83.917969 814.128906 -83.375 811.394531 -83.375 C 810.863281 -83.375 810.34375 -83.394531 809.835938 -83.445312 C 791.414062 -85.070312 775.242188 -92.378906 757.230469 -94.726562 C 754.691406 -95.066406 752.308594 -95.210938 750.027344 -95.210938 C 737.386719 -95.210938 727.949219 -90.761719 714.332031 -90.03125 C 712.988281 -89.957031 711.699219 -89.921875 710.445312 -89.921875 C 692.160156 -89.921875 682.089844 -97.578125 666.285156 -102.945312 C 661.558594 -104.535156 657.878906 -105.246094 654.722656 -105.246094 C 646.96875 -105.246094 642.4375 -100.957031 633.546875 -94.957031 C 626.273438 -90.039062 616.160156 -76.859375 605.414062 -76.449219 C 605.199219 -76.445312 604.984375 -76.441406 604.773438 -76.441406 C 592.660156 -76.441406 585.476562 -88.917969 573.9375 -91.933594 C 563.011719 -94.824219 552.082031 -99.15625 541.429688 -102.316406 C 531.046875 -105.429688 520.117188 -106.601562 510.769531 -111.480469 C 502.597656 -115.679688 497.855469 -123.039062 489.277344 -126.828125 C 474.421875 -133.417969 455.90625 -129.71875 440.957031 -136.9375 C 438.882812 -137.976562 436.800781 -139.058594 434.769531 -140.1875 C 427.09375 -144.382812 421.363281 -149.351562 414.898438 -154.136719 C 412.773438 -155.691406 410.972656 -156.28125 409.285156 -156.28125 C 405.574219 -156.28125 402.394531 -153.460938 397.558594 -152.007812 C 392.910156 -150.605469 378.460938 -153.539062 380.578125 -145.910156 C 384.464844 -145.28125 385.050781 -140.722656 387.351562 -138.644531 C 388.480469 -137.652344 390.332031 -137.871094 391.554688 -136.703125 C 394.714844 -133.542969 397.285156 -132.1875 401.082031 -129.4375 C 403.925781 -127.410156 404.558594 -124.652344 406.863281 -122.445312 C 409.753906 -119.730469 413.140625 -119.351562 416.714844 -119.351562 C 418.101562 -119.351562 419.519531 -119.40625 420.945312 -119.40625 C 423.417969 -119.40625 425.921875 -119.230469 428.359375 -118.289062 C 436.304688 -115.21875 437.527344 -110.117188 447.28125 -107.410156 C 450.519531 -106.496094 453.445312 -106.195312 456.269531 -106.195312 C 460.949219 -106.195312 465.34375 -107.015625 470.441406 -107.1875 C 475.019531 -107.324219 478.664062 -109.339844 482.375 -109.339844 C 484.675781 -109.339844 486.996094 -108.570312 489.585938 -106.101562 C 497.125 -98.933594 489.6875 -96.621094 477.097656 -96.621094 C 456.726562 -96.621094 422.863281 -102.660156 417.109375 -103.886719 C 411.132812 -105.152344 401.226562 -109.136719 393.230469 -109.136719 C 388.65625 -109.136719 384.707031 -107.832031 382.476562 -103.976562 C 376.558594 -93.683594 398.371094 -84.613281 408.394531 -82.894531 C 410.457031 -82.539062 412.289062 -82.390625 413.953125 -82.390625 C 421.835938 -82.390625 426.035156 -85.773438 433.859375 -87.003906 C 434.804688 -87.148438 435.945312 -87.21875 437.246094 -87.21875 C 455.027344 -87.21875 502.410156 -74.371094 473.554688 -66.421875 C 467.65625 -64.800781 458.683594 -62.578125 450.75 -62.578125 C 448.964844 -62.578125 447.234375 -62.6875 445.597656 -62.945312 C 440.722656 -63.761719 434.445312 -67.777344 429.121094 -68.996094 C 426.109375 -69.675781 421.046875 -70.894531 416.816406 -70.894531 C 412.925781 -70.894531 409.738281 -69.859375 409.523438 -66.421875 C 409.433594 -64.570312 417.5625 -63.894531 419.050781 -63.667969 C 423.433594 -63.035156 427.449219 -61 431.648438 -60.507812 C 434.269531 -60.238281 436.886719 -60.011719 439.238281 -59.015625 C 441.492188 -58.113281 443.253906 -56.621094 445.875 -56.082031 C 447.554688 -55.726562 449.585938 -55.605469 451.722656 -55.605469 C 456.128906 -55.605469 461 -56.128906 464.25 -56.222656 C 478.878906 -56.71875 491.75 -60.238281 505.433594 -62.222656 C 511.007812 -63.03125 516.269531 -63.421875 521.355469 -63.421875 C 544.363281 -63.421875 563.648438 -55.425781 590.867188 -42.046875 C 598.769531 -38.164062 606.539062 -35.003906 612.949219 -29.769531 C 627.355469 -18.035156 647.226562 -2.867188 669.035156 -1.109375 C 670.253906 -1.007812 671.449219 -0.957031 672.609375 -0.957031 C 684.828125 -0.957031 694.203125 -6.074219 704.53125 -6.074219 C 709.375 -6.074219 714.421875 -4.949219 720.0625 -1.648438 C 731.441406 4.984375 735.277344 17.265625 745.53125 24.804688 C 765.917969 39.867188 785.53125 43.347656 804.628906 43.347656 C 818.773438 43.347656 832.636719 41.4375 846.320312 40.921875 C 851.164062 40.726562 855.683594 40.496094 860.15625 40.496094 C 868.1875 40.496094 876.066406 41.25 885.378906 44.355469 C 898.695312 48.824219 912.199219 54.464844 926.605469 56.457031 C 929.929688 56.898438 933.410156 57.085938 936.9375 57.085938 Z M 936.9375 57.070312 " fill-opacity="1" fill-rule="nonzero"/><path fill="#3d5d4b" d="M 901.664062 112.773438 C 902.789062 112.773438 904.003906 112.617188 905.332031 112.257812 C 910.164062 111.015625 916.023438 108.597656 914.996094 104.210938 C 914.480469 102.164062 914.046875 101.210938 916.75 100.117188 C 918.582031 99.378906 920.703125 99.675781 922.535156 98.945312 C 924.585938 98.140625 925.976562 96.601562 927.875 95.726562 C 929.214844 95.125 930.476562 94.894531 931.707031 94.894531 C 933.777344 94.894531 935.773438 95.550781 937.976562 96.242188 C 945.371094 98.582031 952.472656 97.851562 960.230469 98.582031 L 960.230469 95.582031 C 960.230469 87.460938 960.742188 79.261719 960.15625 71.144531 C 957.308594 72.574219 954.785156 73.148438 952.441406 73.148438 C 945.699219 73.148438 940.5625 68.328125 934.097656 65.289062 C 932.851562 64.703125 931.679688 64.1875 930.367188 63.828125 C 927.070312 62.804688 923.632812 62.730469 920.1875 62.660156 C 919.648438 62.660156 919.0625 62.683594 918.472656 62.683594 C 917.085938 62.683594 915.710938 62.539062 914.992188 61.558594 C 913.964844 60.390625 914.695312 58.265625 913.746094 56.875 C 912.066406 54.09375 908.039062 52.777344 904.523438 51.824219 C 899.328125 50.507812 893.691406 49.777344 888.199219 49.480469 C 887.039062 49.425781 885.476562 49.3125 883.871094 49.3125 C 881.425781 49.3125 878.886719 49.582031 877.511719 50.726562 C 872.605469 54.75 884.902344 59.726562 888.199219 60.898438 C 889.878906 61.484375 892.148438 61.703125 891.414062 63.09375 C 890.609375 64.484375 885.996094 65.507812 884.613281 66.683594 C 879.484375 70.855469 890.027344 71.949219 893.175781 73.484375 C 894.929688 74.363281 895.296875 75.53125 896.6875 76.628906 C 898.515625 78.09375 901.222656 78.167969 903.789062 78.457031 C 907.003906 78.753906 912.128906 78.601562 914.472656 80.800781 C 916.523438 82.632812 915.28125 86.871094 913.445312 88.488281 C 911.25 90.316406 908.027344 90.75 905.027344 90.902344 C 904.019531 90.960938 903.007812 90.992188 902.003906 90.992188 C 896.910156 90.992188 891.914062 90.257812 887.023438 89.214844 C 881.605469 88.046875 876.410156 84.757812 871.578125 82.632812 C 868.796875 81.386719 865.5 79.488281 862.355469 78.828125 C 861.871094 78.722656 861.414062 78.675781 860.976562 78.675781 C 858.605469 78.675781 856.734375 79.996094 854.453125 80.800781 C 853.804688 81.015625 853.210938 81.101562 852.667969 81.101562 C 849.988281 81.101562 848.386719 78.957031 845.59375 78.957031 C 845.449219 78.957031 845.304688 78.960938 845.15625 78.972656 C 840.765625 79.261719 841.933594 84.09375 843.613281 85.992188 C 846.984375 89.707031 853.527344 90.835938 859.042969 90.835938 C 859.394531 90.835938 859.746094 90.832031 860.085938 90.820312 C 861.800781 90.78125 863.664062 90.546875 865.464844 90.546875 C 866.8125 90.546875 868.121094 90.675781 869.3125 91.109375 C 873.1875 92.574219 873.554688 96.304688 876.996094 97.769531 C 881.242188 99.523438 885.046875 102.304688 888.269531 105.015625 C 892.441406 108.507812 895.839844 112.769531 901.652344 112.769531 Z M 901.664062 112.773438 " fill-opacity="1" fill-rule="nonzero"/><path fill="#3d5d4b" d="M 202.597656 4.5625 C 211.101562 4.5625 217.429688 1.3125 224.859375 -1.878906 C 210.226562 -9.328125 218.265625 -19.347656 204.042969 -28.824219 C 198.667969 -32.390625 189.410156 -32.210938 183.226562 -34.417969 C 175.007812 -37.398438 171.171875 -40.875 161.957031 -41.914062 C 160.625 -42.058594 159.402344 -42.125 158.277344 -42.125 C 151.410156 -42.125 147.898438 -39.71875 141.1875 -38.753906 C 138.851562 -38.429688 136.621094 -38.273438 134.476562 -38.273438 C 109.691406 -38.273438 96.808594 -58.851562 72.867188 -70.484375 C 64.917969 -74.324219 57.378906 -77.03125 50.199219 -78.878906 C 49.023438 -76.757812 47.945312 -74.5 46.859375 -72.246094 C 46.410156 -71.300781 45.914062 -70.214844 45.414062 -69.085938 C 53.949219 -65.199219 62.394531 -60.417969 70.339844 -54.957031 C 77.253906 -50.21875 84.835938 -45.523438 90.617188 -39.25 C 91.433594 -38.347656 92.152344 -37.488281 92.738281 -36.589844 C 96.488281 -35.550781 100.28125 -34.289062 104.300781 -32.890625 C 122.542969 -29.640625 153.519531 -31.488281 165.574219 -17.089844 C 173.433594 -7.703125 175.644531 -2.242188 189.191406 2.179688 C 194.332031 3.871094 198.699219 4.554688 202.605469 4.554688 Z M 202.597656 4.5625 " fill-opacity="1" fill-rule="nonzero"/><path fill="#5f6454" d="M 69.316406 109.933594 C 100.574219 109.933594 126.914062 95.875 147.179688 87.421875 C 156.921875 83.3125 175.664062 77.171875 171.75 69.273438 C 171.429688 68.644531 171 68.007812 170.519531 67.46875 C 159.601562 72.117188 149.164062 77.171875 137.867188 81.730469 C 126.578125 86.296875 118.128906 88.097656 110.859375 88.097656 C 93.476562 88.097656 82.792969 77.824219 55.960938 70.539062 C 45.304688 67.644531 32.289062 66.503906 19.019531 66.503906 C 18.019531 66.503906 17.019531 66.507812 16.019531 66.523438 C 17.949219 70.320312 26.941406 76.316406 22.871094 79.027344 C 21.675781 79.8125 19.390625 80.078125 16.605469 80.078125 C 11.417969 80.078125 4.476562 79.175781 -0.46875 79.117188 L -0.46875 89.679688 C 6.917969 97.21875 28.007812 102.636719 43.964844 106.746094 C 52.730469 108.988281 61.1875 109.9375 69.3125 109.9375 Z M 69.316406 109.933594 " fill-opacity="1" fill-rule="nonzero"/><path fill="#2a2d32" d="M 238.671875 26.042969 C 238.648438 26.035156 238.621094 26.027344 238.597656 26.019531 C 238.621094 26.027344 238.648438 26.035156 238.671875 26.042969 Z M 93.441406 100.316406 C 99.574219 100.316406 106.703125 98.515625 116.226562 93.949219 C 125.753906 89.390625 134.558594 84.292969 143.769531 79.6875 C 157.765625 72.601562 172.757812 66.554688 192.808594 64.792969 C 198.410156 64.308594 204.152344 64.109375 209.992188 64.109375 C 238.78125 64.109375 269.964844 69 298.835938 69 C 302.335938 69 305.800781 68.929688 309.222656 68.765625 C 320.601562 68.222656 332.390625 67.09375 343.042969 64.070312 C 350.652344 61.914062 359.03125 56.289062 367.261719 56.289062 C 367.480469 56.289062 367.699219 56.296875 367.921875 56.304688 C 373.058594 56.5 377.054688 56.753906 380.976562 56.753906 C 385.296875 56.753906 389.523438 56.445312 395.058594 55.40625 C 406.390625 53.28125 416.734375 50.121094 427.074219 46.152344 C 432.785156 43.945312 439.742188 43.160156 447.28125 43.160156 C 466.386719 43.160156 489.210938 48.230469 504.921875 48.230469 C 505.117188 48.230469 505.3125 48.230469 505.507812 48.230469 C 508.535156 48.1875 511.785156 47.234375 514.628906 46.515625 C 523.65625 44.171875 532.871094 41.320312 541.226562 37.757812 C 545.246094 36.042969 549.445312 34.644531 552.875 32.207031 C 557.167969 29.226562 562.71875 28.007812 567.234375 25.34375 C 569.582031 23.945312 571.976562 22.730469 574.636719 21.6875 C 576.128906 21.105469 579.785156 20.246094 580.054688 18.664062 C 580.28125 16.996094 576.9375 16.042969 575.359375 15.773438 C 574.683594 15.648438 574.023438 15.589844 573.371094 15.589844 C 571.621094 15.589844 569.957031 16.019531 568.40625 16.808594 C 566.644531 17.664062 565.378906 18.523438 563.253906 18.703125 C 560.910156 18.929688 558.558594 18.660156 556.257812 19.378906 C 553.640625 20.238281 552.242188 22.492188 549.574219 23.308594 C 548.265625 23.667969 546.863281 23.714844 545.554688 24.078125 C 543.792969 24.527344 541.988281 24.980469 540.183594 25.339844 C 539.074219 25.527344 537.792969 25.683594 536.511719 25.683594 C 534.78125 25.683594 533.054688 25.402344 531.785156 24.574219 C 529.34375 22.949219 531.058594 20.777344 532.503906 19.160156 C 533.636719 17.851562 536.570312 14.691406 534.3125 13.019531 C 533.617188 12.515625 532.75 12.308594 531.804688 12.308594 C 528.71875 12.308594 524.769531 14.5 522.9375 15.503906 C 512.28125 21.417969 502.617188 30.171875 490.0625 33.648438 C 487.597656 34.316406 484.828125 34.6875 482.140625 34.6875 C 481.386719 34.6875 480.636719 34.65625 479.90625 34.597656 C 476.339844 34.28125 473.71875 33.738281 471.914062 32.972656 C 463.828125 29.046875 473.851562 19.75 467.484375 17.765625 C 465.085938 17.054688 462.644531 16.765625 460.167969 16.765625 C 450.25 16.765625 439.738281 21.394531 428.789062 22.007812 C 426.894531 22.007812 425.132812 21.917969 423.417969 21.917969 C 417.277344 22.007812 411.589844 24.128906 405.539062 24.582031 C 377.039062 26.683594 347.210938 28.863281 318.414062 28.863281 C 316.273438 28.863281 314.144531 28.847656 312.019531 28.828125 C 311.695312 28.824219 311.375 28.824219 311.054688 28.824219 C 301.414062 28.824219 292.664062 30.132812 283.617188 32.664062 C 281.640625 33.226562 279.574219 33.46875 277.464844 33.46875 C 269.9375 33.46875 261.894531 30.394531 255.757812 27.921875 C 253.179688 26.839844 250.289062 26.253906 247.40625 25.9375 C 247.105469 25.902344 246.765625 25.886719 246.394531 25.886719 C 244.628906 25.886719 242.203125 26.222656 240.386719 26.222656 C 239.710938 26.222656 239.121094 26.179688 238.671875 26.046875 C 239.097656 26.171875 239.527344 26.304688 239.996094 26.433594 C 243.15625 35.144531 234.761719 37.898438 225.144531 37.898438 C 232.863281 37.898438 231.734375 49.769531 229.253906 52.65625 C 226.898438 55.414062 224.085938 56.339844 221.019531 56.339844 C 217.96875 56.339844 214.660156 55.429688 211.285156 54.503906 C 207.171875 53.375 203.199219 51.75 199 50.894531 C 197.320312 50.546875 196.105469 50.402344 195.074219 50.402344 C 192.808594 50.402344 191.46875 51.085938 188.207031 51.707031 C 185.628906 52.207031 182.71875 52.46875 179.757812 52.46875 C 175.238281 52.46875 170.601562 51.851562 166.890625 50.484375 C 161.652344 48.589844 158.628906 46.332031 152.53125 45.835938 C 151.761719 45.769531 151.019531 45.746094 150.304688 45.746094 C 144.25 45.746094 140.046875 47.777344 134.105469 48.546875 C 133.136719 48.675781 131.523438 48.765625 129.648438 48.765625 C 124.4375 48.765625 117.15625 48.097656 115.722656 45.835938 C 111.933594 39.878906 130.578125 36.359375 124.121094 29.222656 C 122.511719 27.421875 119.515625 27.019531 116.273438 27.019531 C 113.644531 27.019531 110.859375 27.285156 108.523438 27.285156 C 107.527344 27.285156 106.617188 27.238281 105.835938 27.097656 C 100.195312 26.109375 95.949219 22.859375 90.621094 21.230469 C 86.882812 20.078125 82.078125 19.40625 77.167969 19.40625 C 67.445312 19.40625 57.316406 22.0625 54.226562 28.992188 C 50.59375 37.117188 53.769531 46.78125 43.503906 46.78125 C 40.367188 46.78125 35.976562 45.882812 29.75 43.757812 C 19.359375 40.238281 9.472656 35.992188 -0.460938 31.792969 L -0.460938 79.503906 C 3.195312 79.1875 6.902344 78.960938 10.648438 78.828125 C 11.554688 78.78125 12.5 78.78125 13.449219 78.738281 C 14.292969 78.722656 15.132812 78.71875 15.980469 78.71875 C 27.171875 78.71875 38.152344 79.859375 47.140625 82.753906 C 69.777344 90.042969 78.785156 100.308594 93.449219 100.308594 Z M 93.441406 100.316406 " fill-opacity="1" fill-rule="nonzero"/><path fill="#5f6454" d="M 228.042969 38.933594 C 232.925781 38.933594 237.335938 37.972656 240.441406 35.542969 C 242.292969 34.097656 243.101562 31.617188 245.589844 30.667969 C 246.285156 30.414062 247.015625 30.332031 247.75 30.332031 C 248.96875 30.332031 250.21875 30.554688 251.425781 30.554688 C 251.945312 30.554688 252.449219 30.511719 252.945312 30.398438 C 262.160156 28.367188 254.300781 24.890625 248.203125 24.707031 C 247.863281 24.699219 247.507812 24.695312 247.144531 24.695312 C 245.023438 24.695312 242.546875 24.828125 240.085938 24.828125 C 236.820312 24.828125 233.574219 24.59375 231.222656 23.488281 C 226.394531 21.140625 231.316406 16.175781 235.378906 15.769531 C 235.5625 15.753906 235.742188 15.746094 235.914062 15.746094 C 237.792969 15.746094 239.335938 16.578125 241.074219 17.03125 C 244.457031 17.980469 247.941406 18.160156 251.460938 18.429688 C 252.199219 18.496094 252.9375 18.523438 253.660156 18.523438 C 260.84375 18.523438 267.117188 15.511719 274.132812 14.320312 C 277.769531 13.703125 280.933594 12.675781 284.480469 12.675781 C 285.335938 12.675781 286.222656 12.734375 287.136719 12.875 C 294.363281 14.019531 313.414062 20.179688 325.917969 20.179688 C 334.660156 20.179688 340.203125 17.167969 336.261719 7.324219 C 334.597656 6.925781 333.046875 6.765625 331.566406 6.765625 C 325.636719 6.765625 320.867188 9.320312 314.65625 9.320312 C 313.625 9.320312 312.554688 9.25 311.429688 9.085938 C 302.804688 7.867188 294.859375 4.75 286.417969 3.035156 C 278.648438 1.457031 277.5625 -4.144531 274.632812 -8.972656 C 270.882812 -15.203125 265.375 -17.726562 256.613281 -18.042969 C 255.5 -18.078125 254.332031 -18.089844 253.121094 -18.089844 C 244.605469 -18.089844 233.933594 -17.191406 226.898438 -14.382812 C 223.738281 -13.078125 220.941406 -11.132812 217.960938 -9.417969 C 213.96875 -7.121094 208.058594 -3.59375 202.710938 -3.59375 C 202.371094 -3.59375 202.035156 -3.609375 201.699219 -3.636719 C 198.988281 -3.863281 196.464844 -4.859375 193.617188 -5.082031 C 189.640625 -5.398438 185.984375 -6.121094 182.238281 -7.335938 C 168.691406 -11.761719 166.523438 -17.226562 158.667969 -26.609375 C 154.285156 -31.800781 147.695312 -34.554688 140.382812 -36.269531 C 134.015625 -37.757812 130.039062 -40.738281 123.992188 -43.269531 C 117.582031 -45.929688 112.523438 -49.453125 106.605469 -52.65625 C 101.59375 -55.367188 95.542969 -55.773438 90.578125 -58.4375 C 86.375 -60.648438 82.222656 -61.597656 77.257812 -62.226562 C 70.257812 -63.132812 63.125 -63.085938 56.621094 -64.757812 C 55.8125 -64.980469 54.953125 -65.207031 54.140625 -65.480469 C 49.355469 -67.152344 44.882812 -67.644531 39.917969 -68.730469 C 32.75 -70.285156 26.863281 -79.308594 19.925781 -79.308594 C 19.605469 -79.308594 19.285156 -79.289062 18.964844 -79.25 C 11.652344 -78.390625 4.066406 -67.332031 1.265625 -62.546875 C -0.855469 -58.980469 -0.496094 -55.1875 -0.449219 -51.308594 C -0.359375 -40.789062 -0.449219 -30.230469 -0.449219 -19.710938 C -0.449219 -19.082031 -0.992188 -11.453125 -0.449219 -11.316406 C 7.855469 -9.191406 16.257812 -6.121094 24.613281 -3.914062 C 32.542969 -1.832031 39.847656 -0.613281 46.402344 -0.613281 C 54.925781 -0.613281 62.195312 -2.671875 67.960938 -7.566406 C 75.378906 -13.921875 79.398438 -19.515625 90.84375 -19.515625 C 93.058594 -19.515625 95.546875 -19.304688 98.394531 -18.855469 C 118.402344 -15.605469 139.890625 -7.210938 159.351562 2.085938 C 176.019531 9.984375 183.644531 21.808594 198.460938 30.65625 C 204.816406 34.453125 217.519531 38.921875 228.058594 38.921875 Z M 228.042969 38.933594 " fill-opacity="1" fill-rule="nonzero"/><path fill="#3d5d4b" d="M 360.296875 21.09375 C 365.054688 21.09375 369.796875 20.078125 374.238281 18.390625 C 377.488281 17.125 391.714844 15.90625 389.136719 11.253906 C 388.492188 10.074219 386.832031 9.710938 384.769531 9.710938 C 381.53125 9.710938 377.304688 10.609375 374.507812 10.609375 C 373.863281 10.609375 373.296875 10.566406 372.835938 10.445312 C 370.441406 9.859375 369.542969 8.050781 367.191406 7.511719 C 366.824219 7.429688 366.445312 7.402344 366.054688 7.402344 C 364.371094 7.402344 362.5 7.996094 360.957031 8.140625 C 360.492188 8.1875 360.058594 8.210938 359.652344 8.210938 C 356.941406 8.210938 355.226562 7.261719 352.5625 6.515625 C 350.164062 5.886719 347.953125 5.707031 345.738281 4.890625 C 343.933594 4.261719 342.21875 3.582031 340.503906 2.90625 C 338.832031 2.277344 337.207031 1.640625 335.445312 1.101562 C 324.382812 -2.375 312.824219 -4.628906 301.625 -7.792969 C 296.113281 -9.371094 290.515625 -11.085938 285.507812 -13.476562 C 282.25 -14.988281 278.164062 -17.089844 274.132812 -17.089844 C 272.851562 -17.089844 271.578125 -16.875 270.335938 -16.367188 C 268.171875 -15.507812 267.714844 -13.296875 265.730469 -12.351562 C 264.960938 -11.988281 264.15625 -11.832031 263.34375 -11.832031 C 261.167969 -11.832031 258.964844 -12.953125 257.28125 -14.066406 C 255.207031 -15.421875 253.714844 -17.542969 250.734375 -17.722656 C 250.28125 -17.75 249.855469 -17.765625 249.449219 -17.765625 C 240.457031 -17.765625 244.199219 -9.835938 247.4375 -6.253906 C 249.019531 -4.539062 250.824219 -2.777344 252.449219 -1.242188 C 258.648438 3.101562 266.585938 8.800781 274.382812 8.800781 C 275.902344 8.800781 277.417969 8.585938 278.914062 8.101562 C 284.949219 6.574219 291.175781 5.890625 297.417969 5.890625 C 304.113281 5.890625 310.824219 6.675781 317.339844 8.054688 C 323.527344 9.359375 329.445312 11.125 335.359375 13.066406 C 340.597656 14.78125 344.84375 17.445312 349.855469 19.292969 C 353.269531 20.539062 356.792969 21.09375 360.304688 21.09375 Z M 360.296875 21.09375 " fill-opacity="1" fill-rule="nonzero"/><path fill="#5f6454" d="M 398.273438 82.277344 C 404.101562 82.277344 410.078125 81.460938 415.558594 80.726562 C 423.417969 79.644531 447.035156 71.203125 461.484375 62.21875 C 472.457031 55.40625 478.554688 47.011719 462.929688 42.316406 C 453.316406 39.417969 443.695312 36.777344 434.25 36.777344 C 427.367188 36.777344 420.585938 38.175781 413.980469 41.910156 C 402.597656 48.339844 392.257812 56.128906 378.585938 56.128906 C 375.933594 56.128906 373.15625 55.835938 370.222656 55.183594 C 362.078125 53.386719 356.441406 51.378906 348.289062 51.378906 C 347.039062 51.378906 345.734375 51.425781 344.347656 51.53125 C 334.894531 52.265625 325.808594 54.527344 316.308594 54.527344 C 315.871094 54.527344 315.433594 54.519531 314.996094 54.511719 C 314.636719 54.503906 314.125 54.5 313.507812 54.5 C 307.441406 54.5 290.921875 55.015625 300.636719 62.230469 C 300.75 62.320312 301.140625 62.359375 301.75 62.359375 C 305.328125 62.359375 316.449219 61.023438 324.167969 61.023438 C 332.21875 61.023438 336.5625 62.472656 324.746094 68.414062 C 319.871094 70.847656 307.363281 72.070312 315.488281 77.4375 C 317.160156 78.542969 321.085938 78.769531 325.148438 78.769531 C 327.949219 78.769531 330.804688 78.664062 333.03125 78.664062 C 334.03125 78.664062 334.90625 78.683594 335.582031 78.746094 C 340.242188 79.210938 344.078125 80.21875 348.011719 80.21875 C 350.589844 80.21875 353.210938 79.78125 356.128906 78.476562 C 360.652344 76.457031 361.960938 71.582031 367.527344 71.582031 C 368.179688 71.582031 368.890625 71.652344 369.675781 71.796875 C 377.355469 73.242188 381.011719 79.832031 389.183594 81.457031 C 392.101562 82.058594 395.164062 82.289062 398.269531 82.289062 Z M 398.273438 82.277344 " fill-opacity="1" fill-rule="nonzero"/><path fill="#3d5d4b" d="M 860.769531 65.398438 C 860.933594 65.398438 861.101562 65.394531 861.261719 65.382812 C 871.601562 64.613281 858.414062 60.507812 855.296875 59.46875 C 848.832031 57.316406 842.933594 56.445312 837.15625 54.019531 C 836.511719 52.25 834.855469 52.101562 831.140625 50.214844 C 829.796875 49.519531 828.660156 48.761719 827.613281 47.996094 C 826.382812 46.929688 825.238281 45.917969 823.957031 45.070312 L 824.855469 45.910156 C 822.554688 44.230469 820.164062 42.921875 816.117188 42.921875 C 815.570312 42.921875 814.996094 42.945312 814.386719 42.996094 C 813.394531 43.082031 812.371094 43.121094 811.328125 43.121094 C 795.378906 43.121094 774.0625 33.417969 765.164062 24.355469 C 751.03125 9.910156 721.09375 -7.78125 696.933594 -10.402344 C 695.59375 -10.546875 694.378906 -10.613281 693.253906 -10.613281 C 686.398438 -10.613281 682.910156 -8.21875 676.164062 -7.289062 C 673.804688 -6.957031 671.550781 -6.796875 669.390625 -6.796875 C 644.648438 -6.796875 631.765625 -27.351562 607.847656 -38.972656 C 589.023438 -48.109375 572.578125 -50.800781 557.078125 -50.800781 C 534.746094 -50.800781 514.390625 -45.207031 491.738281 -45.207031 C 484.886719 -45.207031 477.824219 -45.71875 470.4375 -47.054688 C 463.695312 -48.28125 453.28125 -50.03125 444.960938 -50.03125 C 432.15625 -50.03125 424.28125 -45.886719 442.261719 -29.308594 C 450.949219 -21.269531 459.574219 -18.765625 468.070312 -18.765625 C 482.183594 -18.765625 495.96875 -25.679688 509.152344 -25.679688 C 510.277344 -25.679688 511.402344 -25.628906 512.523438 -25.519531 C 539.957031 -22.730469 563.476562 -8.992188 591.25 -8.992188 C 592.230469 -8.992188 593.21875 -9.007812 594.210938 -9.042969 C 595.433594 -9.082031 596.648438 -9.105469 597.867188 -9.105469 C 610.0625 -9.105469 621.664062 -7.066406 632.996094 -3.492188 C 644.738281 0.257812 654.582031 6.847656 666.050781 10.367188 C 669.660156 11.449219 674.859375 10.457031 678.289062 12.214844 C 680.363281 13.253906 680.050781 15.195312 682.261719 16.140625 C 683.027344 16.460938 684.054688 16.515625 685.132812 16.515625 C 685.671875 16.515625 686.222656 16.5 686.761719 16.5 C 687.566406 16.5 688.34375 16.53125 688.988281 16.679688 C 694.71875 17.945312 702.898438 18.980469 705.421875 23.5 C 708.855469 29.59375 707.769531 35.277344 715.804688 39.34375 C 715.984375 39.433594 716.164062 39.523438 716.304688 39.613281 C 722.652344 42.582031 729.203125 46.527344 735.808594 46.527344 C 737.941406 46.527344 740.082031 46.113281 742.230469 45.121094 C 747.050781 42.839844 751.953125 41.785156 757.238281 41.785156 C 760.015625 41.785156 762.898438 42.082031 765.9375 42.636719 C 770.632812 43.542969 774.0625 46.386719 778.941406 46.746094 C 779.476562 46.792969 780 46.8125 780.515625 46.8125 C 783.589844 46.8125 786.386719 46.113281 789.304688 46.113281 C 790.699219 46.113281 792.125 46.269531 793.621094 46.742188 C 797.050781 47.78125 799.085938 50.894531 802.472656 51.75 C 803.078125 51.902344 803.675781 51.960938 804.265625 51.960938 C 806.457031 51.960938 808.558594 51.144531 810.734375 51.144531 C 811.503906 51.144531 812.285156 51.246094 813.082031 51.527344 C 814.34375 51.976562 818.90625 55.816406 819.582031 56.761719 C 820.9375 58.519531 818.542969 62.175781 819.941406 63.625 C 820.902344 64.585938 821.773438 64.964844 822.578125 64.964844 C 825.207031 64.964844 827.164062 60.933594 829.515625 60.105469 C 830.414062 59.792969 831.445312 59.679688 832.53125 59.679688 C 835.097656 59.679688 837.992188 60.328125 840.308594 60.648438 C 841.445312 60.78125 842.59375 60.800781 843.746094 60.800781 C 844.175781 60.800781 844.609375 60.800781 845.039062 60.800781 C 846.621094 60.800781 848.191406 60.828125 849.703125 61.148438 C 853.296875 61.929688 856.894531 65.410156 860.769531 65.410156 Z M 860.769531 65.398438 " fill-opacity="1" fill-rule="nonzero"/><path fill="#2a2d32" d="M 870.558594 37.65625 C 874.09375 37.65625 878.21875 36.136719 881.207031 35.726562 C 884.691406 35.207031 886.402344 34.316406 889.511719 32.984375 C 892.1875 31.792969 895.894531 31.722656 898.792969 30.902344 C 903.6875 29.566406 908.515625 28.234375 913.410156 26.75 C 924.023438 23.5625 934.480469 19.480469 945.691406 17.628906 C 950.4375 16.890625 955.339844 16.070312 960.160156 15.253906 C 960.824219 15.105469 960.160156 2.203125 960.160156 0.714844 C 959.855469 1.050781 958.933594 1.140625 957.808594 1.140625 C 956.304688 1.140625 954.433594 0.976562 953.191406 0.976562 C 952.867188 0.976562 952.585938 0.988281 952.367188 1.015625 C 949.175781 1.386719 946.128906 2.207031 943.015625 2.722656 C 940.933594 3.167969 938.863281 3.910156 936.78125 4.351562 C 936.558594 4.351562 936.335938 4.425781 936.113281 4.425781 C 935.601562 4.515625 935.128906 4.554688 934.667969 4.554688 C 933.273438 4.554688 932.054688 4.207031 930.546875 3.980469 C 928.457031 3.714844 926.035156 3.476562 923.613281 3.476562 C 920.628906 3.476562 917.636719 3.835938 915.261719 4.945312 C 913.554688 5.6875 912.734375 6.5 910.585938 6.875 C 907.910156 7.394531 905.019531 7.464844 902.347656 7.839844 C 893 8.957031 886.246094 12.441406 878.304688 15.925781 C 872.667969 18.292969 863.390625 21.710938 863.019531 27.421875 C 862.871094 29.941406 863.910156 34.769531 866.355469 36.542969 C 867.539062 37.363281 868.984375 37.65625 870.546875 37.65625 Z M 870.558594 37.65625 " fill-opacity="1" fill-rule="nonzero"/></svg>