<?xml version="1.0" standalone="no"?>
<!DOCTYPE svg PUBLIC "-//W3C//DTD SVG 20010904//EN"
 "http://www.w3.org/TR/2001/REC-SVG-20010904/DTD/svg10.dtd">
<svg version="1.0" xmlns="http://www.w3.org/2000/svg"
 width="369.000000pt" height="604.000000pt" viewBox="0 0 369.000000 604.000000"
 preserveAspectRatio="xMidYMid meet">

<g transform="translate(0.000000,604.000000) scale(0.100000,-0.100000)"
fill="#000000" stroke="none">
<path d="M1340 5918 c-30 -28 -90 -84 -133 -124 l-77 -73 2 -538 3 -538 710 0
710 0 3 530 2 530 -137 132 -138 132 -445 0 -445 0 -55 -51z"/>
<path d="M440 4419 c-118 -105 -250 -223 -292 -261 l-78 -70 1 -1747 0 -1746
140 -125 c77 -69 211 -189 297 -267 l157 -142 518 -1 517 0 0 470 0 470 -164
0 -164 0 -146 136 c-80 75 -146 142 -146 148 0 6 0 539 0 1184 l0 1174 87 82
c49 45 111 103 139 129 l51 47 491 0 492 0 145 -132 145 -133 -1 -1185 -1
-1185 -52 -45 c-28 -25 -86 -76 -128 -113 -42 -37 -86 -77 -99 -87 -20 -18
-38 -20 -186 -20 l-163 0 0 -470 0 -470 514 0 515 0 238 216 c131 120 264 241
295 271 l58 54 0 1743 0 1744 -67 58 c-38 32 -75 65 -83 73 -8 8 -106 95 -217
193 -111 98 -205 183 -208 188 -4 6 -436 10 -1198 10 l-1193 0 -214 -191z"/>
<path d="M1233 3757 l-132 -122 -1 -1176 0 -1176 37 -33 c21 -19 82 -76 136
-127 l99 -93 480 0 479 0 140 126 139 126 0 1167 0 1167 -67 65 c-38 36 -101
95 -142 132 l-73 67 -482 0 -481 -1 -132 -122z"/>
<path d="M1730 530 l0 -470 125 0 125 0 0 470 0 470 -125 0 -125 0 0 -470z"/>
</g>
</svg>
